<svg width="80" height="80" viewBox="0 0 80 80" fill="none" xmlns="http://www.w3.org/2000/svg">
<path d="M40 80C17.9086 80 -9.65645e-07 62.0914 0 40C9.65645e-07 17.9086 17.9086 -9.65645e-07 40 0C62.0914 9.65645e-07 80 17.9086 80 40C80 62.0914 62.0914 80 40 80Z" fill="#D90026"/>
<path d="M77.4816 26C71.8066 10.8133 57.1661 7.50355e-07 40 0C22.8339 -7.50354e-07 8.19338 10.8133 2.51844 26L77.4816 26Z" fill="black"/>
<path d="M2.51843 54C8.19338 69.1867 22.8339 80 40 80C57.1661 80 71.8066 69.1867 77.4816 54L2.51843 54Z" fill="#FFDB44"/>
</svg>
