<svg width="76" height="76" viewBox="0 0 76 76" fill="none" xmlns="http://www.w3.org/2000/svg">
<path d="M58 6.25C52.25 2.625 45.375 0.5 38 0.5C30.625 0.5 23.75 2.625 18 6.25V69.625C23.75 73.25 30.625 75.375 38 75.375C45.375 75.375 52.25 73.25 58 69.625V6.25Z" fill="#F9F9F9"/>
<path d="M58 6.25V69.625C68.5 63.125 75.5 51.125 75.5 37.875C75.5 24.625 68.5 12.875 58 6.25" fill="#D90026"/>
<path d="M18 6.25C7.5 12.875 0.5 24.875 0.5 38C0.5 51.125 7.5 63.125 18 69.75V6.25Z" fill="#D90026"/>
<path d="M51.625 37.5C51.125 37.25 51 36.75 51.125 36.5L52.375 32L48 32.875C47.875 32.875 47.375 32.875 47.25 32L46.875 30.5L43.875 34C43.875 34 41.875 36.125 42.5 32.875L43.75 26L41.375 27.25C41.25 27.25 40.75 27.375 40.125 26.125L38 21.75L35.75 25.875C35.125 27.125 34.625 27 34.5 27L32.125 25.75L33.375 32.625C34 35.875 32 33.75 32 33.75L29 30.25L28.625 31.75C28.375 32.625 28 32.625 27.875 32.625L23.5 31.75L24.75 36.25C24.75 36.625 24.75 37 24.25 37.25L23 38C23 38 28 42 29.625 43.375C30 43.625 30.75 44.375 30.5 45.25L29.875 47L36.75 46C37.125 46 37.875 46 37.75 47.125L37.375 54.25H38.625L38.25 47.125C38.25 46 39 46 39.25 46L46.125 47L45.5 45.25C45.25 44.375 46 43.625 46.375 43.375C48 42 53 38 53 38L51.625 37.5Z" fill="#D90026"/>
</svg>
