<svg width="80" height="81" viewBox="0 0 80 81" fill="none" xmlns="http://www.w3.org/2000/svg">
<path d="M40 80C17.9086 80 -2.7141e-06 62.0914 -1.74846e-06 40C-7.8281e-07 17.9086 17.9086 1.25447e-05 40 1.35103e-05C62.0914 1.4476e-05 80 17.9086 80 40C80 62.0914 62.0914 80 40 80Z" fill="#FDFDFD"/>
<path d="M74.9332 20.5C68.0909 8.26879 55.0111 1.4388e-05 40 1.37318e-05C24.9889 1.30757e-05 11.9091 8.26879 5.06686 20.5L74.9332 20.5Z" fill="#338AF3"/>
<path d="M74.9332 20.5C68.0909 8.26879 55.0111 1.4388e-05 40 1.37318e-05C24.9889 1.30757e-05 11.9091 8.26879 5.06686 20.5L74.9332 20.5Z" fill="#338AF3"/>
<path d="M5.06683 60C11.9091 72.2312 24.9889 80.5 40 80.5C55.0111 80.5 68.0909 72.2312 74.9331 60L5.06683 60Z" fill="#338AF3"/>
<path d="M5.06683 60C11.9091 72.2312 24.9889 80.5 40 80.5C55.0111 80.5 68.0909 72.2312 74.9331 60L5.06683 60Z" fill="#338AF3"/>
<path d="M39.5 31.5L35.5 27.5L34.5 33L28.5 32.5L31 37.5L26 40L31 42.5L29 47.5L34.5 47L35.5 53L39.5 48.5L43.5 53L44.5 47L50 47.5L48 42.5L53 40L47.5 37.5L50 32.5L44.5 33L43.5 27.5L39.5 31.5Z" fill="#FFDA44"/>
</svg>
