<svg width="80" height="80" viewBox="0 0 80 80" fill="none" xmlns="http://www.w3.org/2000/svg">
<path d="M80 40C80 62.0914 62.0914 80 40 80C17.9086 80 1.52588e-05 62.0914 1.52588e-05 40C1.52588e-05 17.9086 17.9086 0 40 0C62.0914 0 80 17.9086 80 40Z" fill="#F2F0F2"/>
<path d="M26 2.51843C10.8133 8.19337 1.52588e-05 22.8339 1.52588e-05 40C1.52588e-05 57.1661 10.8133 71.8066 26 77.4816V2.51843Z" fill="#6EA644"/>
<path d="M54 77.4816C69.1867 71.8066 80 57.1661 80 40C80 22.8339 69.1867 8.19337 54 2.51843L54 77.4816Z" fill="#D90026"/>
</svg>
