<svg width="81" height="81" viewBox="0 0 81 81" fill="none" xmlns="http://www.w3.org/2000/svg">
<path d="M40.5 80.3438C62.5051 80.3438 80.3438 62.5051 80.3438 40.5C80.3438 18.4949 62.5051 0.65625 40.5 0.65625C18.4949 0.65625 0.65625 18.4949 0.65625 40.5C0.65625 62.5051 18.4949 80.3438 40.5 80.3438Z" fill="#F5F5F5"/>
<path d="M29.0781 42.7578C32.7969 45.2813 37.9766 44.2188 40.5 40.5C43.0234 36.7813 48.0703 35.7187 51.9219 38.2422C55.5078 40.6328 56.5703 45.2812 54.5781 48.8672C58.9609 41.4297 56.9687 31.7344 49.5312 26.8203C41.9609 21.7734 31.7344 23.7656 26.6875 31.3359C26.5547 31.6016 26.4219 31.8672 26.2891 32C24.4297 35.8516 25.625 40.3672 29.0781 42.7578" fill="#ED4C5C"/>
<path d="M54.1797 49.6641C54.3125 49.3984 54.4453 49.1328 54.5781 49C54.4453 49.1328 54.3125 49.3984 54.1797 49.6641Z" fill="#003478"/>
<path d="M51.9219 38.2422C48.2031 35.7187 43.0234 36.7812 40.5 40.5C37.9766 44.2188 32.9297 45.2813 29.0781 42.7578C25.4922 40.3672 24.4297 35.7188 26.4219 32.1328C21.9062 39.5703 24.0312 49.2656 31.4687 54.1797C39.0391 59.2266 49.2656 57.2344 54.3125 49.6641C54.4453 49.3984 54.5781 49.1328 54.7109 49C56.5703 45.1484 55.375 40.6328 51.9219 38.2422" fill="#428BC1"/>
<path d="M8.35938 28.9453L17.5234 15.2656L16.5938 14.6016L15.6641 14.0703L6.5 27.75L7.42969 28.2812L8.35938 28.9453Z" fill="#3E4347"/>
<path d="M10.8828 30.6719L11.8125 31.2031L20.8438 17.5234L20.0469 16.9922L19.1172 16.3281L9.95312 30.0078L10.8828 30.6719Z" fill="#3E4347"/>
<path d="M22.4375 18.5859L13.4062 32.2656L14.3359 32.9297L15.2656 33.4609L24.2969 19.7812L23.3672 19.25L22.4375 18.5859Z" fill="#3E4347"/>
<path d="M62.4141 54.4453L63.3438 55.1094L67.5938 48.7344L66.6641 48.0703L65.7344 47.5391L61.4844 53.9141L62.4141 54.4453Z" fill="#3E4347"/>
<path d="M72.6406 52.0547L68.3906 58.4297L69.3203 59.0938L70.25 59.625L74.5 53.25L73.5703 52.7188L72.6406 52.0547Z" fill="#3E4347"/>
<path d="M66.7969 57.3672L71.0469 50.9922L70.1172 50.3281L69.1875 49.7969L64.9375 56.1719L65.8672 56.7031L66.7969 57.3672Z" fill="#3E4347"/>
<path d="M61.8828 55.375L60.9531 54.8438L56.7031 61.2187L57.6328 61.75L58.5625 62.4141L62.8125 56.0391L61.8828 55.375Z" fill="#3E4347"/>
<path d="M65.2031 57.6328L64.4063 57.1016L60.1562 63.4766L60.9531 64.0078L61.8828 64.6719L66.1328 58.2969L65.2031 57.6328Z" fill="#3E4347"/>
<path d="M67.7266 59.3594L63.4766 65.7344L64.4063 66.3984L65.3359 66.9297L69.5859 60.5547L68.6562 59.8906L67.7266 59.3594Z" fill="#3E4347"/>
<path d="M7.42969 52.7187L6.5 53.25L15.6641 66.9297L16.5938 66.3984L17.5234 65.7344L8.35938 52.0547L7.42969 52.7187Z" fill="#3E4347"/>
<path d="M15.7969 57.6328L14.8672 58.2969L19.1172 64.6719L20.0469 64.0078L20.8438 63.4766L16.5938 57.1016L15.7969 57.6328Z" fill="#3E4347"/>
<path d="M14.3359 48.0703L13.4062 48.7344L22.4375 62.4141L23.3672 61.75L24.2969 61.2187L15.2656 47.5391L14.3359 48.0703Z" fill="#3E4347"/>
<path d="M9.95312 50.9922L14.2031 57.3672L15.1328 56.7031L16.0625 56.1719L11.8125 49.7969L10.8828 50.3281L9.95312 50.9922Z" fill="#3E4347"/>
<path d="M68.6562 21.1094L69.5859 20.4453L65.3359 14.0703L64.4063 14.6016L63.4766 15.2656L67.7266 21.6406L68.6562 21.1094Z" fill="#3E4347"/>
<path d="M61.8828 25.625L62.8125 24.9609L58.5625 18.5859L57.6328 19.25L56.7031 19.7812L60.9531 26.1563L61.8828 25.625Z" fill="#3E4347"/>
<path d="M68.3906 22.5703L72.6406 28.9453L73.5703 28.2812L74.5 27.75L70.25 21.375L69.3203 21.9062L68.3906 22.5703Z" fill="#3E4347"/>
<path d="M70.1172 30.6719L71.0469 30.0078L61.8828 16.3281L60.9531 16.9922L60.1562 17.5234L69.1875 31.2031L70.1172 30.6719Z" fill="#3E4347"/>
<path d="M66.6641 32.9297L67.5938 32.2656L63.3438 25.8906L62.4141 26.5547L61.4844 27.0859L65.7344 33.4609L66.6641 32.9297Z" fill="#3E4347"/>
</svg>
