<svg width="80" height="80" viewBox="0 0 80 80" fill="none" xmlns="http://www.w3.org/2000/svg">
<path d="M40 80C17.9086 80 -2.7141e-06 62.0914 -1.74846e-06 40C-7.8281e-07 17.9086 17.9086 1.25447e-05 40 1.35103e-05C62.0914 1.4476e-05 80 17.9086 80 40C80 62.0914 62.0914 80 40 80Z" fill="#0052B5"/>
<path d="M77.4816 26C71.8066 10.8133 57.1661 1.43708e-05 40 1.36204e-05C22.8339 1.28701e-05 8.19337 10.8133 2.51843 26L77.4816 26Z" fill="white"/>
<path d="M2.51844 54C8.19338 69.1867 22.8339 80 40 80C57.1661 80 71.8066 69.1867 77.4816 54L2.51844 54Z" fill="#D90026"/>
</svg>
