<svg width="76" height="76" viewBox="0 0 76 76" fill="none" xmlns="http://www.w3.org/2000/svg">
<path d="M38 75.5C58.7107 75.5 75.5 58.7107 75.5 38C75.5 17.2893 58.7107 0.5 38 0.5C17.2893 0.5 0.5 17.2893 0.5 38C0.5 58.7107 17.2893 75.5 38 75.5Z" fill="#D90026"/>
<path d="M49.625 46.75L49.75 40L43 38L49.75 36L49.625 29.25L53.75 34.625L60.5 32.625L56.375 38L60.5 43.375L53.75 41.375L49.625 46.75Z" fill="white"/>
<path d="M39.5 53C31.25 53 24.625 46.25 24.625 38C24.625 29.75 31.25 23 39.5 23C42.625 23 45.5 24 48 25.625C44.625 21.75 39.625 19.25 34 19.25C23.75 19.25 15.5 27.625 15.5 38C15.5 48.375 23.75 56.75 34 56.75C39.625 56.75 44.625 54.25 48 50.375C45.625 52 42.75 53 39.5 53Z" fill="white"/>
</svg>
