<svg width="80" height="80" viewBox="0 0 80 80" fill="none" xmlns="http://www.w3.org/2000/svg">
<path d="M40 80C17.9086 80 -9.65645e-07 62.0914 0 40C9.65645e-07 17.9086 17.9086 -9.65645e-07 40 0C62.0914 9.65645e-07 80 17.9086 80 40C80 62.0914 62.0914 80 40 80Z" fill="#D90026"/>
<path d="M45.9237 24.9966L41.992 24.5732L44.8954 22.2343L44.1857 18.976L47.1617 20.8874L50.0651 18.5485L49.6417 22.4803L52.1217 24.0731L48.8635 24.7828L47.944 28.396L45.9237 24.9966Z" fill="#FFDB44"/>
<path d="M22 47.125L12.25 52L15.5 42.25L9 35.75H18.75L22 26L26.875 35.75H35L28.5 42.25L31.75 52L22 47.125Z" fill="#FFDB44"/>
<path d="M45.9237 55.0366L41.992 55.46L44.8954 57.7988L44.1857 61.0571L47.1617 59.1457L50.0651 61.4846L49.6417 57.5529L52.1217 55.96L48.8635 55.2503L47.944 51.6372L45.9237 55.0366Z" fill="#FFDB44"/>
<path d="M55.4142 35.5705L51.7681 34.0395L55.2195 32.6295L55.4721 29.3044L57.7765 31.9877L61.2279 30.5777L59.6968 34.2237L61.6171 36.4598L58.292 36.2072L56.3769 39.406L55.4142 35.5705Z" fill="#FFDB44"/>
<path d="M55.4142 46.7299L51.7681 48.261L55.2195 49.6709L55.4721 52.996L57.7765 50.3128L61.2279 51.7227L59.6968 48.0767L61.6171 45.8406L58.292 46.0932L56.3769 42.8944L55.4142 46.7299Z" fill="#FFDB44"/>
</svg>
