<?xml version="1.0" encoding="utf-8"?>
<!-- Generator: Adobe Illustrator 25.4.1, SVG Export Plug-In . SVG Version: 6.00 Build 0)  -->
<svg version="1.1" id="Слой_1" xmlns:svgjs="http://svgjs.com/svgjs"
	 xmlns="http://www.w3.org/2000/svg" xmlns:xlink="http://www.w3.org/1999/xlink" x="0px" y="0px" viewBox="0 0 259.4 419"
	 style="enable-background:new 0 0 259.4 419;" xml:space="preserve">
<style type="text/css">
	.st0{fill:#FF525D;}
	.st1{fill:#FACC15;}
</style>
<g>
	<g>
		<path class="st0" d="M3,39.4c18.6,9.8,36.6,21,54.8,31.6c28.8,16.8,59.6,31.5,82.1,56.7c11,12.4,21.3,25.4,28.6,40.4
			c4.1,8.3,8.4,16.4,11.7,25c3.2,8.3,5.9,16.7,7.9,25.4c3.9,16.8,4.1,33.3,4.1,50.4c0,19.5-0.2,39.1-0.2,58.6
			c0.1,26.6,3.2,59.4-18.2,79.3c-2.5,2.3-5.2,4.4-8.1,6.1c15.7-9.1,31.3-18.2,47-27.3c13.7-8,28.6-14.7,36.8-28.9
			c11.5-20,9.3-44.7,9.5-66.9c0.1-21.3,0.3-42.7,0.2-64c0-8.7,0.1-17.4-0.8-26c-1.6-16.3-5.9-32.2-12-47.4
			c-10.8-26.5-26.9-51.3-47.4-71.4c-9.9-9.6-20.8-17.9-32.7-24.8c-5.3-3.1-10.6-6.1-15.9-9.2c-16.4-9.4-32.7-18.9-49.1-28.4
			C94.4,14.6,69.2,0,69.2,0L1.8,38.7C1.8,38.7,2.6,39.2,3,39.4L3,39.4z"/>
		<path class="st0" d="M97.6,326.7c1.9,1.1,3.7,2,5.3,2.9c6.7,3.6,14.1,3.3,18.3-1.8c2.8-4,3.4-10,3.5-15.1c0-8.7,0.1-17.4,0.1-26.1
			c0-3.2,0-6.4,0-9.6l-0.2,0.1c0.1-0.1,0.1-0.9,0.2-2.3c0.1-19.6,0.1-39.3,0.2-58.9c0.1-17-8.8-33.6-23.7-42.3
			c-10.8-6.2-21.6-12.5-32.4-18.7c0,0.4,0,1,0,1.7v1.2v0.6c0,1.5,0,3.3,0,5.4c0,1.2,0,2.5,0,3.9v1.2c0,1.6,0,3.4,0,5.2
			c0,0.8,0,1.7,0,2.5c0,3.5,0,7.4,0,11.4v1.7c0,1.2,0,2.4,0,3.6c0,0.6,0,1.2,0,1.9c0,4.4,0,9.1,0,13.8c0,1,0,2,0,2.9
			c0,3.2,0,6.4,0,9.7c0,0.7,0,1.4,0,2.1c0,2.3,0,4.6,0,7c0,0.8,0,1.5,0,2.2c0,13.6-0.1,27.1-0.1,39v1.5c0,4.6,0,9,0,13
			c0,0.9,0,1.9,0,2.8c0,6.4,0,11.6,0,15.2v0.7c0,1.3,0,2.4,0,3.1v1.3v0.2c0,0,17.5,10.1,24.9,14.4C94.8,325,96.2,325.9,97.6,326.7
			L97.6,326.7z"/>
		<path class="st1" d="M149.6,418.4c16-2.3,29-13,35.6-27.5c6-13.2,7-28.1,7.1-42.4c0.1-16.7-0.1-33.5-0.1-50.2
			c0-10.5,0.1-21,0.1-31.6c0-8.9,0.2-17.8-0.5-26.6c-3.2-36.5-19.7-72.1-42.1-100.8c-11.8-15.1-25.5-28-41.5-38.7
			C93.8,91.1,78.5,83,63.5,74.3c-19.3-11.2-38.4-22.7-58-33.5c-1.3-0.7-2.6-1.4-3.8-2.1C1.8,43.6,0,348,0,348s44.1,25.4,62,35.7
			c8.1,4.6,16.1,9.3,24.1,13.9c12.2,7,24.4,14.6,38,18.7C132.4,418.7,141.1,419.7,149.6,418.4L149.6,418.4z M68.5,309.6
			c0.1-41.1,0.4-144.2,0.4-154.6c9.1,5.3,18.3,10.5,27.4,15.8c7.5,4.3,14.2,8.8,19.3,15.9c4.5,6.3,7.5,13.7,8.7,21.4
			c1.5,9.6,0.6,19.7,0.5,29.4c-0.1,20.5-0.1,41.1-0.2,61.6c0,5.1,0.1,10.1-0.1,15.2c-0.1,4.1-0.6,8.5-2.6,12.1
			c-4.4,8.2-14,6.1-20.9,2.3c-6.9-3.8-13.7-8-20.5-12c-2.9-1.6-5.7-3.3-8.6-5C71.6,311.6,68.5,310.3,68.5,309.6L68.5,309.6z"/>
	</g>
</g>
</svg>
