<?xml version="1.0" encoding="utf-8"?>
<svg version="1.1" id="Слой_1" xmlns="http://www.w3.org/2000/svg" xmlns:xlink="http://www.w3.org/1999/xlink" x="0px" y="0px"
	 viewBox="0 0 1000 1000" style="enable-background:new 0 0 1000 1000;" xml:space="preserve">
<style type="text/css">
	.st0{fill:#8F00E2;}
</style>
<g id="_x23_000000ff">
	<path class="st0" d="M73.7,150c233.3,0,466.7,0,700,0c0,178.8,0,357.6,0,536.4c13,0,25.9,0,38.8,0c0,4.9,0,9.8,0,14.7
		c-12.9,0-25.9,0-38.8,0c0,12.1,0,24.3,0,36.4c11.1,0,22.3,0,33.4,0c0,4.6,0,9.3,0,13.9c-11.1,0-22.3,0-33.4,0c0,13.5,0,27.1,0,40.7
		c13.4,0,26.7,0,40.1,0c0,4.8,0,9.5,0,14.3c-13.4,0-26.7,0-40.1,0c0,14.5,0,29,0,43.5c-233.3,0-466.7,0-700,0
		C73.7,616.7,73.7,383.3,73.7,150 M78.7,155c0,230,0,460,0,690c230,0,460,0,690,0c0-12.8,0-25.7,0-38.5c-14.6,0-29.1,0-43.7,0
		c0-40,0-80,0-120c14.6,0,29.1,0,43.7,0c0-177.1,0-354.3,0-531.4C538.7,155,308.7,155,78.7,155 M740.9,701.2c0,12.1,0,24.3,0,36.4
		c9.3,0,18.5,0,27.8,0c0-12.1,0-24.3,0-36.4C759.4,701.2,750.2,701.2,740.9,701.2 M740.9,751.5c0,13.6,0,27.1,0,40.7
		c9.3,0,18.5,0,27.8,0c0-13.6,0-27.1,0-40.7C759.4,751.5,750.2,751.5,740.9,751.5z"/>
	<path class="st0" d="M135.7,484.7c14-11,33.3-12.7,50.1-8.7c17.4,3.9,31.3,19.6,33.2,37.3c-5.3,0-10.6,0-15.8,0
		c-1.8-7-5.2-13.9-11-18.5c-7.6-6.2-17.9-7.2-27.3-6.3c-10.9,0.9-21,7.3-26.9,16.4c-6.5,11.1-7.9,24.4-7.5,37
		c0.4,12.3,3.9,25,12.4,34.2c5.9,6.3,14.6,9.1,23.1,9.6c8.3,0.6,17.1-1,23.9-6c5.1-4.3,9.3-9.9,11.5-16.3c1.1-3.4,2-6.9,3.1-10.4
		c5.3,0,10.6,0,15.8,0c-1.7,15-9.1,29.6-21.7,38.4c-12.3,8.6-28.3,10.3-42.8,7.6c-14.6-2.8-27.6-12.5-34.3-25.8
		c-7-14-8.5-30.1-7.2-45.5C115.4,511.5,122.5,495,135.7,484.7z"/>
	<path class="st0" d="M265.2,476.6c11.6-3.2,24.2-3,35.7,0.4c8.3,2.7,16.6,7.1,21.4,14.7c3.8,6.2,5,13.6,5.2,20.8
		c-5.1,0-10.2,0-15.3,0c-1.2-5.4-1.9-11.4-6-15.6c-6.5-7.3-17-8.7-26.2-8.5c-8.1,0.1-17.3,2.3-22,9.6c-5.2,7.2-4.2,19.4,4.5,23.4
		c16.3,6.8,34.2,7.9,50.6,14.3c9.2,3.7,16.1,12.4,17.3,22.3c1,9,0.1,18.8-5.3,26.3c-5.1,7.1-13.5,10.8-21.6,13.4
		c-12.8,3.8-26.8,4-39.8,0.3c-11.8-3.4-22.2-12.2-26.1-24c-1.8-5-2.2-10.3-2.4-15.5c5.1,0,10.2,0,15.2,0c0.5,8.3,3.3,17.3,10.4,22.3
		c8.6,6,19.9,6.7,30,5.7c8.3-1.1,17.5-4,22-11.5c2.6-5.6,2.8-12.5,0-18.1c-2.3-4.7-7.6-6.4-12-8.3c-12.1-4.2-24.9-5.9-37.1-9.7
		c-7.6-1.9-15.4-5.4-20-12.1c-5.2-7.5-5.4-17.4-3.2-26C243.8,489.1,253.7,479.9,265.2,476.6z"/>
	<path class="st0" d="M370.1,479.2c8.5-4.3,18.4-5.2,27.8-4.8c11.2,0.6,22.5,4.2,31.1,11.5c7.5,6.6,9.7,17,10,26.5
		c-5.1,0-10.2,0-15.3,0c-1.2-5.5-2-11.7-6.3-15.8c-6.7-7.2-17.2-8.4-26.4-8.2c-7.9,0.2-16.7,2.4-21.3,9.3c-5.3,7.1-4.6,19.3,4,23.5
		c16.2,6.9,34.2,8,50.6,14.3c9.3,3.7,16.5,12.4,17.7,22.4c1,9.3,0.1,19.5-5.9,27.1c-5.4,7-14,10.4-22.1,13
		c-13.2,3.6-27.5,3.6-40.5-0.6c-11.4-3.8-21.2-12.9-24.6-24.5c-1.6-4.7-1.8-9.6-2.1-14.5c5.1,0,10.2,0,15.2,0
		c0.5,8.5,3.4,17.5,10.7,22.5c8.8,5.9,20,6.5,30.2,5.4c8.2-1.2,17.3-4.2,21.7-11.8c2.5-5.9,2.7-13.2-0.8-18.8
		c-2.2-3.7-6.5-5.1-10.1-6.8c-11.5-4.3-23.7-5.9-35.5-9.4c-7.7-2-15.8-4.5-21.3-10.7c-6.5-7.2-7.2-17.8-5.2-26.9
		C354.1,492.2,361.1,483.7,370.1,479.2z"/>
	<path class="st0" d="M301.5,683.8c16.2-1.7,33.8,0.5,47,10.7c12.7,9.8,19.2,25.8,20.4,41.4c1.4,17.7-1.3,36.6-11.8,51.3
		c-7.5,11-19.4,18.8-32.4,21.3c-17.4,3.4-37,1.2-51.2-10.1c-13.7-10.8-19.9-28.5-20.8-45.5c-1.5-19.5,3.8-40.2,17.6-54.5
		C278.6,690,290,685,301.5,683.8 M302.4,698.6c-7.1,1.4-13.8,4.7-19,9.7c-7.7,6.6-11.3,16.6-13,26.3c-2.4,15.3-1.1,32.1,7.7,45.3
		c4.8,7.9,13.4,12.9,22.4,14.5c9.6,1.4,19.8,1.8,28.8-2.2c6.4-2.7,11.6-7.8,14.9-14c8-13.7,10.1-30.4,7.4-45.9
		c-2.1-11.9-8.8-23.4-19.4-29.5C323.2,697.7,312.4,696.9,302.4,698.6z"/>
	<path class="st0" d="M853.5,688.6c9-4.6,19.5-5.5,29.5-4.8c10.8,0.7,21.6,4.4,29.9,11.5c7.5,6.6,9.7,16.9,10,26.5
		c-5.1,0-10.2,0-15.3,0c-1.2-5.5-2-11.6-6.2-15.8c-6.4-6.9-16.3-8.4-25.2-8.4c-7.5,0.1-15.9,1.5-21,7.5c-5.2,5.6-6.8,14.8-2.3,21.3
		c2.7,4.1,7.7,5.4,12,6.9c13.6,4.2,27.8,6.1,41.3,10.8c8.1,2.7,15.2,8.8,18.1,17c2.7,7.1,2.3,15,0.9,22.4
		c-1.8,8.1-7.3,15.2-14.7,18.9c-13.8,7.6-30.3,9.2-45.7,6.5c-12-2.1-23.5-9.1-29.3-20c-3.5-6.3-4.6-13.7-4.8-20.9
		c5.1,0,10.1,0,15.2,0c0.6,7.1,2.3,14.6,7.6,19.8c6.8,7,17.2,8.6,26.5,8.6c9.3-0.3,19.5-2.1,26.2-9c3.5-3.4,4.2-8.5,4.2-13.1
		c-0.1-5.1-2.4-10.7-7.2-13.1c-12-6.4-25.7-7.6-38.6-11.3c-8.1-2.2-16.8-4.2-22.8-10.5c-7.2-7.1-8.1-18.3-6-27.7
		C837.8,701.6,844.6,693.1,853.5,688.6z"/>
	<path class="st0" d="M118.7,686.4c7.8,0,15.5,0,23.3,0c11.5,33.8,23,67.7,34.5,101.5c11.4-33.8,22.8-67.6,34.2-101.5
		c7.7,0,15.4,0,23,0c0,40,0,80,0,120c-5.1,0-10.3,0-15.4,0c0-33.8-0.1-67.5,0.3-101.2c-11.4,33.7-22.8,67.5-34.2,101.2
		c-5.4,0-10.7,0-16.1,0c-11.5-33.7-23-67.5-34.5-101.2c0.6,33.7,0.4,67.5,0.4,101.2c-5.2,0-10.3,0-15.5,0
		C118.7,766.5,118.7,726.5,118.7,686.4z"/>
	<path class="st0" d="M389.5,686.4c15.8,0,31.7,0,47.5,0c7.9,0,15.9,1.1,23,4.4c10.2,4.5,17.9,13.5,22.5,23.5
		c6.7,15.1,7.3,32.4,4.2,48.5c-3,14.2-9.7,28.6-22.4,36.6c-9,5.8-20,7.2-30.5,7c-14.8,0-29.6,0-44.5,0
		C389.5,766.5,389.5,726.5,389.5,686.4 M405.9,700.4c0,30.7,0,61.4,0,92.2c12.3-0.2,24.7,0.6,37-0.6c10.9-1.1,19.9-9.2,24.1-19
		c3.6-9.2,5.6-19.1,5-29c-0.4-11.8-2.9-24.2-10.6-33.5c-6.5-7.6-17-9.9-26.6-10C425.1,700.3,415.5,700.5,405.9,700.4z"/>
	<path class="st0" d="M510.9,686.4c5.5,0,11,0,16.5,0c0,25.1-0.1,50.2,0.1,75.4c0.1,10.4,3.2,21.5,11.5,28.3
		c7.2,5.3,16.7,5.9,25.3,4.7c8.6-0.8,17-5.8,20.8-13.8c4.7-9.6,3.8-20.6,3.9-31c0-21.2,0-42.4,0-63.6c5.5,0,11,0,16.5,0
		c0,22.8,0.1,45.7,0,68.5c-0.3,13.1-1.4,27.2-9.2,38.2c-6.6,9.5-17.9,14.7-29.2,15.9c-11.5,1.2-23.8,0.5-34.3-4.9
		c-8-4.1-14.2-11.3-17.3-19.7c-4.1-10.7-4.5-22.2-4.6-33.5C510.9,729.5,510.8,708,510.9,686.4z"/>
	<path class="st0" d="M630.3,686.4c5.4,0,10.8,0,16.2,0c0,35.2,0,70.5,0,105.7c20.3,0,40.5,0,60.8,0c0,4.8,0,9.5,0,14.3
		c-25.7,0-51.4,0-77.1,0C630.3,766.5,630.3,726.5,630.3,686.4z"/>
</g>
</svg>
