<?xml version="1.0" encoding="utf-8"?>
<!-- Generator: Adobe Illustrator 26.4.1, SVG Export Plug-In . SVG Version: 6.00 Build 0)  -->
<svg version="1.1" id="Слой_1" xmlns="http://www.w3.org/2000/svg" xmlns:xlink="http://www.w3.org/1999/xlink" x="0px" y="0px"
	 viewBox="0 0 100 100" style="enable-background:new 0 0 100 100;" xml:space="preserve">
<style type="text/css">
	.st0{fill:#F59E1B;}
	.st1{fill:#F07F1F;}
	.st2{fill:#FEC92B;}
</style>
<path class="st0" d="M61.307148,36.1058121l-10.0060196,9.3093796l-9.2843857-18.7280922l4.8046379-10.7713871
	c1.2495804-2.1867657,3.1989288-2.1617746,4.4172668,0L61.307148,36.1058121z"/>
<path class="st1" d="M42.0167427,26.6870995l9.2843857,18.7280922L13.9074202,80.2004013L42.0167427,26.6870995z"/>
<path class="st2" d="M72.250351,21.8762112c1.7869034-1.718174,3.6362762-1.1308708,4.1079941,1.3026867l9.7342377,56.5591545
	l-32.264183,19.3684998C52.7037735,99.7313461,49.7047844,100,49.7047844,100s-2.7303352-0.3248901-3.7706108-0.9371796
	L13.9074211,80.2004013L72.250351,21.8762112z"/>
<path class="st0" d="M42.0167427,26.6870995L13.9105453,80.2004013L26.4282207,1.9922566
	c0.4623451-2.4366825,1.8493805-2.670979,3.0864658-0.5216999L42.0167427,26.6870995z"/>
</svg>
