<?xml version="1.0" encoding="utf-8"?>
<!-- Generator: Adobe Illustrator 26.4.1, SVG Export Plug-In . SVG Version: 6.00 Build 0)  -->
<svg version="1.1" id="Слой_1" xmlns="http://www.w3.org/2000/svg" xmlns:xlink="http://www.w3.org/1999/xlink" x="0px" y="0px"
	 viewBox="0 0 500 500" style="enable-background:new 0 0 500 500;" xml:space="preserve">
<style type="text/css">
	.st0{fill-rule:evenodd;clip-rule:evenodd;fill:#DA4748;}
</style>
<g id="Page-1">
	<g id="gulp">
		<g id="Gulp-Logo">
			<path id="Cup" class="st0" d="M248.9563751,394.5274658c-21.1382599,0.0988464-42.2169189-2.2497864-62.8150024-6.9989929
				c-6.1234741-1.3773193-12.1290436-3.2344971-17.9610748-5.5542603l14.5250397,24.8038635l5.6714172,77.4962158
				c0,8.6877136,27.6054077,15.725708,61.643631,15.725708s61.6436157-7.0379944,61.6436157-15.725708l4.4902954-78.3357239
				l13.7441406-24.0327148c-5.8842468,2.3504028-11.9455872,4.2304993-18.1270447,5.6226196
				C291.1732788,392.2776794,270.0946655,394.6263123,248.9563751,394.5274658z M330.3669739,142.3596649
				c-21.4752197,3.0065308-50.037262,4.6562195-80.3465881,4.6562195s-58.8420868-1.6496887-80.3465881-4.6562195
				c-10.6497498-1.4837494-19.0738831-3.2408142-25.038147-5.212616c-2.1275024-0.6569977-4.1894989-1.5098877-6.1594696-2.5477448
				l13.3243866,122.5843811c0.6182251-2.1084442,1.3080292-4.2136688,2.0694275-6.3156586
				c1.5620422-4.3123627,3.3742523-8.5299683,5.4273682-12.6313324c1.9968872-4.0175018,4.2363892-7.9097443,6.7061157-11.6551819
				c2.3296661-3.5480042,4.9065704-6.9273376,7.7115631-10.1128693c2.5461578-2.9033813,5.3601227-5.5604706,8.4046173-7.9360809
				c2.6641693-2.0998993,5.5872955-3.8485107,8.697464-5.2028656c2.7409363-1.2115326,5.7008057-1.84935,8.697464-1.874176
				c3.3843842,0.0248413,6.6993866,0.9623566,9.5955048,2.7136841c3.5166626,2.2351532,6.4804382,5.2389679,8.6681824,8.7853088
				c0.5814056,0.8204346,0.9807892,1.7556458,1.1713715,2.742981c0.1585541,0.8630829,0.2402039,1.7385254,0.2440338,2.6160583
				c0.0931244,1.6448669-0.3977966,3.2697449-1.3861237,4.5878754c-0.7802582,1.0406189-1.9988556,1.6607361-3.2993774,1.6789856
				c-1.3209686-0.0704956-2.5336304-0.7526245-3.2798462-1.8449249c-1.2737274-1.6483459-2.3944244-3.4094543-3.348175-5.2614288
				c-0.9105988-1.7786865-2.228363-3.3171997-3.8460236-4.4902649c-1.3344574-0.9026794-2.9084778-1.3854218-4.5195465-1.3861237
				c-2.5477448,0-5.2614288,1.054245-8.1605835,3.1627197c-3.2030487,2.413681-6.0862579,5.2247314-8.5803375,8.3655853
				c-3.026001,3.7387085-5.7514496,7.7110138-8.1508179,11.8796997c-2.581604,4.4078369-4.8865051,8.9719849-6.9013519,13.6660461
				c-1.9342346,4.4816742-3.5298157,9.1020203-4.7733459,13.8222046c-1.1052094,3.9892273-1.7021332,8.1020508-1.7765808,12.2408752
				c0.003891,1.2406616,0.0886688,2.4797363,0.2537994,3.7093506c0.134201,1.1918335,0.4468079,2.3566895,0.9273376,3.4555664
				c0.4121094,0.9819336,1.0431366,1.8566589,1.8449097,2.5574951c0.8417511,0.6746521,1.8994446,1.0214539,2.9772491,0.9761658
				c1.6135101-0.0742493,3.1847229-0.5399475,4.578125-1.3568726c1.8733521-0.9997864,3.6508942-2.1695862,5.3102264-3.4945984
				c1.9338989-1.5577698,3.7815552-3.219696,5.5347443-4.9783325c1.8546906-1.8546753,3.5824585-3.7191162,5.1833496-5.6226196
				c1.6008759-1.9035034,3.0162811-3.7093506,4.2462311-5.456665c1.0543518-1.434845,1.9850311-2.9565735,2.7820129-4.5488281
				l5.0759583-15.1790771c0.4320984-1.3815918,1.2769165-2.5977478,2.4208527-3.484848
				c0.8910065-0.6518402,1.9613037-1.0131531,3.065094-1.0346985c0.5178375,0.0032806,1.0318604,0.0889435,1.5227814,0.2537842
				c0.508316,0.1690521,0.9743805,0.4453583,1.3666077,0.8102112c0.4288025,0.3914185,0.7626495,0.8755035,0.9761505,1.4154053
				c0.2464752,0.6513367,0.3657684,1.3438873,0.3514099,2.0401459c0.0129242,1.9656067-0.1701965,3.927597-0.5466461,5.8568573
				c-0.3595276,1.7920532-0.8223419,3.5618286-1.3861237,5.3004608c-0.5661621,1.7180481-1.1909027,3.4555664-1.8839569,5.1931152
				c-0.6930695,1.7375488-1.3666077,3.5726929-2.0206299,5.4664307c-0.324646,0.6513672-0.5892944,1.3309631-0.7906647,2.030365
				c-0.3807068,1.1420898-0.8394928,2.5770264-1.3861389,4.2950439c-0.5466309,1.7179871-1.0835266,3.6019897-1.7668152,5.730011
				c-0.6833038,2.1280212-1.2885132,4.3048096-1.952301,6.530426c-0.6637726,2.2256165-1.3177948,4.3926697-1.9522858,6.5206604
				c-0.6345062,2.1279907-1.1713867,4.0607605-1.6594543,5.7787781c-0.4880676,1.7180481-0.9078217,3.1627197-1.2299347,4.3243408
				c-0.3221283,1.1616211-0.5271301,1.8546753-0.6052094,2.0694275c-0.2148438,0.7908936-0.5057831,1.5591431-0.8687744,2.2939453
				c-0.3973389,0.8389587-0.8711548,1.6395569-1.4154205,2.391571c-0.5073853,0.6948242-1.1123199,1.3128967-1.7961121,1.8351135
				c-0.5708771,0.460968-1.2773895,0.7215881-2.0108643,0.7418823c-0.9903259,0.079895-1.9511566-0.3598633-2.5379639-1.1616211
				c-0.5271301-0.7808838-0.7906799-2.1963196-0.7906799-4.2657471v-0.9078064
				c0.0008392-0.3262329,0.0203857-0.6521606,0.0585632-0.9761353c0.1531525-1.3230896,0.4243011-2.6298218,0.8101959-3.9046021
				c0.5173645-1.8937073,1.1225739-4.0314941,1.8351593-6.4230347s1.4642181-4.8807068,2.2841797-7.4284363
				s1.5520782-4.8807373,2.2061005-6.8818359c-1.952301,2.1540527-4.0412445,4.2983093-6.266861,6.4328003
				c-2.1790466,2.0624695-4.4909515,3.9798279-6.9208832,5.7397461c-2.2351685,1.6267395-4.6291504,3.0231934-7.1453857,4.1681519
				c-2.1698456,1.0235291-4.5319061,1.5758057-6.9306335,1.6203918c-2.303009,0.0591431-4.57724-0.5220947-6.569458-1.6789551
				c-0.3318939-0.2049866-0.6442566-0.4393005-0.9761505-0.6637878l7.4089508,77.7109985
				c1.9522858,4.8807373,38.2551575,16.721405,86.1546478,16.721405s84.2609253-11.8894653,86.1546631-16.721405
				l10.6497498-92.4019775c-0.8882751,0.8101807-1.7375183,1.6008911-2.5672607,2.3720093
				c-2.7513733,2.5877991-5.6348572,5.0314331-8.6388855,7.321106c-2.4465942,1.89505-5.1108398,3.4909668-7.9360962,4.7538147
				c-2.6157837,1.1295471-5.438324,1.701355-8.2874756,1.6789856c-2.2776794,0.1429749-4.5361328-0.493927-6.4035034-1.8058777
				c-1.5082703-1.2012634-2.3502197-3.052063-2.264679-4.978363v-0.478302c-0.0120239-0.1852417-0.0120239-0.3711243,0-0.5563965
				c0.2552795-1.5844116,0.8334045-3.0994873,1.6984863-4.4512329c1.0686951-1.8175964,2.2522278-3.5652161,3.5434265-5.2321167
				c1.3796082-1.8026123,2.8503418-3.6345215,4.4122009-5.495697c1.5618286-1.8612061,3.0065308-3.6150208,4.3340759-5.2614441
				c1.2046204-1.4164429,2.3289795-2.899292,3.3677063-4.4415283c0.7286377-0.9820862,1.1803589-2.1417542,1.3080139-3.3579407
				c0.0226135-0.471283-0.1759338-0.9260864-0.5368652-1.22995c-0.5335693-0.3509216-1.1695251-0.5124817-1.8058777-0.4588013
				c-1.566803,0.0288086-3.1062012,0.4161682-4.5000305,1.1323547c-1.6454468,0.8191833-3.183197,1.8388367-4.578125,3.0357971
				c-1.5791931,1.3438416-3.0571594,2.8022461-4.421936,4.3633728c-1.4349365,1.6399231-2.7722778,3.3384399-4.0314941,5.1052551
				c-1.2592468,1.7668152-2.4013367,3.543396-3.4360352,5.3297424c-1.034729,1.7863464-1.952301,3.4262695-2.6453857,4.9393005
				l-0.9273376,1.952301c-0.4002075,0.8590088-0.8394775,1.8253784-1.3080139,2.9284363
				c-0.4685364,1.1030273-0.9761353,2.186554-1.5032654,3.3188782c-0.5270996,1.1323242-0.9761353,2.2256165-1.4447021,3.2310486
				c-0.4685364,1.0054321-0.8199463,1.9522705-1.1615906,2.7136841c-0.3416748,0.7613831-0.595459,1.3470764-0.7418823,1.6496887
				c-0.1464233,0.3025818-0.478302,1.1128235-0.8980408,2.1963196s-0.8980713,2.3330078-1.4447021,3.7776794
				s-1.1225586,2.9284363-1.7180176,4.5488586l-1.6887207,4.5195618l-1.395874,3.7483826
				c-0.3969727,1.073761-0.6507874,1.8058777-0.7614136,2.1963196c-0.3490906,1.0870056-0.7764587,2.1472473-1.2787476,3.1724854
				c-0.4613953,0.9335327-1.0279846,1.8112488-1.6887207,2.6160583c-0.6155396,0.7273254-1.3560181,1.3388672-2.186554,1.8058777
				c-0.8451843,0.4554749-1.7927551,0.6873169-2.7527466,0.6735535c-1.1576538,0.0354004-2.2952881-0.3072815-3.2408142-0.9761353
				c-0.8590088-0.6247559-1.2885132-1.8156433-1.2885132-3.582489c0.0020752-0.8920288,0.1135559-1.780426,0.3318787-2.6453552
				c0.2153625-0.9114685,0.4892578-1.808136,0.8199463-2.6843872c0.3221436-0.8883057,0.6637878-1.7473145,0.9761658-2.586792
				c0.3123779-0.839447,0.6637573-1.6399231,0.9761353-2.4208374c1.952301-4.308075,3.9501343-8.6226501,5.9935303-12.9437256
				c2.043396-4.3210449,3.995697-8.6063538,5.8568726-12.855835c0.3904724-0.8883057,0.7418823-1.7473145,1.1225586-2.6356201
				l-0.3318787,0.3416748c-2.2226562,2.1647644-4.583374,4.183136-7.0672913,6.0423279
				c-2.1685791,1.6381531-4.5088196,3.0357361-6.9794312,4.1681519c-2.1112976,0.9832153-4.4066467,1.5088196-6.7354126,1.5422974
				c-1.2793274,0.0401306-2.5519714-0.199707-3.7288818-0.7028503c-0.9517517-0.4386902-1.7775879-1.1101379-2.4013367-1.9522705
				c-0.6273193-0.8754272-1.0630188-1.873291-1.2787476-2.9284363c-0.0856018-0.3900452-0.1507874-0.7843018-0.1952209-1.1811523
				c-0.6442566,0.4978638-1.2885132,0.9761658-1.952301,1.4447327c-2.086853,1.495636-4.316864,2.7806702-6.6573029,3.8362427
				c-1.8294373,0.8881226-3.8244934,1.3835754-5.8568878,1.4544373c-1.6025696,0.0600586-3.1533508-0.5730591-4.2559967-1.7375488
				c-1.093277-1.1615906-1.6301575-3.1431885-1.6301575-5.9447021c0.0389404-2.3283386,0.3302307-4.6455688,0.8687744-6.9111023
				c-1.0322723,1.8003845-2.2177887,3.5084534-3.5434113,5.1052551c-1.4511566,1.7438965-3.0876923,3.3247681-4.8807373,4.7147522
				c-1.8614349,1.4377441-3.91922,2.6014099-6.110672,3.4555664c-2.317276,0.9085999-4.7832489,1.3786316-7.2722778,1.3862
				c-1.1699524,0.0054016-2.3353729-0.1455994-3.4653168-0.4490051c-1.0817108-0.2873535-2.0833893-0.8182373-2.9284363-1.552063
				c-0.8863678-0.8087158-1.5744476-1.8107605-2.0108643-2.9284363c-0.5552826-1.4741516-0.8172455-3.0426025-0.7711487-4.6171875
				c0,0,0.0780945-0.7028198,0.2245178-1.952301c0.3153687-2.0321655,0.778656-4.0385742,1.3861237-6.0032959
				c0.7809143-2.7332153,1.991333-6.2766418,3.6312561-10.630249s3.9273682-9.6377869,6.8623047-15.8526001
				c0.5695496-1.3767242,1.4798584-2.5860138,2.6453552-3.5141296c0.9394531-0.6906433,2.0748138-1.0634003,3.2408142-1.0639954
				c0.5351105-0.0007935,1.0675964,0.0747986,1.5813599,0.2245178c0.5484009,0.1465912,1.0670166,0.3877411,1.532547,0.7125702
				c0.4745636,0.3257904,0.8712311,0.7524414,1.1616058,1.2494659c0.2987366,0.5189972,0.450592,1.1095276,0.43927,1.7082672
				c0.0016327,0.4156799-0.0542145,0.8295746-0.1659393,1.22995c-0.2917175,0.9971466-0.6842041,1.9620056-1.1713715,2.8796387
				c-0.5987091,1.1778717-1.2982788,2.5347137-2.0987244,4.0705414c-0.8004456,1.5357971-1.6464233,3.182251-2.5379791,4.9393005
				c-0.8850403,1.7635803-1.7115021,3.5922241-2.4794006,5.4859314c-0.7554321,1.8893127-1.4071655,3.8184509-1.952301,5.7788086
				c-0.5492096,1.8616943-0.8768616,3.7817078-0.9761505,5.7201843c-0.0057983,0.7447815,0.1826019,1.478241,0.5466461,2.1279907
				c0.3668823,0.6379089,1.0612793,1.0152588,1.7960968,0.9761658c2.4460907-0.0267029,4.8183594-0.8414001,6.7646942-2.3232422
				c2.2406616-1.6404419,4.2415161-3.5854797,5.9447327-5.7788086c1.8210602-2.3429871,3.4530945-4.8269348,4.880722-7.4284363
				c1.4772339-2.6421204,2.7039337-5.0629578,3.680069-7.2625427c0.7193909-1.5275269,1.33255-3.1028442,1.8351593-4.7147522
				c0.4836731-1.5834808,1.0572662-3.1380768,1.7180176-4.6562195c0.5325928-1.2795563,1.2459259-2.4761505,2.1182404-3.5531769
				c0.7294464-0.905838,1.833786-1.4274445,2.9967651-1.4154053c1.2184448-0.0457611,2.381897,0.5086365,3.1138916,1.4837494
				c0.7706909,1.0216217,1.1731873,2.2738495,1.1420898,3.5531616c-0.0699768,1.0997162-0.3171997,2.1809082-0.7320862,3.201767
				c-0.4978333,1.3568573-1.1128235,2.9284515-1.8546753,4.6464691c-0.7418823,1.7180176-1.5520782,3.6019897-2.4306183,5.5835571
				c-0.8785248,1.9815674-1.6789703,3.9924316-2.4208374,6.0423279c-0.7243805,1.9667664-1.3434753,3.9707031-1.8546906,6.0032959
				c-0.4646454,1.7824097-0.710495,3.6148071-0.7321014,5.456665c-0.1483917,1.144104,0.658783,2.1918945,1.8029022,2.3403015
				c0.1955719,0.0253601,0.3937531,0.0229187,0.5886536-0.0072937c1.4663391-0.0886536,2.8970795-0.4879456,4.1974182-1.1713867
				c1.8691711-0.8885498,3.6338196-1.9820251,5.2614441-3.2603455c0.4587708-0.3416443,0.9273376-0.7125854,1.3861084-1.0932617
				c0.467865-1.9911499,1.071228-3.947998,1.8058777-5.8568726c1.3015442-3.3579407,2.6030579-6.6931152,3.9046021-10.0054932
				c1.3015137-3.3124084,2.5021973-6.3482056,3.6019592-9.1074371l16.5749817-41.7108002
				c0.4725647-1.4402161,1.4011536-2.6874542,2.6453552-3.5531616c0.9979858-0.6575623,2.1629639-1.0165405,3.3579407-1.0347137
				c1.1212463,0.0035706,2.2070312,0.3930817,3.0748596,1.1030426c0.9985962,0.8945618,1.5160828,2.2081451,1.3959045,3.5434113
				c-0.0112,0.8410645-0.1697693,1.6736298-0.4685669,2.4598999c-0.3382263,0.945282-0.7293091,1.8708191-1.1713562,2.7722473
				c-0.9078064,2.0303955-1.952301,4.5000305-3.2408142,7.4284821c-1.2885132,2.9284363-2.6063232,6.1204376-4.0412598,9.5662231
				c-1.4349365,3.4458008-2.9284363,7.0282593-4.4121704,10.7376099c-1.4837646,3.7093506-2.9284363,7.3503723-4.421936,10.8840332
				c-1.4934998,3.5336304-2.7820435,6.8818054-4.0314941,10.0445557c-1.2494812,3.1627197-2.3329773,5.9154358-3.2408142,8.2386475
				c-0.449646,1.1309509-0.8406067,2.2843323-1.1713867,3.4555664c-0.3600769,1.1375732-0.5540466,2.321167-0.5758972,3.5141602
				c-0.0257568,0.5373535,0.088623,1.0722046,0.3318787,1.552063c0.2696533,0.4187012,0.7550964,0.6462708,1.2494507,0.5856934
				c0.9998779-0.0651245,1.9746399-0.3412476,2.8601074-0.8102112c1.2878113-0.6194763,2.52771-1.3340454,3.7093506-2.1377563
				c1.3275757-0.8785095,2.7136841-1.8839417,4.1388855-3.026062c1.4251709-1.1420898,2.869873-2.3329773,4.2852783-3.5531616
				s2.7722473-2.4598999,4.0607605-3.6898499s2.4501343-2.3525085,3.465332-3.3872375
				c0.242218-0.2367554,0.5270386-0.4255676,0.8394775-0.5563965c0.6117249-1.835144,1.1681213-3.6280212,1.66922-5.3785706
				c0.2928467-0.7809143,0.6930542-1.8742065,1.2006531-3.2993774c0.5110168-1.4278259,1.0941772-2.8287659,1.7472839-4.1974182
				c0.5892334-1.2782135,1.329895-2.4809723,2.2060852-3.5824738c0.5966187-0.8917542,1.574585-1.4547119,2.6453857-1.5227814
				c1.1427612-0.1146851,2.2833557,0.2373657,3.1627197,0.9761505c0.7029114,0.8068695,1.0543213,1.8611603,0.9761353,2.9284363
				c-0.0092773,0.4086151-0.0451355,0.8162079-0.1073914,1.2201843c-0.0683289,0.5661469-0.156189,1.1616058-0.2733154,1.7863312
				s-0.2244873,1.2104187-0.3514099,1.7765808c-0.0847778,0.4153748-0.2022705,0.8233643-0.3514099,1.2201843
				c1.3405762-1.4642029,2.7950134-2.9154053,4.3633728-4.3535919c1.5325928-1.4152527,3.1635742-2.7200623,4.8807373-3.9045868
				c1.6031799-1.1251221,3.3210144-2.0772858,5.1247559-2.8405914c1.6533508-0.7107697,3.4325256-1.0825195,5.2321472-1.093277
				c1.2096863-0.0019531,2.4132385,0.1723328,3.5726929,0.5173492c1.1329041,0.3200531,2.2026367,0.8317871,3.1627197,1.513031
				c0.9256897,0.6685638,1.6978149,1.5272217,2.264679,2.5184631c0.5939636,1.0779724,0.8936157,2.2933502,0.8687744,3.52388
				c-0.0404663,1.9573975-0.4963074,3.8839111-1.3373413,5.651886c-0.942688,2.1023254-2.0627747,4.1204834-3.3481445,6.0325928
				c-1.3471069,2.030365-2.8015442,3.9924316-4.3634033,5.9154358c-1.5618286,1.9230042-3.0260315,3.660553-4.3926392,5.2223816
				s-2.5086975,2.9284363-3.4360352,4.0119324c-0.6390381,0.6268921-1.1322632,1.3867493-1.4447021,2.2256165
				c-0.018158,0.4710083,0.1624756,0.9279785,0.4978333,1.2592468c0.4588013,0.3693542,1.0438843,0.5445251,1.6301575,0.4880676
				c0.9770508-0.1240234,1.910553-0.4786682,2.7234497-1.0346985c1.759552-1.0813293,3.4454651-2.2780762,5.0466614-3.582489
				c2.1670532-1.6984863,4.913269-3.9761658,8.238678-6.8330078c2.2744141-1.952301,4.9490662-4.2950439,7.9555969-6.9599304
				l14.3786316-133.5270081c-1.9713135,1.0448303-4.0369263,1.9011383-6.1692505,2.5575104
				c-5.9447327,1.971817-14.329834,3.7288818-25.0186157,5.212616V142.3596649z M249.9325256,110.6739578
				c-62.3464508-0.0000305-112.8912964,6.9696503-112.8912964,15.5695038s50.5448456,15.5695267,112.8912964,15.5695267
				s112.901062-6.9696808,112.901062-15.5695267s-50.5448608-15.5695343-112.901062-15.5695343V110.6739578z
				 M295.0109558,130.802063c0,2.0206299-6.0032959,3.6507874-13.412262,3.6507874s-13.4219971-1.6301575-13.4219971-3.6507874
				s6.0130615-3.650795,13.4219971-3.650795C289.0076599,127.151268,295.0109558,128.7716827,295.0109558,130.802063z"/>
			<path id="Straw" class="st0" d="M270.9001465,129.1816559c-0.0673523,0.0941467-0.1047668,0.2064056-0.1073608,0.3221283
				c0,1.3080292,4.8807068,2.3622742,10.8059082,2.3622742s10.7961731-1.054245,10.7961731-2.3622742l14.1053162-57.2021561
				l56.0991211-59.2227821l0.0585632-0.058569c1.1811523-1.3470812-1.2299194-5.4957023-5.2223816-9.0683966
				c-3.9924316-3.5726943-8.3167725-4.7635918-9.6540833-3.4067488l0,0l-59.8865662,63.010231L270.9001465,129.1816559z"/>
		</g>
	</g>
</g>
</svg>
