<?xml version="1.0" encoding="utf-8"?>
<!-- Generator: Adobe Illustrator 26.4.1, SVG Export Plug-In . SVG Version: 6.00 Build 0)  -->
<svg version="1.1" id="Layer_1" xmlns="http://www.w3.org/2000/svg" xmlns:xlink="http://www.w3.org/1999/xlink" x="0px" y="0px"
	 viewBox="0 0 860.4912109 400.0249023" style="enable-background:new 0 0 860.4912109 400.0249023;" xml:space="preserve">
<style type="text/css">
	.st0{fill:#004282;}
	.st1{fill:#ED1846;}
	.st2{fill:none;stroke:#004282;stroke-width:4.3769598;stroke-linecap:round;stroke-miterlimit:10;}
	.st3{opacity:0.34;}
	.st4{fill:none;stroke:#D83A26;stroke-width:5.4712;stroke-linecap:round;stroke-miterlimit:10;}
</style>
<g>
	<path class="st0" d="M460.0147095,180.591507c-4.699707-4.9458008-11.2316284-7.7772064-17.9659119-7.7772064
		c-13.4971008,0-24.4776001,11.0115051-24.4776001,24.5469971c0,13.535202,10.9804993,24.5469971,24.4776001,24.5469971
		c6.7342834,0,13.2662048-2.8316956,17.9659119-7.7774963l-5.8623352-5.4067993
		c-3.1694946,3.0718994-7.3479919,4.6932983-12.1035767,4.6932983c-8.940918,0-15.4300842-6.7527924-15.4300842-16.0559998
		c0-9.1535034,6.6333618-16.0558929,15.4300842-16.0558929c4.6184998,0,8.9049072,1.6654968,12.1015015,4.6949921
		L460.0147095,180.591507z"/>
	<polygon class="st0" points="809.6325073,221.4217987 809.6325073,173.3009033 802.3118896,173.3009033 780.918396,204.5726013 
		780.918396,173.3009033 771.8709106,173.3009033 771.8709106,221.4217987 779.1224365,221.4217987 800.585083,190.1526031 
		800.585083,221.4217987 	"/>
	<g>
		<g>
			<path class="st0" d="M436.0392761,337.5483093c-1.9353943,0-3.7745667-0.3871155-5.5177002-1.1636047
				c-1.742981-0.7763977-3.2775879-1.8392029-4.5991821-3.1882019c-1.3215027-1.3490906-2.3706055-2.9432983-3.1470032-4.7825012
				c-0.7764893-1.8392029-1.1636047-3.8364868-1.1636047-5.989502c0-2.1529846,0.3871155-4.1478882,1.1636047-5.9872131
				c0.7763977-1.8391724,1.8255005-3.4332886,3.1470032-4.7823792c1.3215942-1.3491211,2.8562012-2.4118042,4.5991821-3.1882935
				c1.7431335-0.7764282,3.5823059-1.165802,5.5177002-1.165802c1.9354248,0,3.7746277,0.3893738,5.519928,1.165802
				c1.7430725,0.7764893,3.2753906,1.8391724,4.5968933,3.1882935c1.3216248,1.3490906,2.3706055,2.9432068,3.1470947,4.7823792
				c0.7786865,1.839325,1.165802,3.8342285,1.165802,5.9872131c0,2.1530151-0.3871155,4.1502991-1.165802,5.989502
				c-0.7764893,1.8392029-1.82547,3.4334106-3.1470947,4.7825012c-1.3215027,1.348999-2.8538208,2.4118042-4.5968933,3.1882019
				C439.8139038,337.1611938,437.9747009,337.5483093,436.0392761,337.5483093z M436.0392761,310.6929016
				c-1.5803833,0-3.0576782,0.2955017-4.4342957,0.8818054c-1.3764954,0.5886841-2.5698853,1.4017944-3.5776062,2.4416809
				c-1.007782,1.0398254-1.7979736,2.2766113-2.370575,3.7127075c-0.5727234,1.4360962-0.85672,3.0005188-0.85672,4.6954041
				c0,1.6950073,0.2839966,3.2615967,0.85672,4.6976929c0.5726013,1.4360962,1.362793,2.6730042,2.370575,3.7105103
				c1.0077209,1.0398865,2.2011108,1.8529968,3.5776062,2.4415894c1.3766174,0.5887146,2.8539124,0.8818054,4.4342957,0.8818054
				c1.5804443,0,3.0599976-0.2930908,4.436615-0.8818054c1.3742065-0.5885925,2.5675049-1.4017029,3.5752869-2.4415894
				c1.0078125-1.0375061,1.7980042-2.2744141,2.3706055-3.7105103s0.8589172-3.0026855,0.8589172-4.6976929
				c0-1.6948853-0.2863159-3.2593079-0.8589172-4.6954041s-1.362793-2.6728821-2.3706055-3.7127075
				c-1.007782-1.0398865-2.2010803-1.8529968-3.5752869-2.4416809
				C439.0992737,310.9884033,437.6197205,310.6929016,436.0392761,310.6929016z"/>
			<path class="st0" d="M473.196991,316.9892883v20.1101074h-3.0256958v-16.8415833h-11.0765076v16.8415833h-3.0256958v-20.1101074
				H473.196991z"/>
			<path class="st0" d="M478.7536011,327.0443115c0-1.4979248,0.272583-2.8882141,0.817688-4.1708069
				c0.545105-1.2803955,1.280304-2.3912964,2.2080078-3.3302917c0.925293-0.9414062,2.0086975-1.6766052,3.2500916-2.2080078
				c1.2391052-0.5314026,2.5401001-0.7971191,3.9028931-0.7971191s2.6638184,0.2657166,3.9028931,0.7971191
				c1.2414246,0.5314026,2.3225403,1.2666016,3.2501221,2.2080078c0.925415,0.9389954,1.6629028,2.0498962,2.2079773,3.3302917
				c0.545105,1.2825928,0.8177185,2.6728821,0.8177185,4.1708069c0,1.4979858-0.2726135,2.8882751-0.8177185,4.1685791
				c-0.5450745,1.2803955-1.2825623,2.3912048-2.2079773,3.3326111c-0.9275818,0.9390869-2.0086975,1.6742859-3.2501221,2.2056885
				c-1.2390747,0.5314026-2.5401001,0.7971191-3.9028931,0.7971191s-2.6637878-0.2657166-3.9028931-0.7971191
				c-1.241394-0.5314026-2.3247986-1.2666016-3.2500916-2.2056885c-0.9277039-0.9414062-1.6629028-2.0522156-2.2080078-3.3326111
				C479.0261841,329.9325867,478.7536011,328.5422974,478.7536011,327.0443115z M488.9322815,319.8088989
				c-1.0353088,0-1.990387,0.1763-2.8607788,0.531311c-0.8726196,0.3551025-1.6216125,0.8520813-2.2492065,1.4910889
				c-0.6275024,0.6412964-1.1246033,1.4041138-1.4909973,2.2904053c-0.3688049,0.8863831-0.552002,1.8598938-0.552002,2.9226074
				c0,1.0627747,0.183197,2.0361938,0.552002,2.9225769c0.366394,0.8864136,0.8634949,1.6492004,1.4909973,2.288208
				c0.627594,0.6412964,1.3765869,1.1383057,2.2492065,1.4933167c0.8703918,0.3527832,1.82547,0.5313721,2.8607788,0.5313721
				c1.0078125,0,1.9537048-0.1785889,2.8401184-0.5313721c0.8863831-0.355011,1.6423035-0.8520203,2.2698975-1.4933167
				c0.6251831-0.6390076,1.1246033-1.4017944,1.4909973-2.288208c0.3688049-0.8863831,0.552002-1.8598022,0.552002-2.9225769
				c0-1.0627136-0.183197-2.0362244-0.552002-2.9226074c-0.366394-0.8862915-0.8658142-1.6491089-1.4909973-2.2904053
				c-0.627594-0.6390076-1.3835144-1.1359863-2.2698975-1.4910889
				C490.8859863,319.985199,489.940094,319.8088989,488.9322815,319.8088989z"/>
			<path class="st0" d="M504.6698914,345.8052979v-28.8160095h2.9432068v2.4096069
				c0.1625977-0.3527832,0.4419861-0.7077942,0.8382874-1.0628052c0.3938904-0.3526917,0.8840942-0.6595764,1.4703979-0.9184875
				c0.5863953-0.2587891,1.2391968-0.4695129,1.9629211-0.6343994c0.7214966-0.1625977,1.4910889-0.2451172,2.3087769-0.2451172
				c1.362793,0,2.6569214,0.2588196,3.8845825,0.7765198c1.2254028,0.5176086,2.3087158,1.241394,3.2478027,2.166687
				c0.9414062,0.9277039,1.6904297,2.0316162,2.2492065,3.3120117c0.5588989,1.2803955,0.8383179,2.6980896,0.8383179,4.2510071
				c0,1.5529785-0.2794189,2.9707031-0.8383179,4.2510986c-0.5587769,1.280304-1.3078003,2.3842773-2.2492065,3.3096924
				c-0.9390869,0.9276123-2.0223999,1.6491089-3.2478027,2.166687c-1.2276611,0.5177002-2.5217896,0.7765198-3.8845825,0.7765198
				c-1.635376,0-3.0440063-0.2932129-4.2304077-0.8773193c-1.1841736-0.5863037-1.9422913-1.2481995-2.2675781-1.98349v11.1177979
				H504.6698914z M521.3877563,327.0443115c0-1.1177063-0.1832886-2.1186218-0.5519409-3.0050049
				c-0.3665161-0.8840942-0.8727417-1.6422119-1.5117188-2.2675171c-0.6412964-0.627594-1.4108887-1.1109009-2.3088379-1.452179
				c-0.9000854-0.341217-1.8803711-0.5107117-2.9431763-0.5107117c-1.5551758,0-2.9226074,0.3344116-4.1090088,1.0009155
				c-1.1841736,0.6687927-1.9422913,1.6146851-2.2675781,2.8423767v6.7843018
				c0.3252869,1.2254028,1.0834045,2.1736145,2.2675781,2.8401184c1.1864014,0.6687927,2.553833,1.0031738,4.1090088,1.0031738
				c1.0628052,0,2.0430908-0.1717834,2.9431763-0.5106812c0.8979492-0.3413086,1.6675415-0.8246155,2.3088379-1.4522095
				c0.6389771-0.627594,1.1452026-1.3833923,1.5117188-2.2698059
				C521.2044678,329.1629944,521.3877563,328.1621094,521.3877563,327.0443115z"/>
			<path class="st0" d="M532.9979858,316.9892883v8.0921021h11.362793v-8.0921021h3.0256958v20.1101074h-3.0256958v-8.7471924
				h-11.362793v8.7471924H529.97229v-20.1101074H532.9979858z"/>
			<path class="st0" d="M554.333374,337.0993958v-20.1101074h3.0256348v6.2117004h4.0448608
				c1.0353394,0,2.0179443,0.1786194,2.9432373,0.5314026c0.9276733,0.355011,1.7316284,0.8451233,2.4118652,1.4727173
				c0.6824951,0.627594,1.2208252,1.362793,1.6147461,2.2056885c0.3962402,0.8452148,0.5931396,1.7590942,0.5931396,2.7394104
				c0,1.007782-0.1968994,1.9353943-0.5931396,2.7805786c-0.3939209,0.8451233-0.9391479,1.5735168-1.6353149,2.1850281
				c-0.6940308,0.6138916-1.5049438,1.0993958-2.4324951,1.452179c-0.925293,0.355011-1.9056396,0.5314026-2.940918,0.5314026
				H554.333374z M562.05896,333.8286133c1.1452026,0,2.0774536-0.3527222,2.7989502-1.0628052
				c0.7238159-0.7077026,1.083374-1.6078186,1.083374-2.6981201c0-1.115387-0.380188-1.9949951-1.1428833-2.6362915
				c-0.7650146-0.6390076-1.6766357-0.9596863-2.7394409-0.9596863h-4.6999512v7.3569031H562.05896z M572.0315552,316.9892883
				h3.0256348v20.1101074h-3.0256348V316.9892883z"/>
			<path class="st0" d="M584.9907837,316.9892883v15.0413208l11.5255127-15.0413208h3.0256958v20.1101074h-3.0256958v-15.0412903
				l-11.5255127,15.0412903H581.96521v-20.1101074H584.9907837z M597.0888672,309.1812134
				c-0.0549927,1.635376-0.6687622,2.9432983-1.8391724,3.923584c-1.1727295,0.9803162-2.6569214,1.4727173-4.454895,1.4727173
				c-1.7980347,0-3.2914429-0.4924011-4.4755249-1.4727173c-1.1864624-0.9802856-1.8071899-2.288208-1.8598633-3.923584
				l2.8607788-0.6940002c0.0549927,0.7627869,0.3665161,1.4223938,0.9390869,1.9812927
				c0.5726318,0.5588074,1.4177856,0.8382874,2.5355225,0.8382874c1.0628052,0,1.8803711-0.27948,2.4530029-0.8382874
				c0.5703735-0.5588989,0.8841553-1.2185059,0.9390869-1.9812927L597.0888672,309.1812134z"/>
			<path class="st0" d="M614.3793945,316.9892883h3.4746094l6.7041016,15.8590088l6.4589844-15.8590088h3.4746094
				l-11.9766846,28.8160095h-3.4746094l3.7998657-9.196106L614.3793945,316.9892883z"/>
			<path class="st0" d="M641.8485718,316.9892883v8.0921021h11.362793v-8.0921021h3.0256958v20.1101074h-3.0256958v-8.7471924
				h-11.362793v8.7471924h-3.0256958v-20.1101074H641.8485718z"/>
			<path class="st0" d="M666.2095947,316.9892883v15.0413208l11.5255127-15.0413208h3.0256958v20.1101074h-3.0256958v-15.0412903
				l-11.5255127,15.0412903H663.18396v-20.1101074H666.2095947z"/>
			<path class="st0" d="M695.0255737,316.9892883c0.982605,0,1.8804321,0.1283264,2.6981201,0.3871155
				s1.5255127,0.627594,2.1254883,1.1040039c0.6000977,0.4763794,1.0628052,1.0489807,1.3903198,1.717804
				c0.3275757,0.6665955,0.4902344,1.4223938,0.4902344,2.2675781c0,1.8254089-0.5864258,3.2019958-1.7568359,4.1273193
				c0.8726807,0.4649963,1.5460815,1.0787964,2.0224609,1.8414917c0.4764404,0.7627869,0.7169189,1.7156067,0.7169189,2.8608093
				c0,0.8725891-0.1787109,1.6627808-0.5313721,2.370575c-0.3550415,0.7077026-0.8452148,1.3147278-1.4727173,1.8186035
				c-0.6276245,0.5039062-1.362793,0.900116-2.2080078,1.1864014c-0.8452148,0.2863159-1.7567749,0.4284058-2.7371216,0.4284058
				h-8.0531616v-20.1101074H695.0255737z M690.7355957,320.2578125v5.0274963h5.107666
				c0.7902222,0,1.4659424-0.2245178,2.0247192-0.6734009c0.5565796-0.4489136,0.8383179-1.0559082,0.8383179-1.8186035
				c0-0.7901917-0.2817383-1.4109192-0.8383179-1.8598022c-0.5587769-0.4512939-1.2344971-0.6756897-2.0247192-0.6756897
				H690.7355957z M690.7355957,328.5559998v5.2726135h5.9666138c0.817688,0,1.5184937-0.2382202,2.1048584-0.7145996
				c0.5864258-0.4764099,0.8795166-1.1109009,0.8795166-1.901123c0-0.817688-0.2930908-1.4635925-0.8795166-1.9422913
				c-0.5863647-0.4764099-1.2871704-0.7145996-2.1048584-0.7145996H690.7355957z"/>
			<path class="st0" d="M726.0930176,326.6755981c0,0.4375-0.0411987,0.900116-0.1213379,1.3902893h-15.9827271
				c0.2176514,2.1118164,1.0078125,3.6555176,2.3706055,4.6289062c1.362854,0.9757996,3.0096436,1.4613037,4.9450684,1.4613037
				c1.4727783,0,2.7324829-0.2197876,3.7815552-0.6641846c1.0490112-0.4420166,1.9835205-1.1063232,2.7989502-1.9927063
				l0.5725708,2.6568909c-0.2175903,0.4649963-0.552002,0.9002075-1.0009155,1.3078918
				c-0.4489746,0.4100037-0.9940796,0.7627258-1.635376,1.0627136c-0.6389771,0.3001099-1.3491211,0.5451965-2.1254883,0.7352905
				c-0.7764893,0.190094-1.5873413,0.2863159-2.4324951,0.2863159c-1.4429932,0-2.7989502-0.2382202-4.0655518-0.7145996
				c-1.2689209-0.4764099-2.3659668-1.1659241-3.2913818-2.0637207c-0.9276123-0.900177-1.6558838-2.0041809-2.1873169-3.3119812
				c-0.5313721-1.3078003-0.7971191-2.7783203-0.7971191-4.4136963c0-1.4727173,0.2313232-2.8424072,0.6963501-4.1090088
				c0.4626465-1.2666016,1.1223145-2.3775024,1.9812012-3.3302917c0.8588867-0.9551086,1.8872681-1.7041016,3.0874634-2.2492065
				c1.197937-0.545105,2.5470581-0.8177185,4.0449219-0.8177185c1.3903198,0,2.6638184,0.2657166,3.8228149,0.7971191
				c1.1588745,0.5314026,2.1461182,1.2619934,2.9638062,2.1874084c0.817688,0.9275818,1.4497681,2.0040894,1.901062,3.2294922
				C725.8685913,323.9775085,726.0930176,325.2853088,726.0930176,326.6755981z M716.7319946,319.8088989
				c-0.7351685,0-1.456665,0.1029968-2.166687,0.3069153c-0.7078247,0.2037964-1.362854,0.5175781-1.9605713,0.9390869
				c-0.6001587,0.4237061-1.1109619,0.9551086-1.5323486,1.5940857c-0.4238281,0.6413269-0.7169189,1.3972168-0.8795776,2.2698059
				h12.6707153c-0.2175903-1.5803833-0.8840942-2.8263855-2.0018311-3.7402954
				C719.7440186,320.2647095,718.3674316,319.8088989,716.7319946,319.8088989z"/>
			<path class="st0" d="M731.6519165,345.8052979v-28.8160095h2.9431763v2.4096069
				c0.1627197-0.3527832,0.4421387-0.7077942,0.8383179-1.0628052c0.3939819-0.3526917,0.8840942-0.6595764,1.47052-0.9184875
				c0.5863037-0.2587891,1.2390747-0.4695129,1.9628906-0.6343994c0.7214966-0.1625977,1.4910889-0.2451172,2.3087769-0.2451172
				c1.362793,0,2.6569214,0.2588196,3.8845215,0.7765198c1.2254028,0.5176086,2.3087769,1.241394,3.2478638,2.166687
				c0.9413452,0.9277039,1.6903076,2.0316162,2.2492065,3.3120117c0.5588379,1.2803955,0.8383179,2.6980896,0.8383179,4.2510071
				c0,1.5529785-0.27948,2.9707031-0.8383179,4.2510986c-0.5588989,1.280304-1.3078613,2.3842773-2.2492065,3.3096924
				c-0.9390869,0.9276123-2.0224609,1.6491089-3.2478638,2.166687c-1.2276001,0.5177002-2.5217285,0.7765198-3.8845215,0.7765198
				c-1.635376,0-3.0440063-0.2932129-4.2304688-0.8773193c-1.1841431-0.5863037-1.9423218-1.2481995-2.2675171-1.98349v11.1177979
				H731.6519165z M748.369812,327.0443115c0-1.1177063-0.1832275-2.1186218-0.552002-3.0050049
				c-0.3665161-0.8840942-0.8726196-1.6422119-1.5117188-2.2675171c-0.6412964-0.627594-1.4108887-1.1109009-2.3086548-1.452179
				c-0.9002075-0.341217-1.8805542-0.5107117-2.9432373-0.5107117c-1.5551758,0-2.9226074,0.3344116-4.1090698,1.0009155
				c-1.1841431,0.6687927-1.9423218,1.6146851-2.2675171,2.8423767v6.7843018
				c0.3251953,1.2254028,1.083374,2.1736145,2.2675171,2.8401184c1.1864624,0.6687927,2.553894,1.0031738,4.1090698,1.0031738
				c1.0626831,0,2.0430298-0.1717834,2.9432373-0.5106812c0.8977661-0.3413086,1.6673584-0.8246155,2.3086548-1.4522095
				c0.6390991-0.627594,1.1452026-1.3833923,1.5117188-2.2698059
				C748.1865845,329.1629944,748.369812,328.1621094,748.369812,327.0443115z"/>
			<path class="st0" d="M773.3057861,334.1973877c-0.2198486,0.4077148-0.5405884,0.8108215-0.9619751,1.2047119
				c-0.4215088,0.3963013-0.9390869,0.7513123-1.5529175,1.0628052c-0.6138916,0.3137817-1.3215942,0.5726013-2.1254883,0.7764893
				c-0.8040161,0.2061157-1.6973267,0.3069153-2.6776123,0.3069153c-1.3902588,0-2.711792-0.2520142-3.9646606-0.7559204
				c-1.2529297-0.5038757-2.3569336-1.2115784-3.3120117-2.1254883c-0.9528198-0.9115906-1.7155151-2.0155945-2.2880859-3.3096924
				c-0.5726318-1.2940979-0.8589478-2.7325134-0.8589478-4.3128967c0-1.5804138,0.2863159-3.0119019,0.8589478-4.2922058
				c0.5725708-1.2803955,1.3352661-2.3843994,2.2880859-3.3120117c0.9550781-0.925293,2.059082-1.6398926,3.3120117-2.1460876
				c1.2528687-0.5039062,2.5744019-0.7559204,3.9646606-0.7559204c0.925415,0,1.7774048,0.0962219,2.553894,0.2863159
				c0.7764282,0.1924133,1.4727173,0.444397,2.0866089,0.7558899c0.6115112,0.3138123,1.1290894,0.6688232,1.5529175,1.0627136
				c0.4213867,0.3963013,0.7420654,0.7970886,0.9597168,1.2070923l-0.7353516,2.4530029
				c-0.6000977-0.6275024-1.4039917-1.2001038-2.4117432-1.717804c-1.0078125-0.5176086-2.1530151-0.7763977-3.4334106-0.7763977
				c-1.1727295,0-2.2492065,0.1694946-3.2294922,0.5107117c-0.9803467,0.3412781-1.8186035,0.8314819-2.5149536,1.4727783
				c-0.6939697,0.6390076-1.2390747,1.4017029-1.6329956,2.2881165c-0.3963013,0.8863831-0.5932617,1.8735962-0.5932617,2.9638062
				c0,1.0903015,0.1969604,2.0774841,0.5932617,2.9638977c0.3939209,0.8840942,0.9459229,1.6490784,1.6536255,2.2880859
				c0.710083,0.6412964,1.5552979,1.1315002,2.5355835,1.4728088c0.9802856,0.3388977,2.0704956,0.5106812,3.2706909,0.5106812
				c1.3880005,0,2.567627-0.2587891,3.5341187-0.7763977c0.9666138-0.5177002,1.7637329-1.1039734,2.3912964-1.7590942
				L773.3057861,334.1973877z"/>
			<path class="st0" d="M781.8880005,316.9892883v15.0413208l11.5255127-15.0413208h3.0256958v20.1101074h-3.0256958v-15.0412903
				l-11.5255127,15.0412903h-3.0255737v-20.1101074H781.8880005z"/>
			<path class="st0" d="M818.2670288,320.2578125h-6.9078979v16.8415833h-3.0256958v-16.8415833h-6.90802v-3.2685242h16.8416138
				V320.2578125z"/>
			<path class="st0" d="M840.3399048,326.6755981c0,0.4375-0.0411987,0.900116-0.1213989,1.3902893h-15.982605
				c0.2175903,2.1118164,1.0078125,3.6555176,2.3706055,4.6289062c1.362793,0.9757996,3.0095825,1.4613037,4.9450073,1.4613037
				c1.4727783,0,2.7324829-0.2197876,3.7814941-0.6641846c1.0490112-0.4420166,1.9835205-1.1063232,2.7988892-1.9927063
				l0.5726318,2.6568909c-0.2175293,0.4649963-0.5519409,0.9002075-1.0009155,1.3078918
				c-0.4489136,0.4100037-0.9940186,0.7627258-1.6353149,1.0627136c-0.6390991,0.3001099-1.3491211,0.5451965-2.1256104,0.7352905
				c-0.7763672,0.190094-1.5871582,0.2863159-2.432373,0.2863159c-1.4429932,0-2.7988892-0.2382202-4.0654907-0.7145996
				c-1.2689209-0.4764099-2.3660278-1.1659241-3.2914429-2.0637207c-0.9275513-0.900177-1.6559448-2.0041809-2.1872559-3.3119812
				c-0.5314331-1.3078003-0.7971191-2.7783203-0.7971191-4.4136963c0-1.4727173,0.2313232-2.8424072,0.6962891-4.1090088
				c0.4625854-1.2666016,1.1223145-2.3775024,1.9812012-3.3302917c0.8588867-0.9551086,1.8873291-1.7041016,3.0875244-2.2492065
				c1.197876-0.545105,2.5469971-0.8177185,4.0448608-0.8177185c1.3903198,0,2.6638184,0.2657166,3.8227539,0.7971191
				c1.1589966,0.5314026,2.1461792,1.2619934,2.9638672,2.1874084c0.817688,0.9275818,1.4498291,2.0040894,1.901001,3.2294922
				C840.1154785,323.9775085,840.3399048,325.2853088,840.3399048,326.6755981z M830.9788818,319.8088989
				c-0.7351685,0-1.456665,0.1029968-2.166687,0.3069153c-0.7077637,0.2037964-1.362793,0.5175781-1.9606934,0.9390869
				c-0.5999756,0.4237061-1.1107788,0.9551086-1.5322876,1.5940857c-0.4237061,0.6413269-0.7169189,1.3972168-0.8795166,2.2698059
				h12.6707153c-0.2175903-1.5803833-0.8840942-2.8263855-2.0018311-3.7402954
				C833.9907837,320.2647095,832.6143188,319.8088989,830.9788818,319.8088989z"/>
			<path class="st0" d="M860.4912109,320.2578125h-6.90802v16.8415833h-3.0256958v-16.8415833h-6.9078979v-3.2685242h16.8416138
				V320.2578125z"/>
		</g>
	</g>
	<path class="st0" d="M496.3275757,212.5225067l3.4762268,8.899292h10.0443726l-19.5231934-48.1208954h-5.2642822
		l-19.7981262,48.1208954h10.0419006l3.4768066-8.899292H496.3275757z M487.5907898,189.6645966l5.6141052,14.2971039h-11.3033142
		L487.5907898,189.6645966z"/>
	<polygon class="st0" points="558.2929077,189.8415985 558.2929077,221.4217987 567.340271,221.4217987 567.340271,173.3009033 
		562.0443726,173.3009033 543.348999,196.6873932 524.7240601,173.3009033 519.4281006,173.3009033 519.4281006,221.4217987 
		528.4755859,221.4217987 528.4755859,189.8388062 543.3497314,208.3963013 	"/>
	<path class="st0" d="M608.6817017,212.5225067l3.4768066,8.899292h10.0444946l-19.5236206-48.1208954h-5.2642822
		l-19.7977905,48.1208954h10.0418701l3.4769287-8.899292H608.6817017z M599.9455566,189.6645966l5.6140137,14.2971039h-11.3031616
		L599.9455566,189.6645966z"/>
	<path class="st0" d="M668.0852051,191.7297974c0-11.0229034-8.6072388-18.428894-21.4182129-18.428894h-15.7175903v48.1208954
		h9.0477905v-11.1938934h6.6697998C659.4779663,210.2279053,668.0852051,202.7940979,668.0852051,191.7297974z
		 M639.9971924,181.7919006h7.4345093c6.0194092,0,12.0928955,3.0729065,12.0928955,9.9378967
		c0,7.3782959-6.2468872,10.0070953-12.0928955,10.0070953h-7.4345093V181.7919006z"/>
	<path class="st0" d="M712.5809937,186.0003967l5.8648071-5.4088898c-4.699707-4.9458008-11.2316284-7.7772064-17.9659424-7.7772064
		c-13.4969482,0-24.477478,11.0115051-24.477478,24.5469971c0,13.535202,10.9805298,24.5469971,24.477478,24.5469971
		c6.734314,0,13.2662354-2.8316956,17.9659424-7.7774963l-5.8626099-5.4067993
		c-3.1694946,3.0718994-7.3480225,4.6932983-12.1033325,4.6932983c-8.9408569,0-15.4300537-6.7527924-15.4300537-16.0559998
		c0-9.1535034,6.6334839-16.0558929,15.4300537-16.0558929
		C705.0979614,181.3054047,709.3844604,182.9709015,712.5809937,186.0003967z"/>
	<polygon class="st0" points="457.1401978,284.6942139 457.1401978,236.5740051 420.1437073,236.5740051 420.1437073,284.6942139 
		429.1907959,284.6942139 429.1907959,245.0646973 448.0927734,245.0646973 448.0927734,284.6942139 	"/>
	<path class="st0" d="M492.1077881,236.0870972c-13.4967041,0-24.4772034,11.0118103-24.4772034,24.5466003
		c0,13.535614,10.9804993,24.5470886,24.4772034,24.5470886c13.5350952,0,24.5469971-11.0114746,24.5469971-24.5470886
		C516.6547852,247.0989075,505.6428833,236.0870972,492.1077881,236.0870972z M492.1077881,276.6896973
		c-8.9410095,0-15.4302063-6.7521057-15.4302063-16.0559998c0-9.1531982,6.6335144-16.055603,15.4302063-16.055603
		c8.9811096,0,15.4996033,6.7525024,15.4996033,16.055603C507.6073914,269.9375916,501.0888977,276.6896973,492.1077881,276.6896973
		z"/>
	<polygon class="st0" points="554.59198,284.6942139 564.6359863,284.6942139 545.1124878,236.5740051 539.8482056,236.5740051 
		520.050415,284.6942139 530.0922852,284.6942139 542.3775635,253.1342926 	"/>
	<polygon class="st0" points="611.9771729,284.6942139 611.9771729,236.5740051 604.6566772,236.5740051 583.2630615,267.8453064 
		583.2630615,236.5740051 574.2155762,236.5740051 574.2155762,284.6942139 581.4671021,284.6942139 602.9298096,253.4250031 
		602.9298096,284.6942139 	"/>
	<polygon class="st0" points="657.1697998,236.5740051 621.4246826,236.5740051 621.4246826,245.0646973 634.7734985,245.0646973 
		634.7734985,284.6942139 643.8209839,284.6942139 643.8209839,245.0646973 657.1697998,245.0646973 	"/>
	<polygon class="st0" points="699.1630859,245.0646973 699.1630859,236.5740051 667.3114624,236.5740051 667.3114624,284.6942139 
		699.1630859,284.6942139 699.1630859,276.2030945 676.3588867,276.2030945 676.3588867,264.7406921 697.4248047,264.7406921 
		697.4248047,256.2492981 676.3588867,256.2492981 676.3588867,245.0646973 	"/>
	<polygon class="st0" points="739.9747925,284.6942139 750.2318115,284.6942139 733.5230103,260.0097046 749.1237183,236.5740051 
		738.8638306,236.5740051 728.5704346,251.6607971 718.0661011,236.5740051 707.8093872,236.5740051 723.4055176,259.5896912 
		706.6919556,284.6942139 717.0206909,284.6942139 728.3569946,267.9364929 	"/>
	<polygon class="st0" points="749.0516357,196.7368927 764.6525269,173.3011932 754.3925171,173.3011932 745.7678833,185.9420013 
		741.3114014,192.6983032 736.8696289,192.6983032 736.8696289,173.3009033 727.8222046,173.3009033 727.8222046,221.4217987 
		736.8696289,221.4217987 736.8696289,201.3984985 742.0325928,201.3984985 745.2219238,206.591095 755.503479,221.421402 
		765.760498,221.421402 	"/>
	<circle class="st1" cx="842.3399048" cy="161.0039062" r="6.6046"/>
	<path class="st2" d="M789.7727051,161.3627014"/>
	<polygon class="st0" points="860.4912109,221.4217987 860.4912109,173.3009033 853.1705933,173.3009033 831.7769775,204.5726013 
		831.7769775,173.3009033 822.7296143,173.3009033 822.7296143,221.4217987 829.9810181,221.4217987 851.4437256,190.1526031 
		851.4437256,221.4217987 	"/>
	<g>
		<circle class="st1" cx="203.9253693" cy="196.0977936" r="24.4104366"/>
	</g>
	<g>
		<path class="st0" d="M204.0399017,341.1489868c-79.9807053,0-145.0503082-65.0695801-145.0503082-145.050293
			c0-38.8411865,15.1525002-75.3330917,42.6646996-102.7477951c1.5671005-1.5646973,4.111412-1.5624008,5.6737976,0.0093002
			c1.5647049,1.5692978,1.5601044,4.1091003-0.0093002,5.6737976c-25.9916,25.9011002-40.3060837,60.3709106-40.3060837,97.0646973
			c0,75.5559082,61.471283,137.0271912,137.0271912,137.0271912c41.3578033,0,80.082901-18.4025879,106.248703-50.4881897
			c1.3974915-1.7203064,3.9232788-1.9755859,5.6435852-0.5733948c1.7178955,1.3998108,1.9756165,3.928009,0.5733948,5.6435852
			C288.8122864,321.6716003,247.8190002,341.1489868,204.0399017,341.1489868z"/>
	</g>
	<g>
		<path class="st0" d="M369.5707092,156.9208984c-1.2235107,0-2.3378296-0.8264923-2.6512146-2.0684967
			C348.9927979,83.8349991,285.3577881,31.7984009,212.1721954,28.3115005
			c-2.6813049-0.1277008-5.4161072-0.1927013-8.1322937-0.1927013c-1.5113068,0-2.7347107-1.2234993-2.7347107-2.7347984
			c0-1.511301,1.2234039-2.7347012,2.7347107-2.7347012c2.8020935,0,5.6250916,0.0650005,8.3922882,0.1973
			C288.0043945,26.4473,353.7147827,80.1787033,372.2265015,153.5151978
			c0.3690796,1.4649048-0.5200195,2.9506073-1.9849243,3.3220978
			C370.0187073,156.8930054,369.7934875,156.9208984,369.5707092,156.9208984z"/>
	</g>
	<g>
		<path class="st0" d="M66.1908951,100.0971985c-19.7072945,28.2411957-30.119297,61.4275055-30.119297,95.9922028
			c0,17.5204926,2.6146011,34.5888062,7.8446999,50.9440918c-1.8304977,0.3567047-3.5657997,0.9986115-5.1348991,1.9253998
			c-5.4439011-16.9968872-8.2012997-34.6833954-8.2012997-52.8694916c0-35.6822052,10.7688999-69.9616013,31.1177998-99.1303024
			c0.8558083-1.2361984,2.5672989-1.544899,3.8034973-0.6656952C66.7375946,97.149498,67.0467072,98.8610001,66.1908951,100.0971985
			z"/>
	</g>
	<g>
		<path class="st0" d="M204.1559906,369.5480957c-23.1198883,0-45.5758972-4.4758911-66.7410889-13.3023071
			c-1.3928986-0.5827026-2.0522003-2.1844788-1.4718018-3.5796814c0.5849915-1.3952942,2.184494-2.0406189,3.5796967-1.4718933
			c20.4942932,8.5500793,42.2399139,12.8843994,64.633194,12.8843994c33.8731995,0,66.5182953-10.0335999,94.4088898-29.0166016
			c1.2490234-0.8520203,2.9483032-0.5269165,3.8003235,0.7219849c0.8497009,1.2489929,0.5269775,2.9507141-0.7219238,3.800293
			C272.8425903,359.1871948,239.131897,369.5480957,204.1559906,369.5480957z"/>
	</g>
	<g class="st3">
		<path class="st4" d="M33.4204979,196.0762939"/>
	</g>
	<g>
		<path class="st0" d="M203.9261932,400.0249023c-8.3527985,0-16.7682953-0.5107117-25.0119934-1.5159912
			c-2.19841-0.2693176-3.7631073-2.2704163-3.4962006-4.4712219c0.2717133-2.1984863,2.2634888-3.7375793,4.4712982-3.4961853
			c7.9185944,0.9681091,16.0067902,1.4602051,24.0368958,1.4602051c18.4490051,0,36.7053986-2.5606079,54.2629852-7.6122131
			c2.1358032-0.6152039,4.3528137,0.6174927,4.9657288,2.7463989c0.6128845,2.1311035-0.6175232,4.3528137-2.7463074,4.9656982
			C242.1289978,397.3598022,223.1250916,400.0249023,203.9261932,400.0249023z"/>
	</g>
	<g>
		<path class="st0" d="M21.406599,281.7950134c-1.5320988,0-2.9969997-0.8845215-3.6632996-2.3726196
			C5.9685998,253.1497955,0,225.1152954,0,196.0986938c0-29.0281982,5.9731998-57.0696869,17.7525997-83.3445969
			c0.9053993-2.0196991,3.2733002-2.9250946,5.3022995-2.0196991c2.0221004,0.9054031,2.9274006,3.280304,2.019701,5.3022995
			c-11.3150005,25.2349091-17.0515003,52.171402-17.0515003,80.0619965c0,27.8790131,5.7341995,54.808609,17.0422993,80.0411072
			c0.9053078,2.0220032,0.0023079,4.3969116-2.0198002,5.3023071
			C22.5117073,281.6812134,21.9545002,281.7950134,21.406599,281.7950134z"/>
	</g>
	<g>
		<path class="st0" d="M405.8052979,128.2292938c0,7.6218109-6.1815796,13.8034058-13.819519,13.8034058
			c-7.6217957,0-13.8032837-6.1815948-13.8032837-13.8034058c0-4.3852921,2.0389099-8.2851944,5.2106934-10.8257904
			C360.2203979,64.3748016,314.764801,24.1622009,258.4024963,7.8669c-2.1197815-0.6149998-3.3496094-2.8319001-2.7346954-4.9679999
			C256.2827148,0.7791,258.4996033-0.4669,260.6357117,0.1643
			c58.7733765,16.9749985,106.1383667,58.9513016,130.2335815,114.2939987
			c0.3721008-0.0322952,0.7442932-0.0484009,1.1164856-0.0484009
			C399.6237183,114.4098969,405.8052979,120.5914001,405.8052979,128.2292938z"/>
	</g>
	<g>
		<path class="st0" d="M359.2493896,171.6945038c0,9.0782013-7.362793,16.4409943-16.4410095,16.4409943
			c-9.0780945,0-16.4411011-7.362793-16.4411011-16.4409943c0-6.3757019,3.6249084-11.9101105,8.9326172-14.6287079
			c-7.3952026-24.8880005-21.8134155-47.3649979-41.7012939-64.582695
			c-24.8718872-21.5382996-56.7182007-33.4160995-89.6650085-33.4160995c-7.9776917,0-15.9555054,0.6959-23.7391052,2.0551987
			c-2.168396,0.388401-4.2720947-1.0842018-4.6441956-3.2687988c-0.388504-2.1846008,1.0841064-4.2559013,3.2687073-4.6443024
			c8.2204895-1.440197,16.6674957-2.1683998,25.1145935-2.1683998c34.872406,0,68.5798035,12.5735016,94.9241943,35.3741035
			c21.1661987,18.3342972,36.4906921,42.2999954,44.2904053,68.8225021
			C352.0644836,155.4313965,359.2493896,162.7133942,359.2493896,171.6945038z"/>
	</g>
	<path class="st0" d="M318.1307068,196.0971069c0,62.9159851-51.1839905,114.1000061-114.0838165,114.1000061
		c-48.5462952,0-90.0371857-30.4548035-106.5267944-73.2402191c-0.6633911,0.0809021-1.3431015,0.1294098-2.0388947,0.1294098
		c-9.0782013,0-16.4410019-7.3628082-16.4410019-16.4409027c0-9.0944977,7.3628006-16.4573059,16.4410019-16.4573059
		s16.4409943,7.3628082,16.4409943,16.4573059c0,6.456604-3.7218018,12.0393982-9.1428986,14.7256012
		c15.7776031,40.5361938,55.2133026,69.3565063,101.2675934,69.3565063
		c59.8738251,0,108.6143036-48.7243042,108.6143036-108.6304016c0-59.8899994-48.7404785-108.6305084-108.6143036-108.6305084
		c-59.906189,0-108.6465912,48.740509-108.6465912,108.6305084c0,1.326889,0.0324097,2.6537933,0.0809021,3.9807892
		c-1.8771057,0-3.7057037,0.2589111-5.4533997,0.7444c-0.0647049-1.5697021-0.0809021-3.1392975-0.0809021-4.7251892
		c0-62.9161072,51.1678009-114.0838089,114.0999908-114.0838089
		C266.9467163,82.013298,318.1307068,133.1809998,318.1307068,196.0971069z"/>
	<g>
		
			<ellipse transform="matrix(0.9729254 -0.2311196 0.2311196 0.9729254 -59.7188988 18.0840092)" class="st0" cx="47.3265724" cy="263.9337158" rx="13.8140774" ry="13.8140221"/>
	</g>
	<path class="st0" d="M258.888092,196.0971069c0,30.2280884-24.5968018,54.841095-54.8412018,54.841095
		c-23.7229919,0-43.9181824-15.1625977-51.5399933-36.2801971c-0.1941833,0.0161896-0.3721924,0.0161896-0.5664062,0.0161896
		c-10.259491,0-18.5769958-8.3175964-18.5769958-18.5932922c0-10.2593994,8.3175049-18.5771027,18.5769958-18.5771027
		c10.2595062,0,18.5770111,8.3177032,18.5770111,18.5771027c0,8.1719971-5.2591095,15.0979004-12.5572052,17.5899048
		c7.1201019,18.5608978,25.0661011,31.7978973,46.0865936,31.7978973c27.2183075,0,49.3554077-22.1533051,49.3554077-49.3715973
		c0-27.2344055-22.1371002-49.3554077-49.3554077-49.3554077c-19.3699951,0-36.1507874,11.197998-44.2418976,27.4772034
		c-1.7314911-0.6148987-3.5600891-1.0518036-5.4695892-1.2297974c8.7221985-18.722702,27.719986-31.7170105,49.7114868-31.7170105
		C234.2912903,141.2720947,258.888092,165.8527069,258.888092,196.0971069z"/>
	<g>
		<path class="st0" d="M279.6820068,178.5070953c-7.993927-34.3869019-38.8694153-60.0840988-75.6351166-60.0840988
			c-42.8340912,0-77.6902924,34.8401108-77.6902924,77.6741104s34.8562012,77.6739807,77.6902924,77.6739807
			c35.1636963,0,64.9388275-23.4962921,74.470108-55.6177826c2.2653809,0.7444,4.6927185,1.1651001,7.2171021,1.1651001
			c0.2750854,0,0.5340881-0.0324097,0.7928772-0.0485992c-10.1299744,36.0375977-43.2546844,62.5276794-82.4800873,62.5276794
			c-47.2678986,0-85.7003937-38.4486847-85.7003937-85.7003784c0-47.2518005,38.4324951-85.7004089,85.7003937-85.7004089
			c40.9083099,0,75.1819916,28.8202972,83.6615143,67.2203979c9.3369751,0.9871063,16.6026917,8.8677979,16.6026917,18.4638062
			c0,10.2756958-8.3175049,18.5932922-18.5769958,18.5932922c-10.2593994,0-18.5769958-8.3175964-18.5769958-18.5932922
			C267.1571045,187.9412994,272.4000854,181.0314941,279.6820068,178.5070953z"/>
	</g>
</g>
</svg>
