<?xml version="1.0" encoding="utf-8"?>
<!-- Generator: Adobe Illustrator 26.4.1, SVG Export Plug-In . SVG Version: 6.00 Build 0)  -->
<svg version="1.1" id="Слой_1" xmlns="http://www.w3.org/2000/svg" xmlns:xlink="http://www.w3.org/1999/xlink" x="0px" y="0px"
	 viewBox="0 0 42.3461456 42.3456345" style="enable-background:new 0 0 42.3461456 42.3456345;" xml:space="preserve">
<style type="text/css">
	.st0{fill:#00008B;}
	.st1{fill:#FF006E;}
</style>
<path class="st0" d="M42.0475006,32.0453339c-0.321701,0.4600983-0.8353004,0.706501-1.3571014,0.706501
	c-0.327198,0-0.6576996-0.0969009-0.9463005-0.2987022L38.210701,31.381134v9.3103981
	c0,0.9136009-0.7405014,1.6541023-1.6541023,1.6541023c-0.9135971,0-1.6540985-0.7405014-1.6540985-1.6541023V20.6765347h-3.3083
	v2.9037991c0,0.6166-0.3428993,1.1821003-0.889801,1.467001c-0.546999,0.2846985-1.2068996,0.2418995-1.7121983-0.1113014
	l-7.8190002-5.4667988L7.4438601,29.0681343V40.691433c0,0.9136009-0.7405601,1.6542015-1.65414,1.6542015
	s-1.65413-0.7406006-1.65413-1.6542015V31.381134l-1.53338,1.0719986C1.85346,32.976532,0.822195,32.7938347,0.298662,32.0452347
	c-0.52345-0.7488003-0.3408339-1.7799015,0.407909-2.3036003l19.5187283-13.6464996
	c0.5692005-0.3980007,1.3264999-0.3980007,1.8957005,0l6.1648998,4.3101997v-1.3832016
	c0-0.913599,0.7406006-1.6540985,1.6541996-1.6540985h6.6164989c0.9136009,0,1.6541023,0.7404995,1.6541023,1.6540985v8.3220005
	l3.4290009,2.397501C42.388401,30.2653332,42.5709991,31.2965336,42.0475006,32.0453339z M19.1881008,29.6087341h-1.6541004
	c-0.4568005,0-0.8271008,0.3703003-0.8271008,0.8270988v1.6541023c0,0.4567986,0.3703003,0.8270988,0.8271008,0.8270988h1.6541004
	c0.4567986,0,0.8270988-0.3703003,0.8270988-0.8270988V30.435833
	C20.0151997,29.9790344,19.6448994,29.6087341,19.1881008,29.6087341z M24.8948994,29.6087341h-1.6541996
	c-0.4566994,0-0.8269997,0.3703003-0.8269997,0.8270988v1.6541023c0,0.4567986,0.3703003,0.8270988,0.8269997,0.8270988h1.6541996
	c0.4568005,0,0.8270016-0.3703003,0.8270016-0.8270988V30.435833
	C25.7219009,29.9790344,25.3516998,29.6087341,24.8948994,29.6087341z M24.8948994,35.3982353h-1.6541996
	c-0.4566994,0-0.8269997,0.3703003-0.8269997,0.8270988v1.6540985c0,0.4568024,0.3703003,0.8271027,0.8269997,0.8271027h1.6541996
	c0.4568005,0,0.8270016-0.3703003,0.8270016-0.8271027v-1.6540985
	C25.7219009,35.7685356,25.3516998,35.3982353,24.8948994,35.3982353z M19.1881008,35.3982353h-1.6541004
	c-0.4568005,0-0.8271008,0.3703003-0.8271008,0.8270988v1.6540985c0,0.4568024,0.3703003,0.8271027,0.8271008,0.8271027h1.6541004
	c0.4567986,0,0.8270988-0.3703003,0.8270988-0.8271027v-1.6540985
	C20.0151997,35.7685356,19.6448994,35.3982353,19.1881008,35.3982353z"/>
<path class="st1" d="M4.6331401,22.9101334c0.3143697,0,0.63238-0.0895004,0.9138298-0.2765999
	c0.7609-0.5054989,0.9679999-1.5320988,0.46241-2.2931004c-1.7922497-2.6976986-2.7010298-5.3811989-2.7010298-7.9758997
	c0-2.5189695,1.4560499-9.0563498,8.1052494-9.0563498c2.2876997,0,4.3775997,0.71839,6.2114992,2.1350703
	c1.4150009,1.0931296,2.1449013,2.2150497,2.1477013,2.2192698c0.3010998,0.4893699,0.8235989,0.7909198,1.3979988,0.7909198
	c0.574501,0,1.0970001-0.2946796,1.3979015-0.7839799c0.0072994-0.0111599,0.7370987-1.13308,2.1521988-2.2262096
	c1.8339005-1.41676,3.9237003-2.1350703,6.2115002-2.1350703c6.6492004,0,8.1052017,6.5373802,8.1052017,9.0563498
	c0,0.4188004-0.0236015,0.8443003-0.0704002,1.2649002c-0.1007996,0.9081001,0.5536003,1.7258005,1.4615974,1.8264999
	c0.9090996,0.1008005,1.7257996-0.5536995,1.8264999-1.4615993c0.0601006-0.5413008,0.0906029-1.0896006,0.0906029-1.6298008
	c0-2.6894293-0.889801-5.5870595-2.3801003-7.7511597C38.516201,2.5088239,35.7724991,0,30.9323006,0
	c-4.8355007,0-8.0674,2.4412539-9.7594013,4.1854539C19.4808998,2.4412539,16.2490005,0,11.4134998,0
	c-4.8401399,0-7.58393,2.5088239-9.03337,4.6134539C0.889758,6.7775636,0,9.6751842,0,12.3646336
	c0,3.2574005,1.09471,6.5568008,3.25385,9.8064995C3.5722699,22.6506329,4.09762,22.9102345,4.6331401,22.9101334z"/>
</svg>
