<?xml version="1.0" encoding="utf-8"?>
<!-- Generator: Adobe Illustrator 26.4.1, SVG Export Plug-In . SVG Version: 6.00 Build 0)  -->
<svg version="1.1" id="Слой_1" xmlns="http://www.w3.org/2000/svg" xmlns:xlink="http://www.w3.org/1999/xlink" x="0px" y="0px"
	 viewBox="0 0 62.2184868 65.7088165" style="enable-background:new 0 0 62.2184868 65.7088165;" xml:space="preserve">
<style type="text/css">
	.st0{fill-rule:evenodd;clip-rule:evenodd;fill:url(#SVGID_1_);}
	.st1{fill:url(#SVGID_00000002375814301332296580000012557943186425521816_);}
</style>
<g>
	
		<linearGradient id="SVGID_1_" gradientUnits="userSpaceOnUse" x1="-222.9997406" y1="293.8889771" x2="-160.78125" y2="293.8889771" gradientTransform="matrix(1 0 0 -1 222.9997406 326.7433777)">
		<stop  offset="0" style="stop-color:#0FF0B3"/>
		<stop  offset="1" style="stop-color:#036ED9"/>
	</linearGradient>
	<path class="st0" d="M38.1664848,65.2717361c-17.90448,2.9328918-34.7965088-9.2039833-37.7294006-27.1084633
		S9.6410637,3.3667655,27.5455589,0.4338737c14.1821747-2.3231506,28.2281647,4.8417969,34.6729279,17.6868591
		c-1.4427795-1.9344177-3.1316833-3.6723938-5.0239868-5.1700134c-4.2600098-3.3819885-9.4949951-5.5620122-15.072998-6.2799993
		s-11.2640076,0.0599976-16.3730011,2.237c-5.1100006,2.177002-9.4250031,5.6629944-12.4279938,10.0369873
		c-3.003006,4.3739929-4.5659943,9.4500122-4.5,14.6199932c0.0650024,5.1700134,1.7559967,10.2120056,4.8679962,14.5209961
		s7.5149994,7.7019958,12.6779938,9.769989c2.0147705,0.805603,4.1081085,1.3988342,6.2460022,1.769989
		c0.272995-0.3190002,0.5750122-0.6409912,0.9079895-0.9649963c3.1799927-3.0880127,3.9590149-3.5390015,6.5360107-5.0310059
		l0.1300049-0.0759888c1.0220032-0.5920105,2.1499939-1.0899963,3.269989-1.5830078
		c1.8179932-0.802002,3.6109924-1.5920105,4.8779907-2.7569885c0.5371704-0.5045166,1.0526428-1.0316467,1.5450134-1.5799866
		c1.0950012-1.1889954,1.8510132-2.0100098,2.7529907-1.5429993c1.269989,0.6560059,0.3729858,4.4689941-2.2120056,6.8739929
		c-2.0679932,1.9240112-6.0920105,4.6900024-7.8460083,5.8330078c2.2409973-0.3559875,7.3479919-1.5469971,9.8420105-3.4649963
		c2.4949951-1.9169922,5.5079956-6.3280029,6.70401-8.2940063c0.1659546-2.903717,0.3632812-5.805542,0.5920105-8.7049866
		c0.1900024-2.45401,0.2869873-3.7279968,1.0480042-3.8110046c0.6820068-0.0750122,0.8930054,0.7290039,0.9429932,1.2900085
		c0.3450012,3.8299866,0.9880066,11.8959961-0.0740051,15.1960144c-1.3269958,4.125-4.053009,9.3980103-8.980011,11.6610107
		c-3.5929871,1.6499977-9.9500122,2.299015-14.4920044,2.5499916L38.1664848,65.2717361z M58.0614738,46.4907265
		l-1.9570007,3.2640076c0.0419922-3.5409851,0.17099-10.8160095,0.3500061-11.57901s0.7210083-0.8739929,0.9700012-0.8349915
		c-0.0220032-1.1700134,0.1270142-3.5700073,0.8970032-3.8129883c0.769989-0.2430115,1.2399902,0.1960144,1.3800049,0.4460144
		l-0.1159973,0.7430115c-0.1799927,0.1740112-0.5859985,0.9259949-0.776001,2.5390015s-0.5780029,6.8280029-0.7479858,9.2340088
		v0.0010071L58.0614738,46.4907265z"/>
	
		<linearGradient id="SVGID_00000072975455041478527890000002330986516431520172_" gradientUnits="userSpaceOnUse" x1="-203.5532379" y1="294.0158081" x2="-175.0392151" y2="294.0158081" gradientTransform="matrix(1 0 0 -1 222.9997406 326.7433777)">
		<stop  offset="0" style="stop-color:#B24592"/>
		<stop  offset="1" style="stop-color:#F15F79"/>
	</linearGradient>
	<path style="fill:url(#SVGID_00000072975455041478527890000002330986516431520172_);" d="M40.2754936,20.0907345
		c-3.2449951,0-5.4339905,1.6659851-6.571991,2.8359985c-1.1369934-1.1700134-3.326004-2.8359985-6.5709991-2.8359985
		c-4.473999,0-7.6860046,4.0100098-7.6860046,8.8200073c0,2.79599,1.1349945,5.6849957,3.2810059,8.3550091
		c2.345993,2.9179993,5.8760071,5.6029968,10.4910126,7.9809875c0.3042908,0.1569519,0.6657104,0.1569519,0.9700012,0
		c4.6159973-2.3779907,8.1459961-5.0629883,10.4920044-7.980011c2.1459961-2.6700134,3.2799988-5.5599957,3.2799988-8.3559856
		c0-4.8059998-3.2099915-8.8200073-7.6849976-8.8200073H40.2754936z"/>
</g>
</svg>
