<?xml version="1.0" encoding="UTF-8" ?>
<!DOCTYPE svg PUBLIC "-//W3C//DTD SVG 1.1//EN" "http://www.w3.org/Graphics/SVG/1.1/DTD/svg11.dtd">
<svg width="140pt" height="80pt" viewBox="0 0 140 80" version="1.1" xmlns="http://www.w3.org/2000/svg">
<g id="#0178d0ff">
<path fill="#0178d0" opacity="1.00" d=" M 18.40 12.03 C 31.04 7.64 44.31 5.29 57.19 1.68 C 64.58 -0.85 72.40 0.88 80.01 0.73 C 85.26 1.18 91.11 0.15 95.73 3.25 C 103.56 7.97 111.47 12.55 119.31 17.24 C 118.83 17.55 117.88 18.16 117.40 18.46 C 117.46 23.67 117.50 28.88 117.51 34.09 C 111.51 34.58 105.48 34.74 99.52 35.62 C 99.47 29.85 99.55 24.07 99.40 18.30 L 99.51 17.47 C 99.47 17.00 99.40 16.07 99.37 15.60 L 98.49 15.44 C 97.91 15.35 96.73 15.17 96.15 15.08 C 95.26 14.95 93.50 14.70 92.62 14.58 L 92.58 14.57 C 90.93 14.33 89.27 14.10 87.62 13.87 C 87.37 13.83 86.88 13.77 86.63 13.74 C 78.99 12.65 71.35 11.57 63.71 10.49 L 63.23 10.42 C 61.87 10.62 60.53 10.84 59.18 11.09 C 55.62 11.58 52.03 11.97 48.50 12.67 C 45.74 13.24 42.97 13.69 40.20 14.19 C 36.78 14.61 33.37 15.06 29.96 15.51 C 30.08 17.62 30.11 19.72 30.13 21.82 C 31.17 21.72 32.20 21.61 33.24 21.50 C 35.08 21.29 36.91 20.98 38.73 20.65 C 38.67 21.52 38.55 23.28 38.49 24.15 C 36.23 24.00 33.97 24.15 31.71 24.32 C 31.74 28.08 31.75 31.85 31.80 35.61 C 28.63 35.45 25.47 35.18 22.33 34.73 C 22.48 27.34 22.17 19.94 22.52 12.55 C 21.10 12.69 19.73 12.52 18.40 12.03 Z" />
<path fill="#0178d0" opacity="1.00" d=" M 53.17 19.68 C 55.76 19.42 58.35 19.22 60.92 18.84 C 61.46 18.93 62.53 19.12 63.06 19.22 C 63.61 25.69 63.29 32.20 63.28 38.69 C 61.24 38.48 59.20 38.27 57.17 38.06 C 57.54 32.94 57.24 27.80 57.44 22.68 C 54.93 22.87 52.42 23.08 49.90 23.27 C 49.75 22.51 49.44 20.99 49.29 20.22 C 50.26 20.09 52.20 19.81 53.17 19.68 Z" />
<path fill="#0178d0" opacity="1.00" d=" M 63.35 18.69 C 64.29 18.76 66.18 18.90 67.12 18.97 C 68.46 19.13 69.80 19.27 71.14 19.38 L 72.12 19.45 C 72.78 19.49 74.12 19.56 74.78 19.59 C 75.48 19.64 76.87 19.75 77.57 19.81 C 77.54 20.58 77.48 22.14 77.45 22.91 C 75.59 22.87 73.75 22.82 71.90 22.77 C 72.41 27.77 72.10 32.81 72.14 37.83 C 69.29 38.09 66.45 38.37 63.61 38.69 C 63.67 32.02 63.98 25.34 63.35 18.69 Z" />
<path fill="#0178d0" opacity="1.00" d=" M 77.92 20.05 C 82.78 20.33 87.66 20.59 92.49 21.23 L 93.32 21.40 C 93.98 21.33 95.30 21.20 95.96 21.14 L 96.52 20.80 C 96.43 25.91 96.72 31.02 96.35 36.12 C 95.20 36.00 94.05 35.91 92.90 35.82 C 93.17 31.80 93.20 27.77 93.23 23.74 L 92.63 23.87 C 91.15 23.86 89.66 23.83 88.18 23.77 C 84.68 23.62 81.20 23.23 77.72 22.86 C 77.77 22.16 77.87 20.75 77.92 20.05 Z" />
<path fill="#0178d0" opacity="1.00" d=" M 39.27 20.93 C 42.34 20.70 45.39 20.36 48.46 20.22 C 48.80 21.00 49.47 22.56 49.81 23.34 C 48.13 23.36 46.45 23.38 44.77 23.38 C 44.57 23.39 44.16 23.41 43.96 23.41 C 42.76 23.53 40.36 23.75 39.17 23.86 C 39.19 23.13 39.25 21.66 39.27 20.93 Z" />
<path fill="#0178d0" opacity="1.00" d=" M 73.00 38.56 C 92.33 36.71 111.72 35.39 131.07 33.63 C 134.05 33.28 137.03 33.57 140.00 33.87 L 140.00 80.00 L 0.00 80.00 L 0.00 34.65 C 9.99 34.36 19.91 35.77 29.83 36.70 C 38.81 37.62 47.80 38.41 56.79 39.25 C 62.20 39.90 67.62 39.05 73.00 38.56 M 33.73 51.74 C 28.98 55.28 28.62 62.65 31.52 67.48 C 34.62 71.84 40.74 71.53 45.28 69.97 C 45.27 68.63 45.27 67.28 45.27 65.94 C 42.95 66.53 40.54 67.44 38.13 66.85 C 33.72 65.48 33.44 59.10 35.78 55.82 C 37.93 52.83 41.89 54.12 44.68 55.32 C 45.14 54.02 45.60 52.72 46.06 51.42 C 42.14 49.81 37.40 49.15 33.73 51.74 M 47.01 50.01 C 49.61 55.00 51.88 60.15 54.49 65.12 C 53.15 67.66 50.20 67.08 47.89 66.54 C 48.23 67.97 47.36 70.10 49.01 70.93 C 52.45 71.47 56.65 70.73 58.48 67.41 C 61.53 61.77 63.77 55.74 66.62 50.00 C 65.04 50.00 63.47 50.00 61.90 50.00 C 60.32 53.90 58.72 57.79 57.14 61.69 C 55.36 57.80 53.60 53.89 51.79 50.01 C 50.20 50.01 48.60 50.01 47.01 50.01 M 85.17 50.01 C 82.86 51.81 80.54 53.62 78.24 55.44 C 78.98 56.34 79.72 57.25 80.45 58.17 C 81.83 57.06 83.21 55.96 84.57 54.84 C 84.24 60.21 84.46 65.60 84.39 70.98 C 85.88 70.99 87.37 71.00 88.87 71.00 C 88.87 64.00 88.86 57.00 88.87 50.00 C 87.63 50.00 86.40 50.00 85.17 50.01 M 98.21 63.67 C 100.83 64.79 103.45 63.43 105.62 62.02 C 105.00 63.80 104.79 66.08 102.90 67.03 C 100.83 68.35 98.31 67.95 95.99 67.93 C 96.00 68.71 96.00 70.26 96.00 71.03 C 99.38 71.02 103.17 71.24 105.94 68.93 C 109.62 65.88 109.92 60.49 109.23 56.10 C 108.61 51.48 103.29 48.80 99.06 50.34 C 93.34 51.90 92.68 61.49 98.21 63.67 M 67.42 61.00 C 67.41 61.87 67.39 63.62 67.38 64.49 C 70.01 64.47 72.64 64.46 75.27 64.46 C 75.27 63.60 75.27 61.87 75.27 61.00 C 72.65 61.00 70.03 61.00 67.42 61.00 Z" />
<path fill="#0178d0" opacity="1.00" d=" M 100.27 54.36 C 103.51 52.27 106.87 57.84 104.11 60.05 C 102.79 61.76 99.39 61.30 98.96 59.02 C 98.69 57.45 98.69 55.23 100.27 54.36 Z" />
</g>
<g id="#001d333f">
</g>
<g id="#ffffffff">
<path fill="#ffffff" opacity="1.00" d=" M 33.73 51.74 C 37.40 49.15 42.14 49.81 46.06 51.42 C 45.60 52.72 45.14 54.02 44.68 55.32 C 41.89 54.12 37.93 52.83 35.78 55.82 C 33.44 59.10 33.72 65.48 38.13 66.85 C 40.54 67.44 42.95 66.53 45.27 65.94 C 45.27 67.28 45.27 68.63 45.28 69.97 C 40.74 71.53 34.62 71.84 31.52 67.48 C 28.62 62.65 28.98 55.28 33.73 51.74 Z" />
<path fill="#ffffff" opacity="1.00" d=" M 47.01 50.01 C 48.60 50.01 50.20 50.01 51.79 50.01 C 53.60 53.89 55.36 57.80 57.14 61.69 C 58.72 57.79 60.32 53.90 61.90 50.00 C 63.47 50.00 65.04 50.00 66.62 50.00 C 63.77 55.74 61.53 61.77 58.48 67.41 C 56.65 70.73 52.45 71.47 49.01 70.93 C 47.36 70.10 48.23 67.97 47.89 66.54 C 50.20 67.08 53.15 67.66 54.49 65.12 C 51.88 60.15 49.61 55.00 47.01 50.01 Z" />
<path fill="#ffffff" opacity="1.00" d=" M 85.17 50.01 C 86.40 50.00 87.63 50.00 88.87 50.00 C 88.86 57.00 88.87 64.00 88.87 71.00 C 87.37 71.00 85.88 70.99 84.39 70.98 C 84.46 65.60 84.24 60.21 84.57 54.84 C 83.21 55.96 81.83 57.06 80.45 58.17 C 79.72 57.25 78.98 56.34 78.24 55.44 C 80.54 53.62 82.86 51.81 85.17 50.01 Z" />
<path fill="#ffffff" opacity="1.00" d=" M 98.21 63.67 C 92.68 61.49 93.34 51.90 99.06 50.34 C 103.29 48.80 108.61 51.48 109.23 56.10 C 109.92 60.49 109.62 65.88 105.94 68.93 C 103.17 71.24 99.38 71.02 96.00 71.03 C 96.00 70.26 96.00 68.71 95.99 67.93 C 98.31 67.95 100.83 68.35 102.90 67.03 C 104.79 66.08 105.00 63.80 105.62 62.02 C 103.45 63.43 100.83 64.79 98.21 63.67 M 100.27 54.36 C 98.69 55.23 98.69 57.45 98.96 59.02 C 99.39 61.30 102.79 61.76 104.11 60.05 C 106.87 57.84 103.51 52.27 100.27 54.36 Z" />
<path fill="#ffffff" opacity="1.00" d=" M 67.42 61.00 C 70.03 61.00 72.65 61.00 75.27 61.00 C 75.27 61.87 75.27 63.60 75.27 64.46 C 72.64 64.46 70.01 64.47 67.38 64.49 C 67.39 63.62 67.41 61.87 67.42 61.00 Z" />
</g>
</svg>
