<?xml version="1.0" encoding="utf-8"?>
<!-- Generator: Adobe Illustrator 26.4.1, SVG Export Plug-In . SVG Version: 6.00 Build 0)  -->
<svg version="1.1" id="Слой_1" xmlns="http://www.w3.org/2000/svg" xmlns:xlink="http://www.w3.org/1999/xlink" x="0px" y="0px"
	 viewBox="0 0 41.8 41.2" style="enable-background:new 0 0 41.8 41.2;" xml:space="preserve">
<style type="text/css">
	.st0{fill:#EFE4D3;}
	.st1{fill:#FD8064;}
	.st2{fill:#DFCCAE;}
	.st3{fill:#F0A79C;}
	.st4{fill:#CCA574;}
	.st5{fill:#B79065;}
	.st6{fill:#E04E39;}
</style>
<path class="st0" d="M20.4,14.2l-0.5-0.1h-0.1L19.4,14h-0.1c-0.2,0-0.3,0-0.5-0.1h-1.7c-0.1,0-0.3,0.1-0.4,0.1l-0.3,0.1h-0.1
	l-0.4,0.1h-0.1l-0.4,0.4h-0.1l-0.4,0.2l-0.1,0.1L14.7,15l2,1h0.2l3.7-1.7C20.6,14.3,20.4,14.2,20.4,14.2z M15.4,19.4v0.9l0.1,0.1
	c0.2,0.2,0.4,0.3,0.7,0.3c0.3,0,0.2,0,0.3-0.2v-0.2l-0.1-0.1c-0.3-0.4-0.3-0.9,0-1.3c0.2-0.4,0.6-0.4,0.9-0.1c0.3,0.4,0.3,1.2,0,1.5
	c-0.1,0-0.1,0.1-0.1,0.2v0.1c0,0.1,0,0.1,0.1,0.1h0.6l0.4-0.4c0.1-0.1,0.1-0.1,0.1-0.2v-3.5l-1.5,0.9l-1.5-0.9v1.2
	C15.4,18.2,15.5,18.8,15.4,19.4z M33.9,17.2c0.1,2.5-1.1,5.9-1.4,6.8c-0.4,0.9-0.6,1.8-0.4,2.1c0.2,0.2,0.8,1,3.1-1s4.7-6,4.6-12
	c-0.1-5.4-3.1-11.6-3.7-12.7L36,0.2c0.1,0.5-0.6,3.2-0.4,3.4c2,2.3,1.7,6.9,1.3,9.2c-0.4,3-1.8,5-2.2,4.9c-0.3-0.1-0.7-1.5-0.7-1.5
	c-0.1,1.1-1.2,3.3-1.9,4c-0.7,0.6-1.5,1.4-2.6,0.9c-1.2-0.5-1.2-3.8-1.8-5.7c-0.6,0.5-1.4,1-3.1,0.3c-0.6-0.3-1-0.4-1.9-0.8
	l-0.2-0.1c-0.1,0-0.2-0.1-0.4-0.1l-0.5-0.2l-2.5,1.6c-0.1,0-0.1,0.1-0.1,0.2l0.2,4.6c0,0.1,0,0.2-0.1,0.2l-1,1.7V23
	c0,0.7,0,1.3,0.2,1.9v2.5l0.5,0.5c0.5-0.5,2.8-0.1,4.7-0.3c1.9-0.1,3.7-0.7,5.4-1.7c2.2-1.2,3.6-3.8,4.3-5.1
	C33.7,19.5,34,17.2,33.9,17.2 M14.6,16.7c0.1-0.1,0.1-0.3,0.1-0.4s0-0.2-0.1-0.2l-0.9-0.5l-0.4,0.3L13.2,16
	c-0.2,0.1-0.3,0.3-0.4,0.4C12.8,16.4,14,16.1,14.6,16.7z"/>
<path class="st1" d="M15.9,4.9c3.8,0.4,4.8,1.7,4.7,2.2c0,0.5-0.6,0.7-0.9,0.7c-0.6,0.1-1.3,0.3-2.2,0.6c1.2,0,2.4,0.2,3.5,0.6
	c1.9,0.6,2.8,1.4,3.5,2c1.3,1.2,2.3,2.7,2.9,4.3c0.6-0.5,1-2.1,0.3-4.2s-4.2-7.1-11.2-7c-6.7,0.1-10.9,4-11,4.2
	C7.7,6.4,12.1,4.6,15.9,4.9z"/>
<path class="st0" d="M24.7,11c-0.8-0.6-1.6-1.4-3.5-2c-1.2-0.4-2.4-0.6-3.6-0.6c2.3,0.3,4.8,2,5.4,3.6c0.1,0.3,0.2,0.6,0.2,0.9
	l0.9-0.4c0.1,0,0.1-0.1,0.1-0.2v-1.4L24.7,11l-0.1,1.4c0,0.1,0,0.2-0.1,0.2l-1.3,0.8c-0.1,0.5-0.3,1-0.7,1.4h0.1
	c0.7,0.3,1.4,0.6,1.9,0.8c1.7,0.7,2.6,0.2,3.1-0.3C27,13.7,26,12.2,24.7,11z"/>
<path class="st2" d="M34.9,33.4c-0.3-0.5,1-1.9,2-3.2c1.5-2,2.8-4.3,3.6-6.6c0.7-2,1.1-4.2,1.3-6.3c0.1-1.6-0.2-4.3-0.6-6.2
	c-0.4-1.9-2.1-6-2.7-6.9c-0.5-1-2.5-3.8-2.6-3.9c0,0.1,1.2,2.2,1.7,3.2s1.6,4,1.9,4.9c0.4,1.7,0.7,3.4,0.9,5.2c0.1,1.5,0,3-0.3,4.5
	c-0.3,1.8-0.9,3.6-1.7,5.2c-1.2,2.4-4,5.4-6.5,6.8s-5.1,1.8-8.3,1.3s-5-3.2-5-3.2c0.5-0.5,2.8-0.1,4.7-0.3c1.9-0.1,3.7-0.7,5.4-1.7
	c2.2-1.2,3.6-3.8,4.3-5.1c0.7-1.4,0.9-3.5,0.9-3.6c0,0-0.2,2.3-0.9,3.6c-0.7,1.4-2.2,3.9-4.3,5.1c-2.2,1.2-3.5,1.5-5.4,1.7
	s-4.1-0.2-4.7,0.3l-0.5-0.5c0,0.5-0.1,1-0.1,1.5l-0.3,2.5c0,0.3-0.1,0.7-0.1,1c0,0.1,0,0.1,0.1,0.2c0.2,0.2,0.4,0.3,0.4,0.5
	c0.1,0.2,0,0.4,0,0.7V35h1.5c0.1,0,0.1,0,0.2,0.1l0.9,2v0.1c1.2,0.4,2.6,0.6,4.1,0.6c2.6,0,5.2-0.4,6.6-0.9c0.5-0.2,1.1-0.4,1.6-0.6
	l0.4-0.1l0.3-0.1l0.2-0.1l0.3-0.2h0.1l0.4-0.2h0.1l0.4-0.2h0.1l0.4-0.2h0.1l0.4-0.3h0.1l0.4-0.3l0.1-0.1c0.1-0.1,0.3-0.2,0.4-0.3
	l0.1-0.1l0.4-0.3l0.2-0.1l0.4-0.3l0.2-0.1l0.5-0.7l0.2-0.1v-0.1c-1,0.6-2.1,1-3.3,1.1h-0.7C35.1,33.5,35,33.5,34.9,33.4L34.9,33.4z
	 M12.7,16.4l-0.3,0.3l-0.1,0.1L12.1,17L12,17.2l-0.2,0.2l-0.2,0.2c0,0.1-0.1,0.2-0.2,0.2L11.3,18l-0.2,0.3L11,18.5l-0.2,0.3L10.7,19
	l-0.1,0.3l-0.1,0.3l-0.1,0.3l-0.1,0.3l-0.1,0.3l-0.1,0.1L10,20.9c0,0.1-0.1,0.2-0.1,0.3l-0.1,0.5v3.7c0.6,4.1,2.9,6.9,5.5,8.8v-0.7
	c0-0.2,0.1-0.4,0.2-0.6c0.1-0.1,0.1-0.2,0.2-0.2c0.1-0.1,0.1-0.2,0.1-0.3c-0.2-1.3-0.3-2.6-0.5-3.9c-0.1-0.8,0-1.7-0.1-2.5
	c0-0.6,0-1.2,0.2-1.8v-0.5c0.1-0.5-0.1-1-0.4-1.4c-0.3-0.4-0.5-0.8-0.7-1.2v-0.2l0.1-4.1l-0.1-0.1C14,16.1,12.8,16.4,12.7,16.4z
	 M15.2,19.8c0,0.2,0.1,0.4,0.2,0.5v-0.9c0.1-0.6,0-1.2-0.2-1.7V19.8z"/>
<path class="st0" d="M26.3,31.4c-0.8,0-1.7-0.1-2.5-0.2c-1.4-0.3-2.7-0.9-3.7-1.8c-0.5-0.4-0.9-0.9-1.3-1.4c0.2-0.2,0.8-0.3,1.4-0.3
	h3.3c1.9-0.2,3.2-0.5,5.4-1.7c2-1.1,3.5-3.4,4.3-5.1c0.4-0.8,0.6-1.8,0.8-2.5c0.1-0.5,0.1-0.9,0.2-1.1c0.1,2.4-1,5.7-1.5,6.8
	c-0.4,1-0.6,1.9-0.4,2.1c0.2,0.2,0.4,0.3,0.7,0.3c0.6,0,1.4-0.4,2.4-1.3c1.1-1,4.7-4.6,4.6-12c-0.1-5.4-3.1-11.6-3.7-12.7
	c0-0.1-0.1-0.1-0.1-0.2c0,0,1.2,2.2,1.7,3.2c0.5,0.9,1.6,4,1.9,4.9c0.4,1.7,0.7,3.4,0.9,5.2c0.1,1.5,0,3-0.3,4.5
	c-0.3,1.8-0.9,3.5-1.7,5.2C38,24.7,37,25.9,36,27.1c-1.1,1.2-2.4,2.2-3.7,3C30.2,30.9,28.3,31.4,26.3,31.4z"/>
<path class="st0" d="M39.8,13.1c0.1,6-2.3,10-4.6,12s-2.9,1.2-3.1,1c-0.2-0.2,0-1.2,0.4-2.1s1.5-4.3,1.5-6.8c0,0.1-0.1,0.6-0.2,1.1
	c-0.1,0.8-0.4,1.8-0.8,2.5c-0.7,1.4-2.2,3.9-4.3,5.1c-2.2,1.2-3.5,1.5-5.4,1.7s-4.1-0.2-4.7,0.3c0,0,1.8,2.7,5,3.2s5.8,0.1,8.3-1.3
	c2.7-1.6,5-4,6.5-6.8c0.8-1.7,1.4-3.4,1.7-5.2c0.3-1.5,0.4-3,0.3-4.5c-0.1-1.8-0.4-3.5-0.9-5.2s-1.2-3.3-1.9-4.9
	c-0.5-0.9-1.7-3.1-1.7-3.2L36,0.2C36.7,1.5,39.7,7.7,39.8,13.1z"/>
<path class="st3" d="M8.4,28.1c-1.3-4.9,0.3-7.4,0.5-8.1c0.1-0.3,0.3-0.5,0.4-0.8c0.6-1,1.8-2.6,3.4-2.8l0.4-0.4l0.1-0.1
	c0.2-0.1,0.3-0.2,0.5-0.3c-1.3-0.8-2.6-1.6-4-2.5l-0.1,0.1c-1.8,2-3,4.5-3.4,7.1l-0.1,0.5L6,21.3c0,1.1,0,2.3,0.1,3.4
	c0.5,4.9,3.5,9.4,6.7,11.8l0.3-0.7C10.8,33.8,9.2,31.1,8.4,28.1z M20.8,40.6c0.8,0.2,3.1,0.5,3.5,0.5c-1.2-0.3-2.4-0.6-3.5-1V40.6z
	 M22,14.7l0.4,0.2h0.1c0.4-0.4,0.6-0.9,0.7-1.4l-1.7,1.1C21.6,14.6,21.8,14.6,22,14.7z M10,12.8l4.6,2.2l0.1-0.1l0.1-0.1l0.4-0.2
	h0.1l0.4-0.2h0.1l0.4-0.1h0.1l0.3-0.1c0.1,0,0.3-0.1,0.4-0.1h1.7l0.5,0.1h0.1l0.4,0.1h0.1c0.2,0,0.3,0.1,0.5,0.1h0.2l2.6-1.2
	c0-0.3-0.1-0.6-0.2-0.9c-0.6-1.7-3.1-3.4-5.4-3.6c-1,0.3-2.1,0.6-3.1,1.1h-0.1L13.9,10l-0.4,0.2C12.3,10.7,11.1,11.7,10,12.8z"/>
<path class="st4" d="M38.6,32.9l-0.2,0.2c-0.1,0.1-0.3,0.2-0.4,0.3l-0.2,0.1l-0.4,0.3l-0.1,0.1c-0.1,0.1-0.3,0.2-0.4,0.3l-0.1,0.1
	l-0.4,0.3h-0.1l-0.4,0.2h-0.1L35.4,35h-0.1l-0.4,0.2h-0.1c-0.1,0.1-0.2,0.1-0.4,0.2h-0.1L34,35.7l-0.2,0.1l-0.2,0.1l-0.4,0.2
	l-0.4,0.2l-0.4,0.2l-0.8,0.3c-0.4,0.1-0.8,0.3-1.2,0.4c-1.1,0.3-2.3,0.4-3.4,0.5h-2c-1.4,0-2.8-0.2-4.2-0.6v3.1
	c1.2,0.4,2.3,0.7,3.5,1c-0.1-0.1-0.3-0.4-0.2-0.7c0.1-0.2,0.4-0.4,0.9-0.6c0.5-0.2,1.6-0.5,3.8-1.1c2.3-0.7,5.1-2.2,6.9-3.4
	c1.2-0.8,2.4-1.8,3.4-2.8H39C38.9,32.7,38.7,32.8,38.6,32.9z M13.8,34.7h1.5v-0.6c-0.9-0.7-1.7-1.4-2.4-2.2
	c-1.7-1.8-2.7-4.1-3.1-6.6v-3.5l0.1-0.5L10,21l0.1-0.3l0.1-0.3l0.1-0.3l0.1-0.3l0.1-0.3l0.1-0.2c0-0.1,0.1-0.2,0.1-0.2l0.1-0.2
	c0.1-0.2,0.2-0.4,0.3-0.5l0.2-0.3l0.1-0.2l0.2-0.2c0.1-0.1,0.1-0.1,0.1-0.2s0.1-0.1,0.2-0.2l0.1-0.2l0.2-0.2l0.1-0.1l0.2-0.2
	l0.1-0.1c-1.6,0.3-2.7,1.8-3.4,2.8c-0.1,0.3-0.3,0.5-0.4,0.8c-0.3,0.7-1.8,3.2-0.5,8c0.8,3,2.4,5.7,4.8,7.7l0.5-1
	C13.7,34.8,13.7,34.7,13.8,34.7z"/>
<path class="st5" d="M37.8,33.5l-0.4,0.3L37.8,33.5z M38.4,33.1c-0.1,0.1-0.3,0.2-0.4,0.3L38.4,33.1z M36.2,34.5l0.4-0.3L36.2,34.5z
	 M37.9,33.4l-0.2,0.1L37.9,33.4z M39,32.6l0.2-0.1L39,32.6z M38.6,32.9L38.4,33L38.6,32.9z M38.4,33.1L38,33.4L38.4,33.1z M39,32.6
	l-0.4,0.3C38.7,32.8,38.9,32.7,39,32.6z M37.8,33.5l-0.4,0.3L37.8,33.5z"/>
<path class="st6" d="M6.1,24.7c-0.1-1.1-0.1-2.3,0-3.4c0-0.2,0-0.3,0.1-0.5c0-0.2,0-0.3,0.1-0.5c0.4-2.7,1.6-5.2,3.4-7.1l0.1-0.1
	l-0.6-0.4c-0.2-0.1-0.3-0.2-0.3-0.4V11h0.4v1.4c0,0.1,0,0.1,0.1,0.2l0.6,0.3c1.2-1.2,2.5-2.3,4-3.1l0.4-0.2h0.1
	c1.6-0.7,3.9-1.3,5.2-1.6c0.3-0.2,0.9-0.4,1-0.9c0-0.5-0.9-1.8-4.7-2.2C12.1,4.5,7.7,6.5,5.5,8.3C3.2,10.1,0.2,15.6,0,21.5
	s2.3,11.2,2.3,11.2s-1-7.6,0.9-9.5c0.4-0.4,1.1,1.3,1.4,2.1C4.9,26,5.8,28.8,7,30.7c1.6,2.6,4.2,5.2,5.7,6.2l0.2-0.4
	C9.6,34.1,6.6,29.5,6.1,24.7z"/>
</svg>
