<?xml version="1.0" encoding="utf-8"?>
<!-- Generator: Adobe Illustrator 26.4.1, SVG Export Plug-In . SVG Version: 6.00 Build 0)  -->
<svg version="1.1" id="Слой_1" xmlns="http://www.w3.org/2000/svg" xmlns:xlink="http://www.w3.org/1999/xlink" x="0px" y="0px"
	 viewBox="0 0 40.544445 40.2000008" style="enable-background:new 0 0 40.544445 40.2000008;" xml:space="preserve">
<style type="text/css">
	.st0{fill:#F8540D;}
	.st1{fill:#0B2874;}
</style>
<path class="st0" d="M26.5,20.2000008h-10v9.9000015h5v-5h5V20.2000008z M16.5,18.1000004h10l5.3999996-4.8999996H16.5V18.1000004z"
	/>
<path class="st1" d="M40.5,13.2000008h-5.2000008l-4.9999981,4.8999996h4.5999966
	c0.0999985,0.7000008,0.2000008,1.2999992,0.2000008,2C35.0999985,28.2999992,28.3999996,35,20.2000008,35
	S5.2999997,28.2999992,5.2999997,20.1000004S11.9000006,5.2000003,20.1000004,5.2000003c3.2000008,0,6.1000004,1,8.5,2.6999998
	L33.5,5.0999999C29.9000015,1.9000001,25.3000011,0,20.1000023,0C9,0.0000002,0,9,0,20.1000004s9,20.1000004,20.1000004,20.1000004
	S40.5,31.2000008,40.5,20.1000004c0-0.7000008,0.0999985-1.2999992,0-2V13.2000008z"/>
</svg>
