<?xml version="1.0" encoding="utf-8"?>
<!-- Generator: Adobe Illustrator 26.4.1, SVG Export Plug-In . SVG Version: 6.00 Build 0)  -->
<svg version="1.1" id="Группа_2_копия_9_1_"
	 xmlns="http://www.w3.org/2000/svg" xmlns:xlink="http://www.w3.org/1999/xlink" x="0px" y="0px"
	 viewBox="0 0 105.5999985 105.8000031" style="enable-background:new 0 0 105.5999985 105.8000031;" xml:space="preserve">
<style type="text/css">
	.st0{fill-rule:evenodd;clip-rule:evenodd;fill:#5BAA00;}
	.st1{fill:#FFFFFF;}
</style>
<ellipse id="Фигура_4" class="st0" cx="52.7999992" cy="52.9000015" rx="52.7999992" ry="52.9000015"/>
<path id="_x31_00_пансионатов.ру" class="st1" d="M7.0999999,44.0999985
	c-0.1999998-0.2999992-0.3000002-0.5-0.3000002-0.7999992c0-0.4000015,0.3000002-0.9000015,0.8000002-1.2999992l5.5999999-4.9000015
	C14,36.3999977,15.0999994,36,16.6000004,36H20c0.6000004,0,1.2000008,0.2000008,1.6000004,0.5999985
	C22,37,22.2000008,37.5,22.2000008,38.0999985v28.7999954c0,0.5999985-0.2000008,1.0999985-0.7000008,1.5
	c-0.3999996,0.4000015-1,0.5999985-1.6000004,0.5999985h-4.3000002c-0.6000004,0-1.1000004-0.1999969-1.5-0.5999985
	s-0.6000004-0.9000015-0.6000004-1.5V44.7000008l-2.6999998,1.9000015
	c-0.3000002,0.2000008-0.6999998,0.2999992-1.1000004,0.2000008s-0.6999998-0.2999992-1-0.5
	C8.6999989,46.3000031,7.099999,44.1000023,7.0999999,44.0999985z M27.3000011,60.5999985
	c-0.8999996-2.2000008-1.2999992-4.9000015-1.2999992-8s0.3999996-5.7999992,1.2999992-8s2.1000004-4,3.6000004-5.2000008
	c1.5999985-1.2000008,3.2999992-2.2000008,5.2000008-2.7000008c1.9000015-0.5999985,4.0999985-0.9000015,6.5-0.9000015h1.5999985
	c2.4000015,0,4.5999985,0.2999992,6.5,0.9000015c1.9000015,0.5999985,3.7000008,1.5,5.2000008,2.7000008
	c1.5999985,1.2000008,2.7999992,3,3.5999985,5.2000008c0.9000015,2.2000008,1.2999992,4.9000015,1.2999992,8
	s-0.4000015,5.7999992-1.2999992,8s-2.0999985,4-3.5999985,5.1999969c-1.5999985,1.1999969-3.2999992,2.1999969-5.2000008,2.6999969
	c-1.9000015,0.5999985-4.0999985,0.9000015-6.5,0.9000015h-1.5999985c-2.4000015,0-4.5999985-0.3000031-6.5-0.9000015
	s-3.7000008-1.5-5.2000008-2.6999969C29.3000011,64.5999985,28.1000023,62.8999939,27.3000011,60.5999985z M43.4000015,42.3999977
	c-5.7999992,0-8.7000008,3.4000015-8.7000008,10.2000008s2.9000015,10.2000008,8.7000008,10.2000008
	s8.7000008-3.4000015,8.7000008-10.2000008S49.2000008,42.3999977,43.4000015,42.3999977z M64.9000015,60.5999985
	c-0.9000015-2.2000008-1.2999992-4.9000015-1.2999992-8s0.3999977-5.7999992,1.2999992-8S67,40.5999985,68.5,39.3999977
	c1.5999985-1.2000008,3.3000031-2.2000008,5.1999969-2.7000008c1.9000015-0.5999985,4.0999985-0.9000015,6.5-0.9000015h1.5999985
	c2.4000015,0,4.5999985,0.2999992,6.5,0.9000015c1.9000015,0.5999985,3.6999969,1.5,5.1999969,2.7000008
	c1.5999985,1.2000008,2.8000031,3,3.5999985,5.2000008c0.9000015,2.2000008,1.3000031,4.9000015,1.3000031,8
	s-0.4000015,5.7999992-1.3000031,8s-2.0999985,4-3.5999985,5.1999969c-1.5999985,1.1999969-3.3000031,2.1999969-5.1999969,2.6999969
	c-1.9000015,0.5999985-4.0999985,0.9000015-6.5,0.9000015h-1.5999985c-2.4000015,0-4.5999985-0.3000031-6.5-0.9000015
	S70,66.9999924,68.5,65.7999954S65.8000031,62.8999939,64.9000015,60.5999985z M81.1000061,42.3999977
	c-5.8000031,0-8.6999969,3.4000015-8.6999969,10.2000008s2.9000015,10.2000008,8.6999969,10.2000008
	c5.8000031,0,8.6999969-3.4000015,8.6999969-10.2000008S86.9000015,42.3999977,81.1000061,42.3999977z"/>
</svg>
