<?xml version="1.0" encoding="utf-8"?>
<!-- Generator: Adobe Illustrator 26.4.1, SVG Export Plug-In . SVG Version: 6.00 Build 0)  -->
<svg version="1.1" id="Слой_1" xmlns="http://www.w3.org/2000/svg" xmlns:xlink="http://www.w3.org/1999/xlink" x="0px" y="0px"
	 viewBox="0 0 45.0205994 45.0211983" style="enable-background:new 0 0 45.0205994 45.0211983;" xml:space="preserve">
<style type="text/css">
	.st0{fill:#871721;}
</style>
<g>
	<path class="st0" d="M0,10.0636997V5.8269h4.7199702v4.2374997L0,10.0636997z"/>
	<path class="st0" d="M0,15.8898001v-4.2375002h5.9544501l-2.50265,4.2375002H0z"/>
	<path class="st0" d="M0,21.7157993v-4.2367992h2.5134001l-2.5019252,4.2367992H0z"/>
	<path class="st0" d="M9.3957701,5.8269l-2.5026503,4.2374997h-0.58355V5.8269H9.3957701z"/>
	<path class="st0" d="M10.3339005,4.2375002H0V0.0000002h12.1353998v1.18644L10.3339005,4.2375002z"/>
	<path class="st0" d="M15.9350996,15.8898001l2.7384996-4.2375002h7.7631016v4.2375002H15.9350996z"/>
	<path class="st0" d="M12.4511003,21.7157993l-0.1391001-0.2214985l2.5950994-4.0146008h4.1134996v4.2367992L12.4511003,21.7157993z
		"/>
	<path class="st0" d="M16.1133003,27.5419998l-2.3887005-3.7994995v-0.4358997h12.7117996v4.2367992L16.1133003,27.5419998z"/>
	<path class="st0" d="M4.0195699,29.1313l0.7004004,1.1958008v3.0409985H0V29.1313H4.0195699z"/>
	<path class="st0" d="M0.60648,23.3052006l2.4825802,4.2367992H0v-4.2367992H0.60648z"/>
	<path class="st0" d="M0,39.1949997v-4.2374992h7.4326601l2.4818602,4.2374992H0z"/>
	<path class="st0" d="M0,45.0211983h4.7199702V40.783699H0V45.0211983z"/>
	<path class="st0" d="M6.3095698,45.0211983h7.0197301l-2.4826002-4.2374992H6.3095698V45.0211983z"/>
	<path class="st0" d="M6.5009499,33.3680992H6.3081102v-0.3289986L6.5009499,33.3680992z"/>
	<path class="st0" d="M19.0209007,32.1688004L17.1117992,29.1313h1.9091015V32.1688004z"/>
	<path class="st0" d="M23.4361992,39.1949997l-2.6632996-4.2374992h5.6634007v4.2374992H23.4361992z"/>
	<path class="st0" d="M27.0976009,45.0211983l-2.6625004-4.2374992h8.8893013v4.2374992H27.0976009z"/>
	<path class="st0" d="M34.9105988,45.0211983h10.1081009V40.783699H34.9105988V45.0211983z"/>
	<path class="st0" d="M45.0205994,34.9575005v4.2374992h-2.6417007v-4.2374992H45.0205994z"/>
	<path class="st0" d="M45.0201988,29.1313v4.2367992H34.9121017V29.1313H45.0201988z"/>
	<path class="st0" d="M45.0205994,23.3052006v4.2367992h-2.6417007v-4.2367992H45.0205994z"/>
	<path class="st0" d="M45.0201988,17.4790001v4.2367992H34.9121017v-4.2367992H45.0201988z"/>
	<path class="st0" d="M45.0205994,11.6522999v4.2375002h-2.6417007v-4.2375002H45.0205994z"/>
	<path class="st0" d="M45.0201988,5.8269v4.2374997H34.9121017V5.8269H45.0201988z"/>
	<path class="st0" d="M45.0205994,0h-2.6417007v4.2375002h2.6417007V0z"/>
	<path class="st0" d="M40.7372017,0H28.0254002v4.2375002h12.7118015V0z"/>
	<path class="st0" d="M26.4365997,0h-0.2322998l-2.7385006,4.2375002h2.9708004V0z"/>
	<path class="st0" d="M22.4393997,5.8269H33.321701v4.2374997H20.6098995V8.6571703L22.4393997,5.8269z"/>
	<path class="st0" d="M33.321701,29.1313H20.6098995v4.2367992H33.321701V29.1313z"/>
	<path class="st0" d="M33.321701,17.4790001H20.6098995v4.2367992H33.321701V17.4790001z"/>
	<path class="st0" d="M40.7372017,23.3052006H28.0254002v4.2367992h12.7118015V23.3052006z"/>
	<path class="st0" d="M40.7372017,11.6522999H28.0254002v4.2375002h12.7118015V11.6522999z"/>
	<path class="st0" d="M40.7372017,34.9575005H28.0254002v4.2374992h12.7118015V34.9575005z"/>
</g>
</svg>
