<?xml version="1.0" encoding="UTF-8" ?>
<!DOCTYPE svg PUBLIC "-//W3C//DTD SVG 1.1//EN" "http://www.w3.org/Graphics/SVG/1.1/DTD/svg11.dtd">
<svg width="76pt" height="34pt" viewBox="0 0 76 34" version="1.1" xmlns="http://www.w3.org/2000/svg">
<g id="#3c5baeff">
<path fill="#3c5bae" opacity="1.00" d=" M 0.00 0.00 L 9.00 0.00 C 9.00 8.67 9.01 17.34 8.99 26.00 C 13.33 25.98 17.67 26.02 22.01 25.99 C 21.97 28.66 22.03 31.33 22.00 34.00 L 0.00 34.00 L 0.00 0.00 Z" />
<path fill="#3c5bae" opacity="1.00" d=" M 23.00 0.00 L 38.96 0.00 C 43.66 0.12 48.61 3.90 47.97 8.98 C 48.00 12.35 45.54 14.91 42.52 15.99 C 49.54 17.04 50.99 26.87 46.37 31.32 C 44.90 32.97 42.71 33.62 40.61 34.00 L 23.00 34.00 C 23.00 22.67 23.00 11.33 23.00 0.00 M 32.00 6.97 C 32.01 8.99 32.01 11.01 32.00 13.03 C 34.54 13.02 38.93 13.64 39.02 9.92 C 38.74 6.36 34.50 7.00 32.00 6.97 M 32.00 20.00 C 32.00 22.33 32.00 24.67 32.00 27.00 C 33.92 26.98 35.90 27.22 37.78 26.70 C 40.08 26.01 40.73 22.71 39.00 21.11 C 37.15 19.31 34.30 20.17 32.00 20.00 Z" />
<path fill="#3c5bae" opacity="1.00" d=" M 50.00 0.00 L 65.97 0.00 C 69.24 0.30 72.69 1.75 74.20 4.84 C 76.34 9.04 74.19 14.73 69.50 15.99 C 73.21 16.66 75.81 19.76 76.00 23.53 L 76.00 26.09 C 75.34 30.28 71.87 33.66 67.60 34.00 L 50.00 34.00 C 50.00 22.67 50.00 11.33 50.00 0.00 M 59.00 6.97 C 59.01 8.99 59.01 11.01 59.00 13.03 C 61.53 13.00 65.84 13.67 66.02 10.01 C 65.83 6.38 61.52 6.98 59.00 6.97 M 59.00 20.00 C 59.00 22.33 59.00 24.67 59.00 27.00 C 60.93 26.98 62.92 27.22 64.81 26.69 C 67.10 25.97 67.73 22.64 65.95 21.06 C 64.10 19.33 61.29 20.17 59.00 20.00 Z" />
</g>
</svg>
