<?xml version="1.0" encoding="utf-8"?>
<!-- Generator: Adobe Illustrator 26.4.1, SVG Export Plug-In . SVG Version: 6.00 Build 0)  -->
<svg version="1.1" id="Layer_1" xmlns="http://www.w3.org/2000/svg" xmlns:xlink="http://www.w3.org/1999/xlink" x="0px" y="0px"
	 viewBox="0 0 512 512" style="enable-background:new 0 0 512 512;" xml:space="preserve">
<style type="text/css">
	.st0{fill:#FE9901;}
	.st1{fill:#ED2601;}
	.st2{fill:#EA8500;}
</style>
<path class="st0" d="M459.4429932,187.8190002L407.6650085,37.3590012V6.6890001c0-3.5780001-3.4140015-6.1680002-6.8599854-5.204
	l-26.8930054,7.52c-2.6700134,0.7460003-5.493988,0.7469997-8.1650085,0.0030003l-30.821991-8.5909996
	c-1.993988-0.556-4.1029968-0.556-6.0979919,0l-30.8290405,8.5929995c-2.6669922,0.743-5.4859924,0.743-8.1530151,0
	l-30.8280029-8.5939999c-1.993988-0.556-4.1029968-0.556-6.0980072,0l-30.8289642,8.5939999
	c-2.6670074,0.743-5.4859924,0.743-8.1529999,0l-30.8280029-8.5939999c-1.9940033-0.556-4.1029968-0.556-6.0980072,0
	L146.1919861,9.007c-2.6719971,0.7449999-5.4980011,0.743-8.1699982-0.0050001L111.1900024,1.488
	c-3.4469986-0.965-6.8619995,1.626-6.8619995,5.204v30.6660023h0.0049973L50.7360001,193.1069946
	c-0.6959991,2.0220032-1.0509987,4.1459961-1.0509987,6.2839966v293.29599c0,10.6659851,8.6469994,19.3120117,19.3120003,19.3120117
	h284.0180054l97.178009-38.9949951c7.321991-2.9389954,12.1199951-10.0339966,12.1199951-17.9240112
	c0,0,0-181.3059998,0-250.1000061C462.3150024,199.1410065,461.3439941,193.3419952,459.4429932,187.8190002z"/>
<path class="st1" d="M104.3339996,37.3590012L50.7360001,193.1069946c-0.6949997,2.0220032-1.0509987,4.1459961-1.0509987,6.2839966
	v293.29599c0,10.6659851,8.6469994,19.3120117,19.3120003,19.3120117h284.0180054V217.8379974
	c0-14.352005,2.3840027-28.6040039,7.053009-42.173996l47.5950012-138.3040009
	C407.6650085,37.3590012,104.3339996,37.3590012,104.3339996,37.3590012z"/>
<path class="st2" d="M459.4429932,187.8190002L407.6650085,37.3590012l-12.5279846,36.4020004l39.9349976,122.7549896
	c1.901001,5.8419952,2.8699951,11.9759979,2.8699951,18.1560059c0,69.2579956,0,246.3190002,0,263.2479858l12.25-4.9150085
	c7.321991-2.9389954,12.1199951-10.0339966,12.1199951-17.9240112c0,0,0-181.3059998,0-250.1000061
	C462.3150024,199.1410065,461.3439941,193.3419952,459.4429932,187.8190002z"/>
</svg>
