<?xml version="1.0" encoding="UTF-8" ?>
<!DOCTYPE svg PUBLIC "-//W3C//DTD SVG 1.1//EN" "http://www.w3.org/Graphics/SVG/1.1/DTD/svg11.dtd">
<svg width="1001pt" height="992pt" viewBox="0 0 1001 992" version="1.1" xmlns="http://www.w3.org/2000/svg">
<g id="#2b2a29ff">
<path fill="#2b2a29" opacity="1.00" d=" M 375.91 14.99 C 473.01 -9.34 577.48 -3.56 671.14 31.86 C 738.84 57.30 800.76 97.91 851.23 149.70 C 893.16 192.61 927.22 243.18 951.20 298.18 C 960.63 300.13 970.13 301.90 979.44 304.41 C 983.09 305.53 987.29 307.33 988.59 311.27 C 989.60 315.22 987.47 319.08 985.34 322.27 C 980.23 329.43 974.47 336.10 968.90 342.89 C 966.30 346.15 963.27 349.11 961.48 352.93 C 970.24 356.29 979.12 359.41 987.68 363.29 C 990.29 364.62 993.79 366.53 993.44 369.99 C 992.76 373.52 990.22 376.27 988.01 378.96 C 976.12 392.46 962.79 404.81 947.80 414.80 C 922.49 431.85 895.03 445.49 866.80 456.95 C 852.38 462.62 837.57 467.84 822.11 469.72 C 811.31 471.02 800.25 467.03 792.48 459.49 C 769.16 437.48 752.44 409.82 734.40 383.60 C 728.87 375.42 723.36 367.22 717.91 358.98 C 717.17 357.78 715.48 355.23 718.13 355.21 C 722.16 355.61 726.47 356.62 729.43 359.60 C 752.18 383.94 777.56 405.70 804.00 425.93 C 816.75 435.97 832.65 442.42 848.99 442.54 C 859.13 442.70 869.51 441.86 879.00 438.05 C 891.55 432.86 903.29 425.47 912.81 415.73 C 922.74 405.64 930.41 393.59 937.38 381.34 C 939.06 378.46 940.44 373.31 936.26 371.90 C 924.06 368.03 911.38 365.91 898.97 362.85 C 896.74 362.24 893.38 361.02 893.96 358.09 C 894.96 355.05 897.64 353.02 899.78 350.78 C 906.21 344.53 913.13 338.81 919.58 332.58 C 922.80 329.63 925.08 324.52 922.46 320.48 C 919.80 316.33 914.51 315.63 910.13 314.53 C 870.96 306.15 830.97 301.89 790.95 300.79 C 765.95 300.03 740.93 300.42 715.94 301.06 C 714.13 301.02 711.17 301.47 710.95 298.91 C 711.60 294.49 715.64 291.52 719.95 291.28 C 767.57 283.76 816.06 282.13 864.12 285.64 C 884.75 287.07 905.20 290.27 925.58 293.66 C 894.52 231.09 849.63 175.45 795.05 131.86 C 737.48 85.69 669.08 53.10 596.89 37.70 C 540.17 25.54 481.24 23.79 423.88 32.42 C 354.91 42.74 288.34 68.54 230.34 107.27 C 171.37 146.54 121.26 199.01 84.78 259.75 C 50.27 317.01 28.04 381.62 20.04 448.00 C 12.09 512.88 17.61 579.34 36.11 642.03 C 54.72 637.83 74.32 637.67 92.96 641.75 C 107.79 645.06 122.57 653.30 129.53 667.36 C 135.43 679.32 136.45 693.51 133.28 706.39 C 130.17 718.97 119.86 728.85 107.68 732.77 C 102.79 734.78 97.39 734.78 92.42 736.47 C 101.93 737.71 111.54 739.96 119.64 745.33 C 132.00 753.00 139.53 766.76 141.49 780.95 C 143.85 797.92 142.03 816.52 131.84 830.81 C 122.85 843.52 108.01 850.67 93.11 853.84 C 71.04 858.37 47.44 858.13 26.32 849.63 C 19.68 846.86 12.76 843.66 8.17 837.92 C 4.59 833.46 4.59 827.48 4.32 822.07 C 4.01 814.66 2.81 807.26 3.31 799.84 C 3.48 797.10 4.76 793.56 8.02 793.49 C 12.22 793.01 14.03 797.48 15.44 800.60 C 21.35 814.78 27.99 829.90 41.10 838.90 C 54.36 848.27 74.32 846.38 85.15 834.12 C 96.30 821.73 98.04 803.89 96.88 787.96 C 95.74 774.14 91.28 758.85 79.03 750.89 C 69.88 744.71 58.43 745.65 47.95 745.71 C 46.21 745.53 43.56 746.10 42.75 744.04 C 42.64 741.37 43.58 738.81 44.21 736.26 C 44.71 734.94 44.85 733.07 46.46 732.62 C 56.35 731.17 67.15 734.40 76.40 729.45 C 84.68 725.03 88.93 715.85 90.83 707.05 C 93.22 695.54 93.08 683.36 89.86 672.01 C 87.53 663.87 82.08 656.17 73.93 653.13 C 62.76 649.06 48.96 650.78 40.27 659.31 C 32.15 667.21 28.17 678.16 24.49 688.62 C 23.11 692.21 21.75 696.22 18.47 698.53 C 15.89 700.33 11.80 699.27 10.81 696.17 C 9.36 691.94 10.25 687.38 10.85 683.07 C 12.62 672.70 14.35 662.31 15.92 651.91 C 16.18 647.77 20.66 646.79 23.81 645.55 C 9.93 601.73 2.15 555.98 0.89 510.02 C -1.11 441.52 11.21 372.61 37.12 309.14 C 67.95 233.23 118.07 165.32 181.32 113.27 C 237.82 66.62 304.79 32.68 375.91 14.99 Z" />
<path fill="#2b2a29" opacity="1.00" d=" M 325.25 143.28 C 327.12 137.11 334.12 134.16 340.14 135.33 C 354.86 137.78 369.09 142.46 383.29 146.91 C 432.72 162.76 480.68 183.39 525.68 209.30 C 552.70 224.73 578.78 242.13 601.56 263.44 C 604.36 266.24 607.84 268.63 609.62 272.28 C 610.96 275.41 608.26 278.17 606.05 280.01 C 581.01 300.67 550.91 313.69 521.30 326.34 C 510.53 330.94 499.75 335.49 488.89 339.85 C 485.68 341.30 481.27 340.78 479.17 337.76 C 478.18 335.85 480.25 334.53 481.64 333.72 C 489.54 329.02 497.25 324.01 504.88 318.90 C 520.32 308.48 535.79 298.04 549.97 285.93 C 556.50 280.16 564.30 275.42 568.86 267.78 C 571.15 264.21 570.83 259.26 567.82 256.21 C 562.44 250.71 555.70 246.80 549.12 242.92 C 532.30 233.69 515.00 225.37 497.54 217.42 C 466.13 203.48 433.88 190.69 400.06 183.97 C 395.00 183.22 389.51 181.38 384.60 183.67 C 380.14 185.92 378.77 191.42 379.21 196.04 C 380.83 230.04 386.76 263.93 397.77 296.17 C 401.88 307.90 406.61 319.47 412.67 330.35 C 418.30 339.00 424.28 347.43 430.06 356.00 C 432.28 359.43 435.12 362.53 436.43 366.48 C 432.72 366.21 428.73 365.72 425.96 362.97 C 396.07 335.80 373.07 301.85 355.07 265.89 C 339.34 234.34 328.33 200.19 325.13 164.98 C 324.64 157.80 323.15 150.33 325.25 143.28 Z" />
<path fill="#2b2a29" opacity="1.00" d=" M 659.41 243.66 C 665.08 241.56 671.38 242.17 677.05 243.97 C 685.08 246.60 692.57 251.59 697.26 258.72 C 699.93 262.82 701.62 268.09 699.90 272.89 C 698.32 277.48 693.64 280.22 689.06 280.99 C 680.88 282.41 672.48 279.79 665.55 275.50 C 658.71 271.11 652.29 264.46 651.33 256.04 C 650.59 250.60 654.34 245.39 659.41 243.66 Z" />
<path fill="#2b2a29" opacity="1.00" d=" M 622.00 308.00 C 625.80 298.88 635.45 293.24 645.07 292.59 C 652.35 291.96 659.18 294.98 666.03 296.96 C 670.50 298.50 675.32 299.28 679.36 301.89 C 678.12 303.20 676.81 304.52 675.02 305.00 C 661.72 309.56 650.93 319.58 643.14 331.05 C 632.37 347.64 625.23 366.25 618.94 384.90 C 609.44 414.28 601.91 444.35 597.36 474.90 C 597.06 475.77 596.47 477.52 596.17 478.40 C 594.49 476.60 592.41 474.70 592.51 472.02 C 591.08 416.22 597.66 358.84 622.00 308.00 Z" />
<path fill="#2b2a29" opacity="1.00" d=" M 50.24 475.43 C 58.50 474.77 66.79 476.30 75.07 475.95 C 88.72 475.55 102.94 472.84 116.12 477.73 C 125.67 481.05 133.17 489.25 135.86 498.97 C 140.08 513.56 137.05 531.03 125.66 541.65 C 118.11 548.81 106.97 551.23 96.91 549.12 C 91.63 548.37 87.04 545.30 81.78 544.51 C 81.17 550.33 81.52 556.18 81.44 562.02 C 81.47 574.64 81.37 587.27 81.49 599.89 C 81.75 604.07 81.86 608.85 84.95 612.06 C 88.21 614.98 92.94 614.14 96.89 615.13 C 98.62 615.48 98.45 617.74 98.35 619.08 C 98.03 621.13 95.66 621.25 94.03 621.27 C 85.66 621.24 77.34 619.72 68.96 620.30 C 62.97 620.50 56.99 621.63 51.00 621.13 C 48.11 621.08 47.64 617.05 49.28 615.33 C 52.97 614.10 57.95 615.10 60.46 611.45 C 62.93 607.46 62.77 602.54 62.96 598.02 C 62.96 564.34 62.99 530.66 62.94 496.99 C 62.73 492.67 63.02 487.60 59.83 484.22 C 56.84 481.19 52.14 482.24 48.54 480.55 C 47.86 478.77 47.82 475.77 50.24 475.43 M 87.30 482.48 C 83.00 483.82 81.64 488.70 81.59 492.72 C 81.24 505.13 81.55 517.55 81.41 529.97 C 81.54 532.50 81.11 535.71 83.40 537.46 C 92.39 543.94 106.39 542.07 112.83 532.84 C 117.92 526.09 119.35 517.31 119.13 509.04 C 118.85 501.43 116.64 493.43 111.07 487.97 C 104.95 481.96 95.41 480.33 87.30 482.48 Z" />
<path fill="#2b2a29" opacity="1.00" d=" M 181.54 508.76 C 191.94 506.89 203.14 508.98 211.83 515.10 C 221.57 521.85 227.93 532.65 230.79 544.01 C 234.75 559.33 232.02 576.21 223.54 589.56 C 219.03 596.62 212.70 602.63 205.04 606.13 C 192.90 611.68 177.88 610.78 166.75 603.28 C 156.02 596.15 149.19 584.24 146.41 571.84 C 142.99 556.99 145.82 540.83 154.06 528.02 C 160.20 518.32 170.10 510.75 181.54 508.76 M 184.43 514.59 C 179.13 515.66 174.61 519.16 171.49 523.49 C 165.24 532.30 163.44 543.39 163.03 553.95 C 162.75 566.04 163.85 578.66 169.52 589.56 C 173.17 596.59 179.76 602.91 188.03 603.44 C 196.22 603.88 203.59 598.45 207.63 591.66 C 213.84 581.29 214.91 568.79 214.68 556.96 C 214.27 545.21 212.13 532.80 204.81 523.25 C 200.17 517.07 192.25 512.84 184.43 514.59 Z" />
<path fill="#2b2a29" opacity="1.00" d=" M 284.53 508.73 C 294.74 507.12 306.33 508.72 314.34 515.68 C 317.67 518.43 316.62 523.08 316.37 526.82 C 315.92 530.15 316.11 533.65 314.88 536.82 C 313.72 539.52 309.69 538.74 308.64 536.34 C 304.83 529.65 302.85 521.43 296.44 516.56 C 291.68 512.96 284.89 513.87 280.22 517.16 C 271.38 523.18 266.73 533.63 264.75 543.82 C 262.40 556.94 263.49 571.15 270.09 582.93 C 274.44 590.75 281.92 597.25 290.94 598.70 C 297.55 599.96 304.56 598.00 309.77 593.79 C 311.92 592.14 313.65 589.94 316.07 588.66 C 319.19 588.95 317.78 592.89 316.60 594.57 C 305.18 611.25 279.32 614.62 263.51 602.37 C 256.99 597.36 252.36 590.22 249.51 582.58 C 243.10 565.41 244.75 545.22 254.74 529.75 C 261.40 519.23 272.13 510.95 284.53 508.73 Z" />
<path fill="#2b2a29" opacity="1.00" d=" M 392.88 511.83 C 397.77 507.17 406.56 506.57 411.33 511.65 C 414.30 515.06 414.61 520.19 413.15 524.32 C 411.47 528.98 405.43 531.19 401.06 529.02 C 398.27 527.44 397.13 524.18 394.76 522.15 C 392.57 520.58 390.86 523.37 390.15 525.12 C 386.96 533.24 385.50 542.19 380.45 549.49 C 378.42 552.56 375.12 554.36 371.96 556.04 C 380.45 556.83 389.27 560.87 392.85 569.09 C 396.53 575.86 399.85 582.82 403.37 589.68 C 404.83 592.41 406.43 595.18 408.84 597.20 C 411.08 598.94 414.02 599.26 416.50 600.56 C 418.69 601.78 418.03 606.28 415.10 605.82 C 409.39 605.80 403.69 605.46 397.98 605.85 C 394.29 606.21 390.69 604.24 389.01 600.94 C 382.91 589.31 379.38 576.45 372.89 565.02 C 370.15 560.04 364.14 558.98 358.95 559.20 C 358.48 567.80 358.85 576.41 358.72 585.02 C 358.86 588.67 358.42 592.59 360.08 595.98 C 362.12 599.42 366.67 598.68 369.91 600.07 C 372.42 601.13 371.65 605.50 368.91 605.66 C 362.94 606.31 356.96 605.13 350.98 605.22 C 344.67 605.06 338.37 606.25 332.07 605.70 C 329.51 605.60 328.74 601.96 330.42 600.38 C 333.36 598.63 337.46 599.60 339.97 597.02 C 342.20 594.19 341.85 590.31 342.07 586.93 C 342.11 569.29 342.06 551.65 342.10 534.02 C 341.92 529.84 342.60 525.27 340.51 521.47 C 338.39 517.97 333.83 518.57 330.45 517.48 C 328.84 515.87 329.36 512.19 331.96 512.00 C 338.29 511.48 344.62 512.71 350.96 512.51 C 356.95 512.59 362.94 511.44 368.92 512.04 C 371.24 512.31 371.79 515.91 370.14 517.22 C 367.08 518.63 363.04 518.06 360.64 520.72 C 358.41 523.99 358.95 528.25 358.73 532.01 C 358.97 538.98 358.24 546.02 359.10 552.94 C 363.52 554.07 369.02 553.89 372.32 550.29 C 376.28 546.14 378.20 540.58 380.24 535.33 C 383.36 527.03 386.21 518.04 392.88 511.83 Z" />
<path fill="#2b2a29" opacity="1.00" d=" M 460.54 508.82 C 470.97 506.86 482.24 508.89 491.01 514.98 C 500.78 521.67 507.19 532.43 510.10 543.76 C 514.24 559.48 511.32 576.87 502.33 590.41 C 497.56 597.57 490.85 603.58 482.81 606.81 C 470.87 611.64 456.50 610.42 445.82 603.09 C 435.35 596.02 428.66 584.36 425.85 572.22 C 422.00 555.95 425.63 538.03 435.74 524.70 C 441.77 516.69 450.61 510.66 460.54 508.82 M 463.42 514.67 C 457.93 515.88 453.35 519.69 450.26 524.28 C 444.29 533.29 442.63 544.37 442.32 554.97 C 442.15 566.88 443.34 579.30 449.05 589.96 C 452.80 597.00 459.63 603.24 467.98 603.47 C 476.14 603.61 483.30 598.06 487.23 591.23 C 493.19 580.96 494.24 568.70 494.02 557.07 C 493.62 545.17 491.45 532.58 483.94 522.97 C 479.24 516.83 471.21 512.75 463.42 514.67 Z" />
<path fill="#2b2a29" opacity="1.00" d=" M 814.47 508.76 C 824.93 506.87 836.18 509.02 844.89 515.22 C 854.83 522.20 861.23 533.37 863.96 545.06 C 867.56 560.06 864.75 576.44 856.51 589.46 C 852.15 596.31 846.09 602.20 838.75 605.76 C 826.49 611.73 811.09 610.93 799.72 603.31 C 789.57 596.60 782.88 585.56 779.85 573.93 C 775.81 558.96 778.20 542.43 786.24 529.19 C 792.35 518.94 802.55 510.82 814.47 508.76 M 817.41 514.57 C 811.84 515.66 807.14 519.41 803.98 524.01 C 797.83 533.08 796.15 544.34 795.85 555.08 C 795.69 567.08 796.91 579.61 802.78 590.30 C 806.49 597.05 813.02 603.01 821.04 603.45 C 829.48 603.84 836.97 598.06 840.94 590.96 C 846.75 580.71 847.78 568.55 847.55 556.99 C 847.14 545.27 845.03 532.89 837.76 523.33 C 833.15 517.13 825.25 512.86 817.41 514.57 Z" />
<path fill="#2b2a29" opacity="1.00" d=" M 914.49 508.64 C 923.64 507.14 933.97 508.47 941.01 515.01 C 947.35 521.00 951.55 529.35 952.52 538.02 C 952.96 540.47 952.15 544.00 949.07 543.95 C 933.03 544.32 916.98 543.87 900.94 544.15 C 898.76 543.95 897.32 545.94 897.19 547.93 C 895.36 560.73 896.78 574.13 902.13 585.97 C 904.92 592.04 908.89 597.82 914.56 601.54 C 921.74 606.31 931.63 606.36 939.03 602.06 C 942.81 599.93 945.26 596.24 948.58 593.56 C 949.48 592.70 951.41 592.90 951.72 594.30 C 952.06 596.60 950.99 598.81 949.75 600.67 C 943.64 609.58 933.83 616.36 922.90 617.26 C 914.56 617.82 905.95 615.73 899.08 610.91 C 889.90 604.48 884.55 593.98 881.70 583.39 C 877.85 567.85 876.87 550.86 882.78 535.71 C 887.88 522.13 899.88 510.83 914.49 508.64 M 916.45 514.66 C 907.25 516.87 900.05 525.67 899.13 534.98 C 898.55 538.95 903.53 538.30 906.06 538.32 C 913.90 537.83 922.06 539.02 929.65 536.55 C 935.56 534.63 936.71 526.95 933.94 522.04 C 930.89 515.69 923.04 513.03 916.45 514.66 Z" />
<path fill="#2b2a29" opacity="1.00" d=" M 525.36 512.38 C 530.45 511.06 535.81 512.50 541.01 512.46 C 548.00 512.96 554.99 511.37 561.97 512.07 C 564.28 512.34 564.89 515.05 564.12 516.92 C 561.16 518.51 556.77 517.60 554.91 520.93 C 553.20 524.33 553.39 528.29 553.27 532.00 C 553.29 552.37 553.24 572.73 553.30 593.10 C 553.14 596.01 554.67 599.61 557.97 599.83 C 564.34 600.12 570.75 600.00 577.13 599.90 C 580.71 599.99 582.65 596.18 582.41 593.02 C 582.47 572.01 582.42 551.00 582.44 529.99 C 582.29 526.61 582.43 522.70 579.94 520.08 C 577.85 517.93 574.53 518.35 572.00 517.09 C 570.24 515.46 571.36 511.76 574.00 511.95 C 580.00 511.55 585.99 512.74 592.00 512.50 C 597.30 512.52 602.62 511.38 607.90 512.10 C 610.21 512.45 610.58 515.72 609.14 517.20 C 606.55 518.29 603.27 518.03 601.27 520.27 C 598.98 522.94 599.09 526.69 598.97 530.00 C 598.96 550.66 598.98 571.33 598.96 591.99 C 599.00 594.58 599.06 597.91 601.68 599.32 C 603.98 600.30 606.60 599.89 609.05 600.00 C 614.01 599.82 618.99 600.25 623.94 599.79 C 627.16 599.44 628.20 595.80 628.09 593.05 C 628.14 572.38 628.11 551.72 628.10 531.05 C 627.94 527.56 628.12 523.79 626.30 520.68 C 624.51 517.69 620.56 518.44 617.78 517.19 C 616.27 515.36 617.24 511.79 619.95 511.94 C 626.29 511.56 632.62 512.76 638.97 512.50 C 644.29 512.47 649.62 511.43 654.94 512.04 C 657.46 512.21 658.42 515.94 656.29 517.30 C 653.41 518.54 649.79 518.11 647.38 520.36 C 644.79 523.21 644.92 527.37 644.73 530.99 C 644.71 549.66 644.72 568.34 644.73 587.01 C 644.90 590.39 644.71 594.26 647.03 597.01 C 649.30 599.47 652.97 599.13 655.92 600.15 C 657.65 600.38 657.56 602.65 657.26 603.92 C 656.39 605.94 653.90 605.81 652.09 605.90 C 611.38 605.89 570.67 605.87 529.96 605.91 C 528.71 605.92 527.47 605.82 526.25 605.59 C 523.87 605.12 523.33 601.42 525.16 600.10 C 528.34 598.87 532.57 599.79 534.89 596.80 C 536.61 593.89 536.44 590.31 536.61 587.04 C 536.63 567.69 536.62 548.34 536.61 528.99 C 536.49 525.92 536.55 522.24 533.99 520.08 C 531.40 517.99 527.83 518.39 524.85 517.26 C 523.72 515.89 523.79 513.40 525.36 512.38 Z" />
<path fill="#2b2a29" opacity="1.00" d=" M 673.61 517.37 C 671.60 515.84 672.33 512.12 675.02 512.00 C 681.32 511.43 687.63 512.71 693.95 512.51 C 699.61 512.57 705.29 511.36 710.94 512.10 C 713.50 512.38 714.53 515.86 712.43 517.44 C 710.02 518.52 707.27 518.65 704.92 519.87 C 701.85 521.81 701.90 525.84 701.81 529.05 C 701.84 536.92 701.74 544.80 701.90 552.67 C 714.64 552.80 727.39 552.65 740.13 552.75 C 740.46 544.82 740.22 536.88 740.30 528.95 C 740.16 525.96 740.28 522.37 737.77 520.27 C 735.36 518.53 732.17 518.67 729.56 517.38 C 727.63 515.79 728.57 512.43 731.05 512.09 C 736.36 511.40 741.71 512.49 747.05 512.50 C 753.71 512.78 760.36 511.54 767.03 511.96 C 769.80 511.98 770.51 515.94 768.44 517.42 C 765.47 519.02 761.46 518.43 759.08 521.08 C 756.82 524.22 757.08 528.33 756.93 532.02 C 756.95 550.01 756.92 568.01 756.94 586.00 C 757.13 589.63 756.87 593.76 759.24 596.79 C 761.62 599.48 765.69 598.66 768.60 600.34 C 770.62 601.95 769.53 605.64 766.88 605.71 C 760.59 606.26 754.31 605.00 748.02 605.23 C 742.36 605.18 736.70 606.33 731.07 605.64 C 728.70 605.35 727.58 602.07 729.45 600.51 C 732.08 598.81 735.80 599.43 738.09 597.10 C 740.36 594.68 740.15 591.08 740.30 588.00 C 740.27 578.26 740.33 568.53 740.25 558.79 C 727.45 558.70 714.65 558.68 701.86 558.80 C 701.77 568.53 701.84 578.25 701.81 587.98 C 701.95 591.05 701.74 594.61 703.97 597.05 C 706.25 599.40 709.96 598.83 712.64 600.48 C 714.61 602.17 713.25 605.52 710.76 605.67 C 704.86 606.29 698.95 605.08 693.05 605.22 C 687.06 605.11 681.08 606.29 675.11 605.69 C 672.54 605.53 671.51 602.01 673.43 600.39 C 676.36 598.72 680.33 599.35 682.84 596.82 C 685.19 594.52 685.08 590.96 685.21 587.93 C 685.21 568.63 685.20 549.32 685.22 530.02 C 685.09 526.96 685.25 523.42 682.95 521.07 C 680.47 518.54 676.56 518.96 673.61 517.37 Z" />
<path fill="#2b2a29" opacity="1.00" d=" M 150.85 670.13 C 147.60 666.81 149.94 659.80 155.00 660.09 C 168.69 659.70 182.31 661.98 196.00 661.52 C 216.95 661.35 238.40 657.25 258.97 662.93 C 272.42 666.52 284.86 675.42 290.59 688.38 C 296.89 702.61 296.98 719.09 293.02 733.97 C 289.07 748.27 279.84 761.77 266.13 768.19 C 254.04 774.01 239.73 772.93 227.42 768.33 C 223.30 767.01 219.36 764.67 214.95 764.57 C 212.28 764.71 212.21 767.92 212.21 769.91 C 212.24 784.31 212.18 798.71 212.24 813.12 C 212.34 820.15 213.50 827.95 218.89 833.01 C 224.02 837.81 231.39 838.47 238.07 838.82 C 244.08 838.39 244.50 848.81 238.98 849.70 C 236.99 850.12 234.94 850.06 232.93 850.06 C 220.27 849.78 207.64 848.78 194.99 848.49 C 184.85 848.23 174.77 849.39 164.66 849.86 C 218.02 891.64 279.28 923.34 344.33 942.39 C 454.46 974.88 575.04 970.84 682.64 930.70 C 734.55 911.46 783.39 884.04 827.01 849.95 C 816.03 849.51 805.08 848.20 794.08 848.50 C 783.35 848.76 772.67 850.13 761.94 850.04 C 759.48 850.04 756.18 849.48 755.52 846.65 C 755.01 844.24 754.85 840.76 757.48 839.52 C 761.84 838.31 766.90 838.64 770.50 835.42 C 776.30 830.42 776.94 822.11 777.20 814.97 C 777.30 782.50 777.21 750.02 777.24 717.54 C 756.90 748.09 736.60 778.67 716.26 809.21 C 714.65 811.45 715.36 814.37 715.27 816.95 C 715.45 823.86 716.65 831.97 722.80 836.20 C 726.26 838.78 730.74 838.34 734.73 839.31 C 738.67 841.53 737.80 849.47 732.80 849.81 C 721.52 850.60 710.24 848.72 698.96 848.52 C 685.23 847.98 671.58 850.35 657.86 849.97 C 653.25 850.20 650.77 844.57 652.98 840.90 C 654.51 838.53 657.69 838.99 660.10 838.51 C 664.22 838.19 668.20 835.98 670.36 832.40 C 673.90 826.62 674.14 819.58 674.29 813.00 C 674.29 774.02 674.32 735.03 674.28 696.05 C 674.04 688.75 673.64 680.35 668.09 674.91 C 664.64 671.44 659.52 671.67 655.09 670.75 C 651.89 669.72 651.65 665.45 652.93 662.86 C 654.21 660.25 657.43 659.95 660.00 659.97 C 672.00 660.03 683.95 661.66 695.97 661.53 C 707.35 661.43 718.68 659.94 730.06 659.99 C 732.52 659.99 735.86 660.40 736.72 663.17 C 737.37 665.70 737.46 669.41 734.70 670.73 C 731.62 671.54 728.32 671.26 725.34 672.49 C 716.24 676.22 715.07 687.44 715.26 696.02 C 715.29 727.28 715.26 758.53 715.27 789.79 C 734.81 760.48 754.26 731.11 773.81 701.80 C 775.27 699.40 777.66 697.11 777.25 694.05 C 777.05 687.20 775.94 679.37 770.35 674.70 C 766.99 671.71 762.33 671.57 758.15 670.78 C 754.91 670.07 754.93 665.94 755.51 663.38 C 756.17 660.55 759.48 659.98 761.94 660.00 C 773.65 659.91 785.30 661.50 797.01 661.54 C 809.70 661.71 822.35 659.55 835.03 660.15 C 840.15 660.18 842.00 668.18 837.68 670.58 C 833.30 671.79 828.16 671.31 824.59 674.63 C 818.67 679.93 818.26 688.58 818.02 695.98 C 817.96 734.65 818.01 773.32 817.99 812.00 C 818.09 818.60 818.22 825.59 821.44 831.55 C 823.52 835.50 827.68 838.09 832.10 838.47 C 834.63 838.97 838.20 838.51 839.52 841.31 C 840.55 845.15 839.92 849.22 840.06 853.16 C 787.61 903.68 723.92 942.50 654.88 965.71 C 550.04 1001.18 433.27 1000.10 329.14 962.55 C 262.01 938.52 200.28 899.66 149.41 849.71 C 149.78 846.49 148.39 842.34 150.96 839.85 C 155.42 838.35 160.64 838.74 164.46 835.54 C 170.77 830.83 171.27 822.22 171.43 815.02 C 171.50 775.03 171.50 735.04 171.43 695.05 C 171.27 687.87 170.77 679.32 164.54 674.59 C 160.70 671.27 155.34 671.75 150.85 670.13 M 222.48 672.65 C 215.19 674.31 212.51 682.44 212.31 689.08 C 212.08 706.73 212.30 724.38 212.21 742.03 C 212.10 745.90 213.00 750.29 216.37 752.66 C 220.08 755.10 224.81 755.10 229.09 754.85 C 236.62 754.31 243.38 749.56 247.11 743.10 C 252.75 733.47 254.10 721.94 253.70 710.96 C 253.16 700.20 250.69 688.91 243.61 680.47 C 238.61 674.39 230.30 670.87 222.48 672.65 Z" />
<path fill="#2b2a29" opacity="1.00" d=" M 302.31 660.45 C 307.48 659.48 312.82 660.09 318.06 660.14 C 330.68 661.21 343.35 661.05 356.00 661.35 C 375.35 661.80 394.74 661.61 414.06 660.27 C 417.94 660.13 422.01 658.70 425.79 660.02 C 428.25 663.02 427.24 667.36 427.55 670.98 C 427.20 680.82 428.40 690.86 426.38 700.57 C 425.58 704.52 419.70 704.06 418.24 700.83 C 414.49 694.09 411.68 686.45 405.55 681.42 C 398.01 674.91 387.68 673.16 378.02 673.26 C 373.33 673.36 368.20 673.36 364.18 676.12 C 361.97 677.63 361.33 680.43 361.40 682.96 C 361.47 700.66 361.45 718.36 361.41 736.06 C 361.38 738.93 361.98 742.67 365.13 743.72 C 369.33 744.63 373.69 744.05 377.96 744.19 C 383.90 744.25 390.83 743.91 394.90 738.91 C 399.90 732.59 400.57 724.14 403.94 717.02 C 405.37 714.33 409.71 713.99 411.53 716.43 C 412.90 718.31 412.77 720.77 412.83 722.99 C 412.77 732.01 411.46 740.97 411.41 749.99 C 411.20 758.35 411.87 766.69 412.32 775.03 C 412.28 777.85 412.51 781.20 410.40 783.42 C 407.98 785.43 403.99 784.15 402.69 781.42 C 399.46 774.99 398.70 767.40 394.37 761.51 C 390.30 756.30 383.25 755.07 377.03 754.99 C 372.61 755.05 367.75 754.45 363.82 756.88 C 361.44 758.40 361.34 761.46 361.39 763.99 C 361.56 779.52 361.29 795.06 361.54 810.59 C 361.94 818.42 363.02 827.35 369.30 832.83 C 374.17 837.06 381.01 837.01 387.08 836.75 C 396.20 836.41 404.82 832.44 411.93 826.90 C 420.07 820.58 426.68 812.31 431.04 802.98 C 432.37 800.31 433.43 797.49 435.04 794.97 C 436.83 791.95 441.95 792.55 443.38 795.62 C 444.48 797.90 444.10 800.53 443.81 802.96 C 442.13 813.03 441.42 823.26 439.16 833.24 C 437.91 838.29 436.40 843.78 432.28 847.30 C 428.93 850.14 424.30 850.55 420.09 850.42 C 392.76 849.44 365.41 848.00 338.06 848.68 C 322.73 848.99 307.39 850.53 292.06 849.87 C 287.28 849.65 285.63 842.84 288.74 839.80 C 290.88 838.36 293.64 838.89 296.07 838.62 C 303.00 838.43 310.49 836.63 315.21 831.20 C 319.75 825.97 320.76 818.73 320.77 812.05 C 320.75 773.36 320.79 734.67 320.75 695.99 C 320.52 688.79 320.13 680.61 314.82 675.14 C 311.51 671.64 306.46 671.60 302.04 670.87 C 297.17 669.82 297.76 661.63 302.31 660.45 Z" />
<path fill="#2b2a29" opacity="1.00" d=" M 455.25 660.47 C 464.47 659.20 473.84 660.91 483.11 661.19 C 498.44 662.43 513.72 660.07 529.04 659.99 C 531.51 659.99 534.88 660.28 535.82 663.05 C 536.49 665.60 536.63 669.41 533.82 670.74 C 529.86 671.66 525.40 671.27 521.97 673.84 C 515.88 678.04 514.64 686.07 514.51 692.94 C 514.49 707.64 514.42 722.35 514.53 737.05 C 514.36 739.75 516.03 742.77 519.06 742.70 C 535.03 742.99 551.02 742.70 567.00 742.84 C 569.26 742.69 572.46 743.21 573.70 740.76 C 574.43 738.61 574.19 736.29 574.26 734.06 C 574.11 720.38 574.39 706.69 574.11 693.02 C 573.74 686.31 572.67 678.51 566.90 674.18 C 563.33 671.30 558.52 671.72 554.35 670.54 C 550.50 668.09 551.73 660.12 556.89 660.16 C 566.95 659.60 577.01 661.01 587.07 661.36 C 601.08 662.18 615.03 660.10 629.02 659.97 C 631.61 659.95 634.93 660.14 636.28 662.78 C 637.48 665.26 637.44 669.11 634.70 670.56 C 631.67 671.57 628.34 671.31 625.34 672.46 C 621.69 673.75 618.94 676.86 617.51 680.39 C 615.21 685.95 615.04 692.07 614.97 698.00 C 614.99 736.68 614.95 775.35 614.99 814.03 C 615.23 821.23 615.63 829.47 621.02 834.90 C 624.40 838.39 629.48 838.39 633.93 839.20 C 637.34 840.08 637.65 844.62 636.26 847.29 C 635.10 849.54 632.35 850.04 630.06 850.05 C 618.36 850.12 606.72 848.48 595.02 848.46 C 582.98 848.41 571.02 850.13 558.99 850.04 C 556.52 850.04 553.20 849.48 552.51 846.65 C 551.98 844.23 551.84 840.68 554.52 839.50 C 558.63 838.34 563.34 838.67 566.87 835.89 C 573.23 831.07 573.92 822.32 574.19 814.97 C 574.29 797.97 574.18 780.96 574.24 763.96 C 574.11 761.36 574.33 758.44 572.74 756.24 C 571.66 754.70 569.63 754.77 567.97 754.72 C 552.96 754.72 537.95 754.76 522.95 754.71 C 520.72 754.76 518.42 754.61 516.30 755.37 C 514.27 756.39 514.65 759.06 514.48 760.95 C 514.48 777.30 514.49 793.65 514.48 810.00 C 514.50 817.19 514.04 824.91 517.64 831.42 C 519.83 835.58 524.29 838.27 528.96 838.55 C 531.09 838.98 533.94 838.48 535.35 840.56 C 536.54 842.67 536.47 845.44 535.53 847.64 C 534.21 849.89 531.28 849.97 528.99 850.06 C 517.99 850.07 507.05 848.66 496.06 848.48 C 484.01 848.25 472.03 849.95 459.99 850.08 C 458.42 850.04 456.82 850.05 455.32 849.60 C 451.05 848.43 450.22 841.22 454.30 839.36 C 457.80 838.38 461.68 838.78 464.96 836.96 C 468.72 835.02 470.99 831.12 472.12 827.17 C 473.68 821.58 473.75 815.72 473.74 809.97 C 473.71 771.97 473.77 733.98 473.71 695.99 C 473.49 688.79 473.09 680.63 467.80 675.16 C 464.48 671.65 459.42 671.59 455.00 670.87 C 450.20 669.77 450.78 661.70 455.25 660.47 Z" />
<path fill="#2b2a29" opacity="1.00" d=" M 858.44 660.62 C 867.84 658.91 877.49 660.73 886.99 660.86 C 917.66 661.44 948.44 662.59 979.02 659.48 C 981.14 659.07 983.49 660.19 983.61 662.56 C 984.49 669.34 983.87 676.21 984.06 683.02 C 983.89 688.92 984.42 695.00 982.81 700.74 C 982.35 702.89 980.00 703.83 978.01 703.27 C 975.57 702.91 974.49 700.47 973.51 698.54 C 970.23 691.88 966.90 684.78 960.71 680.31 C 951.46 673.38 939.21 672.64 928.11 673.61 C 923.53 673.95 917.74 676.43 918.03 681.88 C 918.00 699.94 918.06 718.01 918.00 736.07 C 918.01 738.83 918.44 742.35 921.34 743.60 C 925.09 744.68 929.09 744.04 932.95 744.20 C 939.03 744.17 946.14 744.43 950.71 739.67 C 956.39 733.25 956.92 724.11 960.70 716.70 C 962.65 713.65 968.12 714.39 968.88 718.07 C 969.92 723.37 969.04 728.83 968.82 734.19 C 967.64 746.41 967.65 758.73 968.63 770.97 C 968.77 774.62 969.37 778.50 967.97 781.99 C 966.48 785.59 960.97 784.84 959.37 781.72 C 955.74 775.00 955.34 766.67 950.23 760.74 C 945.13 755.22 937.02 754.87 930.01 754.96 C 926.45 755.08 922.35 754.95 919.58 757.56 C 917.62 759.50 918.06 762.48 917.97 764.98 C 918.14 780.00 917.89 795.03 918.11 810.06 C 918.45 817.91 919.40 826.79 925.45 832.50 C 931.27 837.79 939.78 837.04 947.05 836.44 C 962.26 834.24 974.80 823.41 983.10 810.99 C 986.45 806.09 988.49 800.49 991.34 795.33 C 993.06 791.81 998.97 792.46 1000.13 796.12 C 1001.37 800.04 1000.00 804.15 999.58 808.11 C 997.82 819.41 997.39 831.19 992.86 841.84 C 990.65 847.35 984.85 850.70 979.00 850.42 C 947.35 849.67 915.65 847.15 884.02 849.47 C 876.03 849.81 868.00 850.42 860.01 849.85 C 854.84 849.64 853.35 841.04 858.17 839.26 C 862.57 838.38 867.65 838.57 871.07 835.16 C 876.66 829.72 877.02 821.29 877.27 813.99 C 877.30 774.65 877.30 735.31 877.27 695.97 C 877.03 688.90 876.66 680.94 871.63 675.43 C 868.44 671.86 863.44 671.55 859.03 670.97 C 854.02 670.33 854.17 662.24 858.44 660.62 Z" />
</g>
</svg>
