<?xml version="1.0" encoding="UTF-8" ?>
<!DOCTYPE svg PUBLIC "-//W3C//DTD SVG 1.1//EN" "http://www.w3.org/Graphics/SVG/1.1/DTD/svg11.dtd">
<svg width="493pt" height="261pt" viewBox="0 0 493 261" version="1.1" xmlns="http://www.w3.org/2000/svg">
<g id="#c43819ff">
<path fill="#c43819" opacity="1.00" d=" M 283.12 10.56 C 311.14 5.35 339.51 1.66 368.03 0.91 C 389.65 0.45 411.49 1.48 432.59 6.57 C 450.40 10.98 468.89 18.74 479.74 34.30 C 488.59 48.05 493.08 64.71 491.85 81.06 C 490.16 104.49 477.24 125.71 460.58 141.69 C 457.95 143.65 458.49 147.24 457.69 150.06 C 456.68 154.34 455.55 159.18 451.92 162.03 C 448.93 163.55 444.89 164.12 442.08 161.92 C 438.28 159.06 437.78 153.53 439.23 149.30 C 440.63 145.04 444.59 142.20 445.95 137.94 C 446.70 132.67 446.16 127.32 446.32 122.02 C 446.18 117.62 446.80 113.05 445.44 108.79 C 444.65 105.83 440.61 105.87 438.90 107.92 C 436.25 110.92 436.16 115.20 435.99 118.99 C 435.93 136.99 436.00 155.00 435.96 173.00 C 435.84 178.13 435.80 183.59 433.15 188.16 C 429.61 194.38 419.17 194.80 415.41 188.57 C 412.63 183.87 414.40 178.09 416.82 173.63 C 393.08 189.60 367.11 202.01 340.65 212.77 C 298.78 229.58 255.11 241.70 210.85 250.34 C 194.34 253.44 177.79 256.49 161.05 257.99 C 132.54 260.73 103.60 261.75 75.19 257.35 C 55.33 254.09 34.94 247.99 19.62 234.33 C 7.79 223.96 0.98 208.56 0.25 192.93 C -0.64 173.51 4.06 153.44 15.44 137.47 C 28.22 119.36 45.95 105.63 63.42 92.34 C 64.41 90.02 64.51 86.91 67.15 85.71 C 70.51 84.39 73.48 87.45 74.84 90.22 C 78.20 96.98 79.17 104.60 79.97 112.01 C 81.15 124.63 81.30 137.32 81.10 149.98 C 80.80 159.40 80.38 168.92 77.96 178.07 C 76.48 183.46 73.40 189.07 67.91 191.18 C 63.00 193.06 56.22 192.52 53.35 187.54 C 50.07 182.28 51.69 175.96 52.87 170.34 L 54.46 169.93 C 54.17 169.79 53.60 169.52 53.32 169.39 C 46.69 176.59 39.40 183.27 33.97 191.50 C 36.58 192.67 39.35 193.39 42.17 193.85 C 67.82 198.38 93.95 199.64 119.97 199.13 C 174.19 197.83 228.27 187.43 278.98 168.17 C 284.85 157.72 289.36 146.15 290.03 134.04 C 290.96 120.74 291.34 107.24 289.04 94.06 C 288.64 90.86 289.49 86.57 292.99 85.47 C 296.41 84.87 298.87 87.96 300.20 90.69 C 303.53 97.73 304.44 105.60 305.20 113.26 C 306.25 125.78 306.46 138.36 306.19 150.92 C 305.86 160.00 305.41 169.19 303.10 178.02 C 301.65 183.38 298.61 188.91 293.22 191.09 C 288.88 192.75 283.22 192.74 279.78 189.22 C 276.76 186.06 276.29 181.42 276.56 177.26 C 213.47 199.32 145.83 208.27 79.17 203.63 C 74.28 203.19 69.37 203.05 64.51 202.36 C 58.87 201.54 53.18 201.10 47.49 201.42 C 47.59 215.03 47.52 228.65 47.53 242.26 C 52.80 245.21 58.55 247.27 64.47 248.45 C 69.45 249.46 74.37 250.80 79.43 251.36 C 100.81 254.51 122.53 254.38 144.04 252.92 C 190.59 249.58 236.56 240.04 281.14 226.41 C 314.83 215.99 347.87 203.29 379.32 187.31 C 394.10 179.78 408.51 171.46 422.14 161.99 C 422.30 148.65 422.16 135.31 422.21 121.97 C 422.16 117.01 422.67 111.83 420.61 107.17 C 418.80 102.23 415.30 96.58 418.37 91.39 C 422.08 84.06 434.62 85.06 436.65 93.27 C 445.64 86.02 453.60 77.59 460.98 68.72 C 426.66 61.28 391.30 59.68 356.29 61.16 C 357.98 66.05 357.26 71.85 353.75 75.77 C 349.69 80.39 343.76 82.51 338.55 85.48 C 334.83 87.50 333.56 91.80 332.37 95.56 C 326.66 115.46 327.23 136.35 325.29 156.79 C 324.92 159.11 324.57 162.22 321.90 163.00 C 319.39 163.80 315.57 163.56 314.61 160.62 C 313.23 155.86 313.40 150.85 312.85 145.96 C 311.30 129.30 310.97 112.36 306.55 96.11 C 305.38 91.69 303.40 86.99 299.04 84.86 C 292.61 81.43 284.78 78.43 282.04 70.99 C 258.84 76.01 235.93 82.58 213.84 91.28 C 221.02 97.60 220.49 108.97 215.39 116.40 C 210.35 123.60 203.49 129.31 198.35 136.43 C 196.85 138.36 196.13 142.23 198.98 143.30 C 203.15 143.85 205.86 139.19 210.03 139.41 C 215.44 138.92 220.90 143.37 220.52 149.01 C 220.90 155.30 216.08 160.79 210.19 162.38 C 200.69 165.32 188.99 161.94 183.93 153.02 C 180.27 146.24 181.42 137.72 185.22 131.25 C 189.46 123.70 196.88 118.78 202.10 112.03 C 203.17 110.55 204.55 107.44 202.05 106.61 C 198.88 106.55 196.18 108.70 193.03 108.81 C 188.61 109.09 184.49 105.36 184.14 100.99 C 183.56 96.99 185.42 92.94 188.53 90.45 C 192.45 87.03 197.92 86.04 202.97 86.67 C 205.44 87.12 207.73 85.91 210.01 85.13 C 233.18 76.70 257.09 70.34 281.28 65.56 C 281.85 60.37 285.46 55.25 290.87 54.43 C 297.14 53.03 303.15 56.54 307.15 61.13 C 315.07 60.10 322.99 59.00 330.96 58.29 C 334.79 58.41 337.40 54.99 341.12 54.55 C 345.19 53.42 349.22 54.85 352.94 56.41 C 373.56 55.45 394.27 55.44 414.86 57.09 C 419.40 57.62 423.98 57.73 428.49 58.46 C 433.20 59.19 437.97 59.50 442.73 59.82 C 442.53 44.74 442.68 29.66 442.65 14.58 C 438.07 12.76 433.39 11.13 428.53 10.28 C 423.55 9.33 418.62 8.12 413.56 7.65 C 390.32 4.67 366.76 5.51 343.49 7.70 C 302.26 11.80 261.61 20.50 221.77 31.72 C 191.20 40.43 160.99 50.66 132.00 63.78 C 132.27 67.73 131.73 71.95 129.16 75.12 C 125.15 80.17 118.87 82.37 113.44 85.46 C 109.85 87.41 108.54 91.53 107.38 95.17 C 101.57 115.08 102.08 136.02 100.21 156.50 C 99.84 158.88 99.56 162.13 96.83 162.98 C 94.31 163.80 90.46 163.58 89.49 160.62 C 88.11 155.90 88.27 150.90 87.73 146.05 C 86.19 129.49 85.85 112.67 81.55 96.52 C 80.35 92.02 78.47 87.14 74.05 84.91 C 67.69 81.37 59.48 78.54 57.03 70.93 C 54.43 64.20 58.49 55.42 65.95 54.40 C 74.21 52.77 81.37 59.02 85.27 65.68 C 93.50 79.38 92.97 95.90 94.11 111.30 C 94.90 101.66 95.08 91.94 96.71 82.39 C 98.14 75.94 100.65 69.73 103.94 64.01 C 106.88 58.95 111.86 54.63 117.92 54.24 C 121.98 53.70 126.00 55.21 128.97 57.96 C 178.25 36.16 230.23 20.72 283.12 10.56 M 310.49 65.76 C 318.66 79.51 317.83 95.93 319.51 111.28 C 319.61 103.47 320.25 95.68 321.03 87.91 C 321.83 79.18 325.06 70.80 329.51 63.30 C 323.16 64.10 316.82 64.87 310.49 65.76 M 452.62 87.50 C 457.59 91.40 458.76 97.97 459.43 103.88 C 460.37 113.79 460.24 123.80 459.58 133.73 C 463.23 129.34 467.10 125.10 470.42 120.44 C 474.98 114.63 476.76 107.15 477.43 99.94 C 478.28 89.71 474.59 79.02 466.81 72.17 C 462.21 77.39 457.58 82.60 452.62 87.50 M 22.63 139.53 C 18.32 144.99 16.37 152.04 16.61 158.94 C 16.95 169.72 21.44 180.42 29.23 187.93 C 37.54 176.47 48.11 166.94 58.81 157.80 C 64.12 147.42 65.13 135.54 65.52 124.07 C 65.56 115.95 65.80 107.81 64.85 99.73 C 49.47 111.47 34.29 123.95 22.63 139.53 Z" />
<path fill="#c43819" opacity="1.00" d=" M 118.19 86.13 C 120.21 84.93 123.37 85.10 124.58 87.36 C 125.99 90.21 125.21 93.49 124.78 96.48 C 122.51 107.10 121.27 118.34 124.10 128.97 C 125.87 136.07 131.28 141.68 132.60 148.92 C 133.43 153.17 132.29 158.00 128.84 160.83 C 125.35 163.90 120.02 164.06 115.93 162.16 C 111.53 160.07 109.21 155.37 107.80 150.95 C 105.45 142.50 105.82 133.58 106.50 124.93 C 107.51 114.36 109.04 103.70 112.93 93.76 C 114.12 90.92 115.37 87.73 118.19 86.13 Z" />
<path fill="#c43819" opacity="1.00" d=" M 343.27 86.16 C 347.27 83.46 351.61 87.80 350.47 92.01 C 348.56 104.10 345.80 116.63 349.16 128.76 C 351.04 136.59 357.50 142.73 357.95 150.98 C 358.32 155.64 355.82 160.51 351.47 162.43 C 346.15 164.75 339.35 162.82 336.16 157.93 C 331.07 150.34 330.94 140.76 331.18 131.95 C 331.84 119.59 333.29 107.09 337.44 95.36 C 338.80 92.02 339.99 88.12 343.27 86.16 Z" />
<path fill="#c43819" opacity="1.00" d=" M 150.24 90.21 C 156.99 84.85 168.26 85.21 173.51 92.52 C 178.86 100.22 177.76 111.19 172.91 118.88 C 167.68 126.02 160.34 131.19 153.48 136.63 C 153.92 139.62 155.37 143.34 158.93 143.48 C 163.00 142.56 167.41 140.20 171.47 142.52 C 178.63 146.33 177.52 158.12 170.38 161.38 C 162.14 165.33 150.58 163.72 145.11 155.91 C 141.10 150.44 140.16 143.47 139.51 136.90 C 138.79 127.20 138.96 117.34 140.91 107.78 C 142.30 101.25 144.78 94.43 150.24 90.21 M 156.06 106.99 C 152.62 112.27 153.63 119.07 153.38 125.06 C 158.52 121.10 162.97 115.57 164.16 109.06 C 164.68 104.59 158.11 103.60 156.06 106.99 Z" />
<path fill="#c43819" opacity="1.00" d=" M 235.92 88.87 C 242.05 85.78 249.95 85.44 255.91 89.10 C 262.08 93.17 263.04 101.29 262.74 108.07 C 261.98 117.69 262.13 127.35 261.81 136.99 C 261.29 141.16 264.92 144.05 266.02 147.79 C 267.28 151.72 266.96 156.26 264.85 159.85 C 261.70 164.75 253.35 164.54 250.17 159.76 C 248.80 157.84 248.26 155.50 247.60 153.27 C 246.43 156.28 245.11 159.42 242.54 161.51 C 238.83 164.48 232.81 163.90 229.85 160.14 C 226.06 155.33 225.60 148.88 225.56 142.98 C 225.62 136.48 226.91 129.42 231.55 124.54 C 236.56 119.40 243.29 116.38 248.63 111.66 C 248.86 109.90 249.00 107.28 246.97 106.51 C 243.88 106.36 241.17 108.70 238.02 108.36 C 233.54 108.34 229.36 104.59 229.19 100.06 C 228.79 95.36 231.75 90.87 235.92 88.87 M 239.98 135.99 C 239.58 138.46 239.46 141.87 242.05 143.22 C 244.40 144.11 246.42 142.03 247.05 139.94 C 248.66 135.00 248.29 129.68 248.39 124.56 C 244.59 127.43 240.71 131.03 239.98 135.99 Z" />
<path fill="#c43819" opacity="1.00" d=" M 363.34 94.94 C 363.84 88.45 371.83 84.35 377.44 87.52 C 381.23 89.49 382.67 94.00 382.67 98.02 C 382.80 111.33 382.60 124.65 382.76 137.96 C 382.77 140.10 383.07 143.57 386.02 143.39 C 389.99 143.15 391.53 138.49 391.89 135.13 C 392.35 127.75 392.05 120.35 392.08 112.96 C 392.31 106.14 387.07 99.98 389.01 93.12 C 390.75 87.18 398.33 84.90 403.59 87.52 C 407.30 89.08 409.22 93.15 409.38 96.99 C 409.75 102.97 405.14 108.01 405.83 114.01 C 406.04 122.65 405.65 131.30 406.01 139.92 C 408.18 145.01 411.97 150.02 410.66 155.90 C 409.41 163.14 399.12 165.84 394.01 161.00 C 390.50 157.09 391.36 151.41 391.75 146.62 C 390.17 151.84 388.58 157.58 384.10 161.11 C 380.72 163.84 375.22 164.23 372.04 160.97 C 369.31 158.04 369.04 153.78 368.95 149.98 C 368.90 138.33 368.97 126.68 368.93 115.03 C 369.34 107.73 361.89 102.41 363.34 94.94 Z" />
<path fill="#c43819" opacity="1.00" d=" M 460.25 197.25 C 467.34 195.07 475.56 199.90 476.87 207.25 C 478.63 214.45 473.34 222.36 465.94 223.27 C 458.48 224.70 450.83 218.61 450.53 211.02 C 450.01 204.89 454.23 198.74 460.25 197.25 M 460.35 199.58 C 454.88 201.20 451.54 207.51 453.12 212.97 C 454.45 218.51 460.49 222.21 466.04 220.98 C 472.16 219.93 476.39 213.08 474.52 207.13 C 473.07 201.18 466.11 197.45 460.35 199.58 Z" />
<path fill="#c43819" opacity="1.00" d=" M 458.00 203.09 C 461.23 203.32 464.89 202.37 467.80 204.16 C 470.48 206.50 468.52 210.46 465.50 211.29 C 467.44 213.06 468.81 215.31 470.08 217.58 C 466.61 218.53 466.02 214.72 464.27 212.71 C 463.47 211.30 461.71 211.52 460.36 211.22 C 460.33 213.31 460.32 215.40 460.31 217.50 C 459.73 217.50 458.58 217.51 458.00 217.51 C 458.00 212.70 457.99 207.89 458.00 203.09 M 460.34 204.99 C 460.32 206.47 460.32 207.95 460.33 209.43 C 462.18 209.29 464.14 209.54 465.91 208.84 C 466.87 207.84 466.78 206.21 465.59 205.44 C 463.89 204.93 462.07 205.12 460.34 204.99 Z" />
</g>
<g id="#3d120750">
<path fill="#3d1207" opacity="0.31" d=" M 413.56 7.65 C 418.62 8.12 423.55 9.33 428.53 10.28 C 428.49 26.34 428.55 42.40 428.49 58.46 C 423.98 57.73 419.40 57.62 414.86 57.09 C 412.09 54.74 414.02 50.98 414.36 48.02 C 413.56 44.39 412.86 40.57 414.27 36.98 C 413.78 35.35 413.40 33.68 413.49 31.97 C 413.58 23.87 413.46 15.76 413.56 7.65 Z" />
<path fill="#3d1207" opacity="0.31" d=" M 64.51 202.36 C 69.37 203.05 74.28 203.19 79.17 203.63 C 79.85 219.51 79.33 235.45 79.43 251.36 C 74.37 250.80 69.45 249.46 64.47 248.45 C 64.51 233.08 64.45 217.72 64.51 202.36 Z" />
</g>
<g id="#7e2610a3">
<path fill="#7e2610" opacity="0.64" d=" M 428.53 10.28 C 433.39 11.13 438.07 12.76 442.65 14.58 C 442.68 29.66 442.53 44.74 442.73 59.82 C 437.97 59.50 433.20 59.19 428.49 58.46 C 428.55 42.40 428.49 26.34 428.53 10.28 Z" />
<path fill="#7e2610" opacity="0.64" d=" M 47.49 201.42 C 53.18 201.10 58.87 201.54 64.51 202.36 C 64.45 217.72 64.51 233.08 64.47 248.45 C 58.55 247.27 52.80 245.21 47.53 242.26 C 47.52 228.65 47.59 215.03 47.49 201.42 Z" />
</g>
</svg>
