<?xml version="1.0" encoding="utf-8"?>
<!-- Generator: Adobe Illustrator 26.4.1, SVG Export Plug-In . SVG Version: 6.00 Build 0)  -->
<svg version="1.1" id="Слой_1" xmlns="http://www.w3.org/2000/svg" xmlns:xlink="http://www.w3.org/1999/xlink" x="0px" y="0px"
	 viewBox="0 0 142.5 106.5" style="enable-background:new 0 0 142.5 106.5;" xml:space="preserve">
<style type="text/css">
	.st0{fill:#312D66;}
</style>
<g>
	<path class="st0" d="M25,39.7999992V41.5h-2.2000008c0,0.4000015,0,0.5999985,0,0.9000015c0,6.2000008,0,12.5,0,18.7000008
		c0,1,0,1,1,1c0.3999996,0,0.7999992,0,1.2000008,0v1.7000008h-8.6000004v-1.7000008h2.2000008V42H18.5
		c-0.2000008,0.9000015-0.5,1.9000015-0.7000008,2.7999992c-1.5,6.2000008-3,12.2999992-4.5,18.5
		c-0.1000004,0.4000015-0.3000002,0.5999985-0.6999998,0.5999985c-0.5,0-1.1000004,0-1.6999998,0
		c-1.8000002-7.4000015-3.5-14.7000008-5.3000002-22c-0.0999999,0-0.0999999,0-0.1999998,0c0,0.7000008,0,1.5,0,2.2000008
		c0,5.7000008,0,11.4000015,0,17.0999985c0,1,0,1,1,1c0.4000001,0,0.8000002,0,1.1999998,0v1.7000008H0v-1.7000008h2.2V41.5999985H0
		v-1.7000008h8.6999998C9.8999996,44.9000015,11,50,12.1999998,55h0.1000004c0.3000002-1.2000008,0.6000004-2.5,0.8999996-3.7000008
		C14.0999994,47.7000008,15,44.0999985,15.8999996,40.5C16,40.2000008,16.2999992,39.9000015,16.5,39.9000015
		C19.2999992,39.7999992,22.1000004,39.7999992,25,39.7999992z"/>
	<path class="st0" d="M97.5,57.7999992c0-4.2999992,0-8.6000023,0-12.8999977c0-0.2000008-0.4000015-0.5-0.5999985-0.5999985
		c-1.6999969-0.2999992-2.9000015,0.2999992-3.5,1.9000015c-0.4000015,1-0.5999985,2.0999985-0.6999969,3.2000008
		c-0.3000031,2-0.0999985,4.0999985,0.4000015,6.0999985C93.5999985,57.7999992,95.0999985,58.5,97.5,57.7999992z
		 M101.3000031,57.7999992c2.4000015,0.7000008,3.9000015,0,4.5-2.2000008c0.8000031-3,0.8000031-6.0999985-0.0999985-9
		c-0.5999985-1.7000008-1.8000031-2.4000015-3.5999985-2.2000008c-0.5,0.0999985-0.6999969,0.2999992-0.6999969,0.7999992
		c0,2.7999992,0,5.5999985,0,8.2999992C101.3000031,54.9000015,101.3000031,56.2999992,101.3000031,57.7999992
		L101.3000031,57.7999992z M97.4000015,42.7999992v-2.2000008h-2.0999985v-1.7999992c0.9000015,0,1.6999969,0,2.5,0
		c1.5999985,0,3.3000031,0,4.9000015,0c0.6999969,0,1,0.2000008,0.9000015,0.9000015c0,0.2000008,0,0.5,0,0.7999992h-2.1999969
		v2.0999985c1.3000031,0.0999985,2.5999985,0.0999985,3.9000015,0.4000015c3.1999969,0.7000008,4.9000015,2.7999992,5.5,5.9000015
		c0.4000015,2.2000008,0.3000031,4.5-0.5999985,6.5999985c-1.1999969,2.7000008-3.3000031,4-6.1999969,4.2000008
		c-0.8000031,0-1.6999969-0.0999985-2.5999985-0.0999985v2.5999985h2.1999969v1.7000008h-8.1999969v-1.5999985h2.0999985v-2.7000008
		c-0.5999985,0.0999985-1.0999985,0.0999985-1.6999969,0.0999985C91.5000153,59.9000015,88.6000214,57.2999992,88.1000214,53
		c-0.1999969-1.2999992-0.0999985-2.7999992,0.0999985-4.0999985c0.8000031-4.5999985,4.4000015-6.4000015,8.5-6.0999985
		C96.9000015,42.7000008,97.0999985,42.7999992,97.4000015,42.7999992L97.4000015,42.7999992z"/>
	<path class="st0" d="M67.5999985,55c-0.0999985-1.0999985-0.1999969-2.5-0.5-3.9000015
		C66.9000015,49.8999977,66.1999969,49.5,65,49.5999985c-0.9000015,0.0999985-1.5999985,0.5999985-1.7999992,1.7999992
		c-0.5,2.2000008-0.5999985,4.4000015-0.4000015,6.5999985c0.0999985,1,0.2999992,2,0.5999985,3
		c0.0999985,0.4000015,0.5999985,0.9000015,0.9999962,1.0999985c1.1999969,0.5999985,2.4000015-0.2000008,2.5999985-1.7999992
		C67.3000031,58.7000008,67.4000015,56.9000015,67.5999985,55L67.5999985,55z M62.5999985,62.5c0,1.5,0,2.8000031,0,4.1999969
		C62.5999985,66.7999954,62.7999992,67,63,67c0.2999992,0.0999985,0.5999985,0,0.9000015,0v1.4000015h-6.0999985v-1.3000031
		C58.2000046,67.0999985,58.6000023,67,59.1000023,67V49.7000008c-0.4000015,0-0.7999992-0.0999985-1.2000008-0.0999985v-1.4000015
		C59.4000015,48,61,47.7000008,62.6000023,47.5v2c0.0999985,0,0.2000008,0,0.2999992-0.0999985
		c2.5-3.4000015,6.1999969-1.5999985,7.4000015,1.2000008c1,2.2000008,1.0999985,4.5999985,0.9000015,6.9000015
		c-0.0999985,1.7999992-0.5,3.4000015-1.5999985,4.9000015c-1.6999969,2.3999977-4.5999985,2.5000038-6.5999985,0.4000015
		C62.9000015,62.7000008,62.7999992,62.7000008,62.5999985,62.5L62.5999985,62.5z"/>
	<path class="st0" d="M136.1999969,49.4000015V48h6.1999969v1.2999992C142,49.2999992,141.5,49.3999977,141,49.3999977
		c0,0.5,0,1,0,1.4000015c0,3.5,0,6.9000015,0,10.3999977c0,1.0999985-0.1000061,1.2000008,1.1000061,1.0999985
		c0.1000061,0,0.1999969,0,0.3000031,0.0999985v1.2999992h-6.1999969v-1.2000008l0.1000061-0.0999985
		c1.1999969-0.0999985,1.3000031-0.0999985,1.3000031-1.4000015c0-1.5,0-3,0-4.5999985h-4.5v3.2000008c0,0.5,0,1,0,1.5
		c0,1.2999992,0,1.2999992,1.3000031,1.4000015v1.2999992h-6.1999969v-1.2999992
		c0.3999939,0,0.8000031-0.0999985,1.3000031-0.0999985V49.5c-0.3999939,0-0.8000031-0.0999985-1.3000031-0.0999985V48h6.1999969
		v1.2999992c-0.3999939,0-0.8999939,0.0999985-1.3999939,0.2000008c0,1.5999985,0,3.2000008,0,4.7000008
		c0,0.0999985,0.3000031,0.4000015,0.5,0.4000015c1.1000061,0,2.3000031,0,3.3999939,0c0.3999939,0,0.5-0.2000008,0.5-0.5999985
		c0-1.4000015,0-2.7999992,0-4.0999985c0-0.4000015-0.1999969-0.5999985-0.6000061-0.5
		C136.8000031,49.4000015,136.6000061,49.4000015,136.1999969,49.4000015L136.1999969,49.4000015z"/>
	<path class="st0" d="M26.8999996,49.4000015V48h5.8999996v1.2999992c-0.0999985,0-0.0999985,0.0999985-0.2000008,0.0999985
		c-1.2000008,0.0999985-1.2000008,0.0999985-1.2000008,1.2999992c0,2.2000008,0,4.2999992,0,6.5
		c0,0.2000008,0,0.4000015,0,0.5999985c1-0.9000015,4.5999985-7.5999985,4.5-8.2999992
		c-0.4000015,0-0.7999992-0.0999985-1.2999992-0.0999985V48h5.7999992v1.2999992
		c-0.4000015,0-0.9000015,0.0999985-1.2999992,0.0999985v12.8999977c0.4000015,0,0.9000015,0.0999985,1.2999992,0.0999985v1.2999992
		h-5.7999992v-1.2999992C36,62.0999947,36,62.0999947,36,60.6999931v-6.7999992
		c-0.2000008,0.2999992-0.4000015,0.4000015-0.5,0.5999985c-1.2000008,2.0999985-2.5,4.2000008-3.7000008,6.2999992
		C31,62.1999931,31,62.2999916,32.5999985,62.3999901v1.2999992h-5.7999992v-1.2999992
		c0.3999996,0,0.7999992-0.0999985,1.2999992-0.0999985V49.4000015
		C27.7999992,49.4000015,27.3999996,49.4000015,26.8999996,49.4000015L26.8999996,49.4000015z"/>
	<path class="st0" d="M118.6999969,48v1.4000015c-0.5,0-0.9000015,0-1.3000031,0.0999985v8.2999992h0.0999985
		c0.1999969-0.4000015,0.5-0.7999992,0.6999969-1.2000008c1.0999985-1.9000015,2.3000031-3.9000015,3.4000015-5.9000015
		c0.1999969-0.4000015,0.3000031-0.7999992,0.4000015-1.2999992c-0.5999985,0-1-0.0999985-1.5-0.0999985V48h5.9000015v1.4000015
		c-0.4000015,0-0.9000015,0-1.4000015,0.0999985v12.9000015c0.4000015,0,0.9000015,0.0999985,1.4000015,0.0999985v1.2999992
		h-5.9000015V62.5c0.4000015,0,0.8000031-0.0999985,1.3000031-0.0999985V54c-0.4000015,0.5999985-0.5999985,1-0.9000015,1.5
		c-1.0999985,1.9000015-2.1999969,3.7999992-3.4000015,5.7999992c-0.1999969,0.2999992-0.1999969,0.7000008-0.4000015,1.0999985
		c0.5999985,0,1,0.0999985,1.5,0.0999985v1.2999992h-5.8000031v-1.2999992c0.0999985,0,0.0999985-0.0999985,0.1999969-0.0999985
		c1.1999969-0.0999985,1.1999969-0.0999985,1.1999969-1.2999992c0-3.5999985,0-7.0999985,0-10.7000008c0-0.2999992,0-0.5999985,0-1
		c-0.5,0-0.9000015-0.0999985-1.4000015-0.0999985V48H118.6999969L118.6999969,48z"/>
	<path class="st0" d="M47.0999985,56.4000015c0,1.9000015,0,3.7000008,0,5.5999985c0,0.0999985,0.2999992,0.4000015,0.5,0.4000015
		c0.2000008,0.0999985,0.5,0,0.7999992,0v1.4000015h-6.0999985v-1.2999992c0.4000015,0,0.7999992,0,1.2999992-0.0999985v-13
		c-0.4000015,0-0.7999992-0.0999985-1.2999992-0.0999985V48h6.0999985v1.2999992
		c-0.4000015,0-0.9000015,0.0999985-1.2999992,0.0999985v5.2999992c1.2000008,0.0999985,1.7999992-0.2999992,2.0999985-1.2999992
		c0.2000008-0.7999992,0.2000008-1.5999985,0.2999992-2.4000015c0.0999985-0.7000008,0.2000008-1.4000015,0.5-2.0999985
		c0.5-1.2999992,2.4000015-1.9000015,4.0999985-1.2000008c1.5,0.5999985,2.2000008,2.0999985,1.7999992,3.5
		c-0.2999992,1.0999985-1.2999992,1.5-2.2000008,1.0999985C53,52,52.7000008,51,53.0999985,50
		c0.0999985-0.2000008,0-0.5,0-0.7999992C52.7999992,49.2999992,52.3999977,49.2999992,52.1999969,49.5
		C52,49.5999985,52,50,51.9000015,50.2999992c-0.0999985,0.7000008-0.0999985,1.5-0.0999985,2.2999992
		C51.7000046,53.8999977,51.5000038,55,50.0000038,55.5c0.4000015,0.0999985,0.5999985,0.2000008,0.7999992,0.2999992
		c2,0.5999985,2.9000015,1.5999985,3,3.7000008c0,0.2999992,0,0.5999985,0,0.9000015c0,1.2999992,0.2000008,1.5999985,1.5999985,2
		c0.2000008,1.5,0.2000008,1.5-1.2000008,1.6999969c-2.2999992,0.5-3.7000008-0.9000015-3.9000015-3.4000015
		c-0.0999985-0.9000015-0.2000008-1.9000015-0.5-2.7999992C49.5,56.7999992,48.5,56.2999992,47.0999985,56.4000015
		L47.0999985,56.4000015z"/>
	<path class="st0" d="M82.3000031,55.9000015C82.2000046,54.6000023,82.2000046,53.3000031,82,52
		c-0.0999985-1.0999985-0.3000031-2.0999985-1.5-2.5999985c-1.5999985-0.7000008-3.0999985,0.0999985-3.5,2
		C76.5,54,76.5999985,56.6000023,76.8000031,59.1000023c0.0999985,0.7999992,0.4000015,1.7000008,0.6999969,2.4000015
		c0.1999969,0.5999985,0.8000031,1,1.5,1.0999985c1.5999985,0.2999992,2.9000015-0.7999992,3-2.5999985
		C82.1999969,58.5999985,82.1999969,57.2999992,82.3000031,55.9000015L82.3000031,55.9000015z M85.9000015,56.2000008
		c0,1.7000008-0.4000015,3.5-1.4000015,5.2000008c-2.3000031,3.8000031-7.6999969,4-10,0.2000008
		c-2.1999969-3.5999985-2.1999969-7.4000015-0.0999985-11.2000008C75.5,48.4000015,77.3000031,47.5,79.5999985,47.5
		c2.5,0,4.1999969,1.2999992,5.3000031,3.4000015C85.6999969,52.5999985,86,54.2999992,85.9000015,56.2000008z"/>
	<polygon class="st0" points="142.5,68.5 65.5,68.5 65.5,67.0999985 142.5,67.0999985 	"/>
	<polygon class="st0" points="56.0999985,68.5 0,68.5 0,67.0999985 56.0999985,67.0999985 	"/>
</g>
</svg>
