<?xml version="1.0" encoding="utf-8"?>
<!-- Generator: Adobe Illustrator 26.4.1, SVG Export Plug-In . SVG Version: 6.00 Build 0)  -->
<svg version="1.1" id="Слой_1" xmlns="http://www.w3.org/2000/svg" xmlns:xlink="http://www.w3.org/1999/xlink" x="0px" y="0px"
	 viewBox="0 0 320 194.2274017" style="enable-background:new 0 0 320 194.2274017;" xml:space="preserve">
<style type="text/css">
	.st0{fill:#151599;}
</style>
<g id="_x23_ffffffff">
</g>
<g id="_x23_151599ff">
	<path class="st0" d="M151.0399933,0.8174075C168.5200043-1.5825902,186.75,1.3274096,202.5599976,9.2174053
		c15.8800049,7.9300003,29.2100067,21.0100021,37.1199951,36.9400024
		c8.7200012,17.3799973,10.8500061,37.9600105,5.7600098,56.7400093
		c-4.6800079,17.8799896-16.0100098,33.6499939-30.7299957,44.6999969
		c7.7099915-0.0400085,15.4199982,0.0200043,23.1299896-0.0299988c0.0100098,2.8300018,0.0200043,5.6600037,0.0700073,8.4899902
		c-0.9300079,0.1600037-1.8500061,0.3200073-2.7700043,0.4900055c-0.25,2.7700043-0.3300018,5.5599976-0.3999939,8.3399963
		c3.8399963,0.0299988,7.6799927-0.0099945,11.5299988,0.0299988c-0.4600067-3.1699982,1.4700012-8.769989-3.1999969-9.1299896
		c0.019989-2.7400055,0.0299988-5.4900055,0.0299988-8.2400055c8.4099884,0.0599976,16.8099976,0.0500031,25.2200012,0
		c0.0099792,2.8699951,0.019989,5.7400055,0.0299988,8.6100006c-1.7900085,0.0200043-3.5599976,0.0500031-5.3399963,0.1100006
		c-1.0200195,8.1000061-0.1800232,16.3200073-0.4900208,24.4700012c0.3500061,1.4599915-0.6999817,4.2700043,1.4200134,4.5899963
		c1.4500122,0.1800079,2.9199829,0.3099976,4.3899841,0.3800049c-0.0099792,2.8099976,0,5.6100006,0.0299988,8.4199829
		c-8.4299927,0-16.8499908,0.0100098-25.269989-0.0099792c0.0100098-2.7400055,0.0100098-5.480011,0-8.2200012
		c0.9100037-0.2799988,1.8099976-0.6000061,2.6900024-0.980011c0.75-3.5299988,0.3600006-7.1599884,0.4100037-10.7399902
		c-3.7900085,0.019989-7.5700073-0.0200043-11.3500061,0.0500031c0.0299988,3.5599976-0.2899933,7.1599884,0.4199982,10.6799927
		c0.8899994,0.3899994,1.8100128,0.7599945,2.7400055,1.1100006c-0.0800018,2.6799927-0.0800018,5.3699951,0,8.0599976
		c-8.4100037,0.1100159-16.8200073,0.019989-25.2299957,0.0599976c0.019989-2.8199921,0.0299988-5.6299896,0.0299988-8.4299927
		c1.6699982-0.4000092,3.9700012,0.3300018,5.2899933-0.8899994c0.8899994-3.25,0.2700043-6.7200012,0.4300079-10.0599976
		c-0.2100067-6.0600128,0.4400024-12.1699982-0.3600006-18.1900024c-1.7700043-0.4199982-3.6100006-0.3899994-5.4100037-0.5100098
		c0.0200043-2.3600006,0.0500031-4.719986,0.0899963-7.0699921c-4.5299988,3.0399933-9.3300018,5.6300049-14.2299957,8.0099945
		c2.3500061,8.9000092,4.2899933,17.9100037,6.7899933,26.7600098c0.2799988,1.8300018,2.5200043,1.5800018,3.8100128,2.2200012
		c0,2.719986,0.0099945,5.4299927,0.0399933,8.1499786c-8.7200012-0.0099792-17.4299927,0.0300293-26.1499939-0.019989
		c0-2.8300018,0.0099945-5.6499939-0.0100098-8.4700012c1.2799988-0.0699921,2.5500031-0.1399994,3.8300018-0.2099915
		c-0.0899963-1.0700073-0.1699982-2.1300049-0.2599945-3.1900024c-5.5599976,0.0099945-11.1200104-0.0299988-16.6800079,0.0399933
		c-0.3399963,2.1600037,0.8400116,3.3800049,2.9000092,3.8000031c-0.0100098,2.6800079-0.0100098,5.3600006,0.0099945,8.0400085
		c-7,0.0400085-14,0-20.9900055,0.0099792c-0.019989-2.7599792-0.0099945-5.5099792,0-8.269989
		c1.75-0.519989,4.1399994-0.3099976,4.9200134-2.3399963c2.9199982-6.1100006,4.7299957-12.6799927,7.25-18.9600067
		c-4.980011-0.0599976-9.9500122-0.3499908-14.8800049-1.0599976c-0.6100006,3.6699982-1.3099976,7.8400116-4.6000061,10.1300049
		c-5.8699951,4.3600006-13.6399994,3.7599945-20.5599976,3.8699951c0.0500031,2.6300049,0.090004,5.2700043,0.3800049,7.9000092
		c1.7799988,0.0800018,3.5599976,0.1499939,5.3499908,0.2099915c-0.0099945,2.8300018-0.0099945,5.6699982-0.019989,8.5100098
		c-9.2800064,0.019989-18.5600052,0.0099792-27.8300018,0.0099792c0.0099945-2.8099823,0.0099945-5.6199799,0.0099945-8.4399872
		c1.8300018-0.4799957,5.4500046,0.7799988,5.6399994-2.0200043c0.2000046-8.5499878,0.1900024-17.1399994-0.0099945-25.6999969
		c-0.2300034-2.7399902-3.840004-1.4299927-5.6399994-1.8799896c-0.0100021-2.8400116-0.0200043-5.6700134-0.0200043-8.5
		c3.3199997,0.0099945,6.6399994,0.0099945,9.9599991-0.1500092c11.2600021,8.1800079,24.3499985,13.8200073,38.1100082,16.0299988
		c-0.4600067-5.4700012-3.2900085-10.9199982-8.530014-13.1499939c-9.5999908-4.1500092-20.3999939-3.5899963-30.6299896-3.1999969
		c-14.9800034-11.1000061-25.9900055-27.4600067-30.6000061-45.5200043
		c-4.2799988-16.5299988-3.2099991-34.4600067,3.340004-50.2500038
		c6.9899979-17.3000031,20.4300003-31.5999966,36.6500015-40.6300049
		c-4.1000061,3.9600067-8.8100052,7.3199997-12.3800049,11.8300018
		C96.4499969,35.7774086,90.6299973,53.4074059,91.3300018,70.7874146
		C92.0199966,91.5874176,101,112.4874115,117.1600037,125.9174042
		c-7.7100067-12.2999878-14.9100037-25.4799957-16.890007-40.0699921c-1.75-11.1800079,0.340004-22.6900063,4.9000015-32.970005
		c36.1900024-0.4899979,72.4100037-0.1600037,108.6100006-0.4199982c-2.9299927-15.9200058-12.3600006-30.8100033-26.1100006-39.5
		c-8.0699921-5.340004-19.9799957-5.6900024-27.1900024,1.3199997c-3.4899902,3.0799942-4.7799988,8.8600006-1.6999969,12.659996
		c3.4900055,4.5500031,9.3300018,6.1499996,14.6699982,7.3700008c0.3200073,1.2600021,0.6500092,2.5199966,0.9799957,3.7900009
		c-7.7899933-0.9800034-16.4799957-2.6600037-21.6799927-9.1099987c-3.6300049-4.2600021-3.4600067-10.9700012,0.1100006-15.2099991
		c4.4100037-5.9100037,11.9100037-7.9000015,18.8300018-9.0600052c-7.3699951-2.8399963-15.4199982-4.0099983-23.2700043-3.0599976
		c-1.5899963,0.8099977-3.3999939,0.9100038-5.1499939,0.6999971
		C145.5700073,0.8074092,148.4600067,1.4874095,151.0399933,0.8174075 M162.3800049,146.8774109
		c-0.0100098,3.1799927,0.019989,6.3699951,0,9.5599976c1.8899994,0.0400085,3.7799988,0.1000061,5.6699982,0.1999969
		c-0.8000031,2.6800079-1.7799988,5.3099976-2.7100067,7.9500122c4.2600098-0.1800079,8.5100098-0.5900116,12.730011-1.1900024
		c-1.2200012,3.1799927-2.4300079,6.3799896-3.6500092,9.5599976c2.9600067-0.0100098,5.9199982,0,8.8800049-0.0100098
		c-1.1300049-4.1899872-2.9100037-8.1399994-4.4300079-12.1799927c1.1399994,0.2200012,1.9900055,0.8899994,2.5299988,2.0099945
		c5.8800049-1.1899872,11.6200104-2.9799957,17.1100006-5.3899994c-1.2299957-3.4899902-2.4499969-6.9700012-3.5599976-10.4899902
		C184.1000061,146.8374176,173.2400055,146.8774109,162.3800049,146.8774109 M124.2099991,156.5874176
		c-0.1800003,3.9199982-0.159996,7.8499908-0.0499954,11.769989c2.0499954-0.3399963,4.2399902-0.3699951,6.1100006-1.3799896
		c2.5800018-1.5800018,3.0500031-5.5,1.2899933-7.8500061C129.5599976,157.3374176,126.7200012,157.1374054,124.2099991,156.5874176
		z"/>
	<path class="st0" d="M192.4299927,30.3874111c3.0800018-1,6.4900055,2.2199917,5.530014,5.3299923
		c-0.9400024,3.1500015-5.5,4.4100037-7.6800079,1.8000031C187.9299927,35.327404,189.3000031,30.9474087,192.4299927,30.3874111z"
		/>
	<path class="st0" d="M0.7,114.0674133c3.72-0.0200043,7.4400005-0.0599976,11.1599998,0.0800018
		c-0.46,2.3499908-1.4699993,4.5399933-2.1599998,6.8199921c1.8200006,0.0200043,3.6400003,0.0299988,5.46,0.0299988
		c-0.6899996-2.3099976-1.71-4.5099945-2.0799999-6.9099884c3.6299992-0.0700073,7.25-0.0400085,10.8799992-0.0200043
		c-0.0299988,0.9899902-0.0599995,1.9899902-0.0899982,2.9799957c-2.9900017,1.3999939-1.7300014,5.1199951-1.9900017,7.7299957
		c-0.3899994,2.8400116,2.2300014,4.7100067,2.4300003,7.4500122c-3.6800003,0.0899963-7.3500004,0.0599976-11.0299997,0.0799866
		c0.0500002-0.8999939,0.1100006-1.7899933,0.1700001-2.6699982c1.0799999-1.3099976,1.3200006-2.9799957,1.5799999-4.5899963
		c-1.7699995-0.0299988-3.54-0.0299988-5.3000002,0.0099945c0.4100008,1.5900116,0.8200006,3.2000122,1.71,4.6000061
		c0.04,0.8800049,0.0800009,1.7700043,0.1100006,2.6600037C8.1000004,132.2374115,4.6399999,132.4674072,1.2,132.1674042
		c-2.6400001-1.2899933,0.54-3.2099915,1.6299999-4.2999878c0.04-3.1200104,0.0500002-6.25,0.02-9.3700104
		C1.03,117.6674042,0.95,115.7774048,0.7,114.0674133z"/>
	<path class="st0" d="M27.4400005,114.0974121c7.8599987-0.0400085,15.7199993-0.1199951,23.5799999,0.0500031
		c-0.2799988,1.769989-1.0699997,3.3300018-2.1000023,4.7799988c-0.6099968,3.0299988-0.1399994,6.1799927-0.25,9.2599945
		c0.5200005,0.2299957,1.5500031,0.6900024,2.0700035,0.9199982c-0.0400009,1.0599976-0.0800018,2.1100006-0.1200027,3.1699982
		c-3.6599998,0.0200043-7.3099976,0.0400085-10.9699974,0c1.7099991-4.5800018,2.1099968-9.3999939,1.7699966-14.269989
		c-1.5099983,0.019989-3.0299988,0.0499878-4.5399971,0.0699921c-0.0100021,3.1600037-0.0200005,6.3200073,0.2000008,9.4700012
		c0.8199997,1.4700012,1.3099976,3.0800018,1.7299995,4.7100067c-3.7100029,0.0899963-7.420002,0.0099945-11.1200008,0.0099945
		c0.0199986-0.7400055,0.0699997-2.2100067,0.1000004-2.9499969c0.4399986-0.3399963,1.3399982-1.0100098,1.789999-1.3500061
		c0.3600006-3.1499939,0.1100006-6.3300018,0.1200008-9.4899902
		C27.8500004,117.6874084,27.6299992,115.8574066,27.4400005,114.0974121z"/>
	<path class="st0" d="M59.5200005,114.4874115c4.7700005-1.7200012,11.2400017-0.9799957,14.1099968,3.6499939
		c3.0100021,4.3400116,1.4100037,11.4900055-3.7599945,13.3800049c-4.4700012,1.8500061-10.2700043,1.5800018-13.9800034-1.7599945
		C51.4099998,125.2174072,53.3300018,116.4174042,59.5200005,114.4874115 M62.4900017,128.5974121
		c1.3599968-0.2200012,3.4999962,0.3999939,3.8599968-1.4499969c0.7700043-2.7700043,0.2900009-5.6900024,0.0999985-8.5100098
		c-0.6899948-0.3600006-2.0499954-1.0800018-2.7399979-1.4400024
		C60.5800018,120.227417,61.9300003,124.8174133,62.4900017,128.5974121z"/>
	<path class="st0" d="M0,147.5874176c13.4200001,0,26.8299999,0.0099945,40.25-0.0200043
		c0.0400009,5.3499908,0.0200005,10.6999969,0.0099983,16.0500031c-3.1099968-0.0200043-6.2199974-0.0299988-9.329998,0
		c-0.6900005-2.0900116-0.460001-4.8400116-2.3199997-6.3000031c-2.2800007-0.5299988-4.6400013-0.3899994-6.9500008-0.5100098
		c0.1599998,9.3100128-0.3799992,18.6500092,0.2399998,27.9400024c1.5799999,1.0400085,3.6599998,0.6999969,5.4400005,1.1000061
		c0,2.7599945,0,5.5200043,0.0100002,8.2799835C18.2399998,194.1374054,9.1199999,194.1174164,0,194.1374054v-8.4299927
		c1.73-0.1699982,3.45-0.3300018,5.1799998-0.5200043C5.3000002,175.5674133,5.5500002,165.9274139,5,156.3274078
		C3.3299999,156.247406,1.67,156.1874084,0,156.1474152V147.5874176z"/>
	<path class="st0" d="M51.2299995,147.5574036c10.3100014,0.0400085,20.6300011,0.0800018,30.9399986-0.019989
		c3.9700012,11.8699951,7.5500031,23.8699951,11.6500015,35.6900024c0.5100021,2.0999908,2.8600006,2.2099915,4.5599976,2.75
		c-0.0099945,2.719986-0.0099945,5.4399872,0,8.1699982c-8.7199936-0.0299988-17.4300003-0.0200195-26.1499939,0
		c0.0299988-2.8500061,0.0399933-5.6900024,0.0299988-8.5299988c1.3600006-0.0900116,2.7299957-0.1800079,4.0999985-0.2799988
		c-0.1800003-0.780014-0.5200043-2.3400116-0.6999969-3.1200104c-5.4000015,0.1200104-10.8100052-0.1900024-16.2000046,0.1300049
		c-1.2900009,2.1300049,0.75,3.4700012,2.6500015,3.6999969c0.0200005,2.6900024,0.0200005,5.3699951,0.0499992,8.0599976
		c-7,0.0400085-14.0099983,0.019989-21.0099983,0.019989c0.0099983-2.7499847,0.0099983-5.4999847-0.0100021-8.2399902
		c1.9000015-0.4400024,4.420002-0.4899902,5.1100006-2.75c3.5299988-8.7999878,6.7599983-17.7399902,9.8100014-26.7200012
		c-1.6200027-0.1100006-3.2299995-0.1999969-4.8500023-0.2799988
		C51.2099991,153.2774048,51.2099991,150.4174042,51.2299995,147.5574036 M67.8899994,159.3074036
		c-1.659996,4.5500031-3.3199997,9.1000061-4.9300003,13.6700134c3.1699982-0.0700073,6.3300018-0.0800018,9.5-0.0200043
		C70.9700012,168.3874054,69.5599976,163.8074036,67.8899994,159.3074036z"/>
	<path class="st0" d="M272.3900146,147.5674133c15.8699951,0.0299988,31.7399902,0.0200043,47.6099854,0.0200043v15.719986
		c-2.7900085-0.1299896-5.5799866-0.0999908-8.3699951-0.0999908c-0.5500183-2.0700073-1.0899963-4.1300049-1.6600037-6.1900024
		c-1.7399902-0.0599976-3.4700012-0.1000061-5.2000122-0.1399994c0.25,9.5500031-0.5499878,19.1600037,0.5299988,28.6699982
		c1.730011,0.0099945,3.460022,0.0200043,5.1900024,0.0200043c-0.0099792,2.8799896-0.0099792,5.7700043,0,8.6599884
		c-9.289978-0.0299988-18.5699768-0.019989-27.8599854,0c0.0100098-2.8599854,0.0100098-5.7099915,0.0100098-8.5699921
		c1.8699951-0.0899963,3.7399902-0.1799927,5.6199951-0.3000031c0.3499756-9.5800018,0.1600037-19.1799927,0.1199951-28.769989
		c-1.7600098,0.2399902-3.5500183,0.3699951-5.2600098,0.8499908c-0.7399902,1.8699951-1.1600037,3.8500061-1.6399841,5.8000031
		c-3.0299988-0.0200043-6.0599976-0.0200043-9.0899963-0.0200043
		C272.4100037,158.0074158,272.4100037,152.7874146,272.3900146,147.5674133z"/>
</g>
</svg>
