<?xml version="1.0" encoding="UTF-8" ?>
<!DOCTYPE svg PUBLIC "-//W3C//DTD SVG 1.1//EN" "http://www.w3.org/Graphics/SVG/1.1/DTD/svg11.dtd">
<svg width="66pt" height="66pt" viewBox="0 0 66 66" version="1.1" xmlns="http://www.w3.org/2000/svg">
<g id="#00b1cafe">
<path fill="#00b1ca" opacity="1.00" d=" M 31.04 0.00 L 34.68 0.00 C 51.00 0.58 65.22 14.69 66.00 31.00 L 66.00 34.54 C 65.52 50.91 51.39 65.18 35.06 66.00 L 31.36 66.00 C 15.06 65.44 0.83 51.39 0.00 35.11 L 0.00 31.63 C 0.39 15.16 14.63 0.76 31.04 0.00 M 26.47 3.72 C 22.11 4.69 18.00 6.69 14.48 9.44 C 3.78 17.56 -0.11 33.23 5.70 45.37 C 11.38 58.54 27.26 66.05 41.04 61.90 C 55.97 58.04 66.03 41.52 62.28 26.49 C 59.15 10.81 42.04 -0.21 26.47 3.72 Z" />
<path fill="#00b1ca" opacity="1.00" d=" M 17.33 25.11 C 19.53 23.68 22.80 24.52 23.79 27.01 C 23.91 28.74 23.95 30.46 23.97 32.19 C 21.76 32.21 19.55 32.20 17.34 32.24 L 15.97 32.19 C 16.24 29.86 15.05 26.73 17.33 25.11 Z" />
</g>
<g id="#fe236cff">
<path fill="#fe236c" opacity="1.00" d=" M 10.39 16.13 C 12.17 16.12 13.96 16.12 15.74 16.12 C 15.77 21.57 15.73 27.03 15.76 32.48 C 15.93 32.48 16.27 32.48 16.44 32.48 C 27.66 32.53 38.88 32.49 50.11 32.50 C 52.32 32.50 54.54 32.50 56.75 32.50 C 56.75 37.94 56.76 43.38 56.75 48.82 C 54.92 48.83 53.08 48.83 51.25 48.82 C 51.24 47.03 51.25 45.24 51.24 43.45 C 39.41 43.43 27.59 43.43 15.76 43.45 C 15.75 45.24 15.76 47.03 15.75 48.82 C 13.96 48.83 12.18 48.83 10.39 48.82 C 10.38 37.92 10.39 27.03 10.39 16.13 Z" />
</g>
<g id="#b2ebf2ff">
<path fill="#b2ebf2" opacity="1.00" d=" M 23.79 27.01 C 30.88 27.02 37.98 26.94 45.08 27.04 C 47.91 27.14 49.95 29.81 50.11 32.50 C 38.88 32.49 27.66 32.53 16.44 32.48 L 17.34 32.24 C 19.55 32.20 21.76 32.21 23.97 32.19 C 23.95 30.46 23.91 28.74 23.79 27.01 Z" />
</g>
</svg>
