<?xml version="1.0" encoding="utf-8"?>
<!-- Generator: Adobe Illustrator 26.4.1, SVG Export Plug-In . SVG Version: 6.00 Build 0)  -->
<svg version="1.1" id="Слой_1" xmlns="http://www.w3.org/2000/svg" xmlns:xlink="http://www.w3.org/1999/xlink" x="0px" y="0px"
	 viewBox="0 0 64.5207825 60.0000267" style="enable-background:new 0 0 64.5207825 60.0000267;" xml:space="preserve">
<style type="text/css">
	.st0{fill:#007032;}
</style>
<path class="st0" d="M59.427742,5.8420415c-3.3988037-3.5942385-8.0852356-5.6925354-13.0299988-5.8340149
	c-4.9455872-0.1449585-9.746582,1.6784973-13.348999,5.0700073l-0.8160095,0.7690125
	C25.1637325-1.623962,13.354743-1.9699399,5.8587403,5.0740361c-7.4980011,7.0440068-7.8450012,18.8099976-0.776001,26.282011
	l1.8379974,1.9400043c-0.7759399,1.7904358-0.5275726,3.8599854,0.6499939,5.4159851
	c1.1804204,1.5585632,3.1049047,2.3659058,5.0439916,2.1159973c-0.3285522,1.7053833,0.1852417,3.4645386,1.3800049,4.7250061
	c1.1976624,1.2632446,2.9283438,1.8757324,4.6539907,1.6470032c-0.3283691,1.7050476,0.1854248,3.4638367,1.3800049,4.723999
	c1.1975403,1.2627258,2.9278564,1.8748169,4.6530151,1.6459961c-0.4268494,2.3173218,0.687561,4.645813,2.7600098,5.7669983
	c2.0742798,1.1252747,4.6360798,0.7956848,6.3580036-0.8179932c6.1369934-5.7739868,5.9450073-5.4849854,6.5239868-6.4580078
	c1.79599,0.8800049,3.9299927,0.7049866,5.5580139-0.4549866c1.6256104-1.1567383,2.4814453-3.1152344,2.2260132-5.0939941
	c1.7099915,0.3200073,3.4700012-0.196991,4.7349854-1.3880005c1.2634583-1.1886902,1.8794556-2.9116821,1.6560059-4.6319885
	c2.3339539,0.4289246,4.6781616-0.6965027,5.803009-2.7860107c1.1204834-2.0869751,0.7582397-4.6595764-0.894989-6.3559895
	c6.8099976-7.1449871,6.8200073-18.3500023,0.0220032-25.5079937h-0.0010071L59.427742,5.8420415z M9.5277472,37.7210388
	c-1.2545929-1.3265381-1.1962738-3.4189758,0.1302643-4.673584c0.0019073-0.0018005,0.00383-0.0036011,0.0057373-0.0054016
	l5.5919952-5.2609863c1.3389578-1.2304382,3.4174185-1.1592102,4.6690054,0.1600037
	c1.2493286,1.3174438,1.199707,3.3966351-0.1109924,4.6530151l-5.5929861,5.2619934
	c-1.3354492,1.25177-3.4307556,1.1914978-4.6920013-0.1350098H9.5277624L9.5277472,37.7210388z M15.5627508,44.092041
	c-1.2546387-1.3249817-1.1976013-3.4161987,0.1274109-4.6708374c0.002533-0.0023804,0.0050659-0.0047913,0.0075989-0.0071716
	l5.5920095-5.2619934c1.3352051-1.2538452,3.4326172-1.1930542,4.6929932,0.1359863
	c1.2538757,1.3226624,1.1981201,3.4113464-0.1245117,4.6652527c-0.0041504,0.0039062-0.0083008,0.007843-0.0124817,0.0117493
	l-5.5920105,5.2619934c-1.3368835,1.2492371-3.4309998,1.1867371-4.6910086-0.1400146v0.0050049V44.092041z M21.5947628,50.4620361
	c-1.2537842-1.3265686-1.1947632-3.418335,0.1318054-4.6721191c0.0017395-0.0016174,0.0034485-0.0032654,0.005188-0.0048828
	l5.5920105-5.2609863c1.3435974-1.1741943,3.3741455-1.0798035,4.6029968,0.2139893
	c1.225832,1.2915649,1.205904,3.3227234-0.0450134,4.5899963l-5.5929871,5.2619934
	c-1.3347473,1.2547607-3.4324341,1.1953125-4.6940002-0.1329956v0.006012V50.4620361z M32.3227615,56.9690247
	c-0.8641071,0.8118896-2.0947895,1.1028748-3.2309895,0.7640076c-1.1350403-0.3371277-2.0038452-1.2543945-2.2789917-2.4060059
	c-0.2736206-1.1509094,0.0895691-2.36026,0.9519958-3.1700134l5.5920124-5.2619934
	c1.3389587-1.2304382,3.4174194-1.1592102,4.6690063,0.1600037c1.2493286,1.3174438,1.199707,3.396637-0.1109924,4.6530151
	l-5.5920105,5.2609863H32.3227615z M57.7587662,37.5560303c-1.3320618,1.2583923-3.4320679,1.1986694-4.6904602-0.1333923
	c-0.0005188-0.0005493-0.0010071-0.0010681-0.0015259-0.0016174L38.7367935,22.2910156
	c-0.4080811-0.4313354-1.0881348-0.4514771-1.5209961-0.0450134c-0.4307556,0.4045715-0.4519653,1.0817261-0.0474243,1.5124512
	c0.0007935,0.0008545,0.0016174,0.001709,0.0024109,0.0025635l14.3340149,15.1300049
	c0.8140564,0.8580322,1.1066589,2.0860901,0.7669983,3.2189941c-0.3413391,1.1337891-1.2615051,1.9994507-2.4140015,2.2709961
	c-1.1535034,0.2730713-2.3651733-0.0880432-3.1809998-0.947998L32.3437881,28.302002
	c-0.409914-0.4317627-1.092226-0.4494934-1.5240192-0.0395813c-0.1351013,0.1282654-0.2346802,0.2893677-0.2889709,0.4675903
	c-0.1100159,0.3670044-0.0154419,0.764801,0.2479858,1.0429993l14.3299885,15.1270142
	c1.1313782,1.1918335,1.2119751,3.0349426,0.1889954,4.3210144c-1.0255432,1.288269-2.8396912,1.6315308-4.2650146,0.8070068
	c0.2230225-1.5315857-0.2223816-3.0852051-1.2229919-4.2659912c-1.0028076-1.1833801-2.4633484-1.8819885-4.0140076-1.9200134
	c-1.1830139-0.0299988-0.7529907,0.4150085-0.7229919-0.7630005c0.0422974-1.4463196-0.4935913-2.8498535-1.4890137-3.8999939
	c-0.997345-1.0527344-2.3714619-1.6669617-3.8210163-1.7080078c-1.1830139-0.0369873-0.7579956,0.4289856-0.7229919-0.7640076
	c0.0418091-1.4464111-0.4943848-2.8499146-1.4899902-3.8999939c-0.9975281-1.0524616-2.371521-1.666626-3.8210144-1.7080078
	c-1.1900024-0.0329895-0.7579956,0.4389935-0.7229919-0.7630005c0.0563965-2.2040405-1.2192383-4.2254028-3.2330017-5.1229858
	c-2.0161133-0.9013062-4.3759756-0.5073547-5.9899893,1c-7.6900029,7.2319946-5.0359955,4.7399902-5.6100006,5.2789898
	l-1.5240026-1.6079998c-6.2539978-6.6099854-5.9459991-17.0190125,0.6869965-23.25
	c6.6330113-6.2309875,17.0800018-5.9249878,23.3339996,0.6849976l-8.8080139,8.2879944
	c-0.8346558,0.7966909-1.3263855,1.887023-1.3710022,3.0400076c-0.1080017,4.3999939,6.4620056,7.1719971,10.4760132,3.3859863
	l8.02701-7.5480032c0.4321899-0.406311,1.1114502-0.3871155,1.519989,0.0429993
	c2.1099854,2.2269888,15.3569946,16.2160034,17.381012,18.3510132c1.254425,1.3221436,1.1995239,3.4108582-0.1226196,4.6652832
	c-0.0041199,0.0039368-0.0082397,0.0078125-0.0123901,0.0117188h-0.0010071H57.7587662z M57.9427567,29.8080444
	L42.0767593,13.0560312c-1.2246094-1.2922363-3.2637634-1.3503723-4.5599976-0.1300049l-8.028017,7.5499868
	c-1.7775269,1.6714783-4.5734863,1.5855103-6.2449951-0.1919861c-0.8355103-0.8821411-0.7977295-2.2745972,0.0844421-3.1101379
	c0.0038452-0.0036316,0.0076904-0.0072632,0.0115662-0.0108643l11.1839924-10.526001
	c6.4769897-6.1099854,16.6529846-5.9899902,22.9819946,0.2730103
	C63.8357315,13.1720285,64.0287552,23.3110352,57.9427567,29.8080444z"/>
<path class="st0" d="M59.427742,5.8420415c-3.3988037-3.5942385-8.0852356-5.6925354-13.0299988-5.8340149
	c-4.9455872-0.1449585-9.746582,1.6784973-13.348999,5.0700073l-0.8160095,0.7690125
	C25.1637325-1.623962,13.354743-1.9699399,5.8587403,5.0740361c-7.4980011,7.0440068-7.8450012,18.8099976-0.776001,26.282011
	l1.8379974,1.9400043c-0.7759399,1.7904358-0.5275726,3.8599854,0.6499939,5.4159851
	c1.1804204,1.5585632,3.1049047,2.3659058,5.0439916,2.1159973c-0.3285522,1.7053833,0.1852417,3.4645386,1.3800049,4.7250061
	c1.1976624,1.2632446,2.9283438,1.8757324,4.6539907,1.6470032c-0.3283691,1.7050476,0.1854248,3.4638367,1.3800049,4.723999
	c1.1975403,1.2627258,2.9278564,1.8748169,4.6530151,1.6459961c-0.4268494,2.3173218,0.687561,4.645813,2.7600098,5.7669983
	c2.0742798,1.1252747,4.6360798,0.7956848,6.3580036-0.8179932c6.1369934-5.7739868,5.9450073-5.4849854,6.5239868-6.4580078
	c1.79599,0.8800049,3.9299927,0.7049866,5.5580139-0.4549866c1.6256104-1.1567383,2.4814453-3.1152344,2.2260132-5.0939941
	c1.7099915,0.3200073,3.4700012-0.196991,4.7349854-1.3880005c1.2634583-1.1886902,1.8794556-2.9116821,1.6560059-4.6319885
	c2.3339539,0.4289246,4.6781616-0.6965027,5.803009-2.7860107c1.1204834-2.0869751,0.7582397-4.6595764-0.894989-6.3559895
	c6.8099976-7.1449871,6.8200073-18.3500023,0.0220032-25.5079937h-0.0010071L59.427742,5.8420415z M9.5277472,37.7210388
	c-1.2545929-1.3265381-1.1962738-3.4189758,0.1302643-4.673584c0.0019073-0.0018005,0.00383-0.0036011,0.0057373-0.0054016
	l5.5919952-5.2609863c1.3389578-1.2304382,3.4174185-1.1592102,4.6690054,0.1600037
	c1.2493286,1.3174438,1.199707,3.3966351-0.1109924,4.6530151l-5.5929861,5.2619934
	c-1.3354492,1.25177-3.4307556,1.1914978-4.6920013-0.1350098H9.5277624L9.5277472,37.7210388z M15.5627508,44.092041
	c-1.2546387-1.3249817-1.1976013-3.4161987,0.1274109-4.6708374c0.002533-0.0023804,0.0050659-0.0047913,0.0075989-0.0071716
	l5.5920095-5.2619934c1.3352051-1.2538452,3.4326172-1.1930542,4.6929932,0.1359863
	c1.2538757,1.3226624,1.1981201,3.4113464-0.1245117,4.6652527c-0.0041504,0.0039062-0.0083008,0.007843-0.0124817,0.0117493
	l-5.5920105,5.2619934c-1.3368835,1.2492371-3.4309998,1.1867371-4.6910086-0.1400146v0.0050049V44.092041z M21.5947628,50.4620361
	c-1.2537842-1.3265686-1.1947632-3.418335,0.1318054-4.6721191c0.0017395-0.0016174,0.0034485-0.0032654,0.005188-0.0048828
	l5.5920105-5.2609863c1.3435974-1.1741943,3.3741455-1.0798035,4.6029968,0.2139893
	c1.225832,1.2915649,1.205904,3.3227234-0.0450134,4.5899963l-5.5929871,5.2619934
	c-1.3347473,1.2547607-3.4324341,1.1953125-4.6940002-0.1329956v0.006012V50.4620361z M32.3227615,56.9690247
	c-0.8641071,0.8118896-2.0947895,1.1028748-3.2309895,0.7640076c-1.1350403-0.3371277-2.0038452-1.2543945-2.2789917-2.4060059
	c-0.2736206-1.1509094,0.0895691-2.36026,0.9519958-3.1700134l5.5920124-5.2619934
	c1.3389587-1.2304382,3.4174194-1.1592102,4.6690063,0.1600037c1.2493286,1.3174438,1.199707,3.396637-0.1109924,4.6530151
	l-5.5920105,5.2609863H32.3227615z M57.7587662,37.5560303c-1.3320618,1.2583923-3.4320679,1.1986694-4.6904602-0.1333923
	c-0.0005188-0.0005493-0.0010071-0.0010681-0.0015259-0.0016174L38.7367935,22.2910156
	c-0.4080811-0.4313354-1.0881348-0.4514771-1.5209961-0.0450134c-0.4307556,0.4045715-0.4519653,1.0817261-0.0474243,1.5124512
	c0.0007935,0.0008545,0.0016174,0.001709,0.0024109,0.0025635l14.3340149,15.1300049
	c0.8140564,0.8580322,1.1066589,2.0860901,0.7669983,3.2189941c-0.3413391,1.1337891-1.2615051,1.9994507-2.4140015,2.2709961
	c-1.1535034,0.2730713-2.3651733-0.0880432-3.1809998-0.947998L32.3437881,28.302002
	c-0.409914-0.4317627-1.092226-0.4494934-1.5240192-0.0395813c-0.1351013,0.1282654-0.2346802,0.2893677-0.2889709,0.4675903
	c-0.1100159,0.3670044-0.0154419,0.764801,0.2479858,1.0429993l14.3299885,15.1270142
	c1.1313782,1.1918335,1.2119751,3.0349426,0.1889954,4.3210144c-1.0255432,1.288269-2.8396912,1.6315308-4.2650146,0.8070068
	c0.2230225-1.5315857-0.2223816-3.0852051-1.2229919-4.2659912c-1.0028076-1.1833801-2.4633484-1.8819885-4.0140076-1.9200134
	c-1.1830139-0.0299988-0.7529907,0.4150085-0.7229919-0.7630005c0.0422974-1.4463196-0.4935913-2.8498535-1.4890137-3.8999939
	c-0.997345-1.0527344-2.3714619-1.6669617-3.8210163-1.7080078c-1.1830139-0.0369873-0.7579956,0.4289856-0.7229919-0.7640076
	c0.0418091-1.4464111-0.4943848-2.8499146-1.4899902-3.8999939c-0.9975281-1.0524616-2.371521-1.666626-3.8210144-1.7080078
	c-1.1900024-0.0329895-0.7579956,0.4389935-0.7229919-0.7630005c0.0563965-2.2040405-1.2192383-4.2254028-3.2330017-5.1229858
	c-2.0161133-0.9013062-4.3759756-0.5073547-5.9899893,1c-7.6900029,7.2319946-5.0359955,4.7399902-5.6100006,5.2789898
	l-1.5240026-1.6079998c-6.2539978-6.6099854-5.9459991-17.0190125,0.6869965-23.25
	c6.6330113-6.2309875,17.0800018-5.9249878,23.3339996,0.6849976l-8.8080139,8.2879944
	c-0.8346558,0.7966909-1.3263855,1.887023-1.3710022,3.0400076c-0.1080017,4.3999939,6.4620056,7.1719971,10.4760132,3.3859863
	l8.02701-7.5480032c0.4321899-0.406311,1.1114502-0.3871155,1.519989,0.0429993
	c2.1099854,2.2269888,15.3569946,16.2160034,17.381012,18.3510132c1.254425,1.3221436,1.1995239,3.4108582-0.1226196,4.6652832
	c-0.0041199,0.0039368-0.0082397,0.0078125-0.0123901,0.0117188h-0.0010071H57.7587662z M57.9427567,29.8080444
	L42.0767593,13.0560312c-1.2246094-1.2922363-3.2637634-1.3503723-4.5599976-0.1300049l-8.028017,7.5499868
	c-1.7775269,1.6714783-4.5734863,1.5855103-6.2449951-0.1919861c-0.8355103-0.8821411-0.7977295-2.2745972,0.0844421-3.1101379
	c0.0038452-0.0036316,0.0076904-0.0072632,0.0115662-0.0108643l11.1839924-10.526001
	c6.4769897-6.1099854,16.6529846-5.9899902,22.9819946,0.2730103
	C63.8357315,13.1720285,64.0287552,23.3110352,57.9427567,29.8080444z"/>
</svg>
