<?xml version="1.0" encoding="utf-8"?>
<!-- Generator: Adobe Illustrator 26.4.1, SVG Export Plug-In . SVG Version: 6.00 Build 0)  -->
<svg version="1.1" id="Слой_1" xmlns="http://www.w3.org/2000/svg" xmlns:xlink="http://www.w3.org/1999/xlink" x="0px" y="0px"
	 viewBox="0 0 284.7875366 130.8924866" style="enable-background:new 0 0 284.7875366 130.8924866;" xml:space="preserve">
<style type="text/css">
	.st0{fill:#D24A43;}
	.st1{fill:#42517A;}
</style>
<g>
	<g id="sign_51_">
		<path id="fire_50_" class="st0" d="M254.6000061,109.7924881L244.5,99.6924896l-10.1000061,10.0999985L244.5,130.8924866
			L254.6000061,109.7924881z"/>
		<circle id="location_44_" class="st1" cx="244.5" cy="48.7924805" r="7"/>
		<path id="rocket_51_" class="st1" d="M244.5,10.2924833c-2.1000061,1.1000004-30.1000061,15.8000002-30.1000061,39.3999977
			c0,20.2000046,16.3999939,50.7000046,16.3999939,50.7000046l13.6000061-13.5999985L258,100.3924866
			c0,0,16.3999939-30.5999985,16.3999939-50.7000046C274.6000061,26.0924835,246.6999969,11.3924847,244.5,10.2924833z
			 M253.5,77.5924911l-9-9l-9,9c-0.5-1.2000046-6.5-17.6000099-6.5-28.2000084c0-14.4000015,14.3999939-22.3999977,15.5-22.9999981
			c1.1000061,0.6000004,15.5,8.5999966,15.5,22.9999981C260,59.9924812,254,76.2924881,253.5,77.5924911z"/>
		<path id="star_51_" class="st1" d="M264.2814331,10.2532272L274.5343018,0l10.2532349,10.2528696L274.534668,20.5060959
			L264.2814331,10.2532272z"/>
	</g>
	<path id="logotype_8_" class="st1" d="M178,20.4924831c0,2.1000004-1,3.3999996-2.6999969,3.3999996
		s-2.6999969-1.2999992-2.6999969-3.3999996h-8.6999969c0.1999969,6.3999996,3.8999939,10.7000008,11.5,10.7000008
		c7,0,11-4.3999996,11.1999969-10.7000008H178z M159.5,63.692482V33.5924797h10.1000061v14
		c0,1-0.1999969,2.2000008-0.1999969,2.2000008h0.3999939l11-16.2000008h9.6000061v30.0999985h-10.1000061V49.5924797
		c0-1,0.1999969-2,0.1999969-2h-0.3999939l-11,16.0999985C169.1000061,63.6924782,159.5,63.6924782,159.5,63.692482z
		 M138.6999969,32.7924843c9.6000061,0,16.6999969,6.7999992,16.6999969,15.7999992s-7.1000061,15.8000031-16.6999969,15.8000031
		c-9.5,0-16.5999985-6.8000031-16.5999985-15.8000031S129.1999969,32.7924843,138.6999969,32.7924843z M138.6999969,55.0924835
		c3.6999969,0,6.1000061-2.7999992,6.1000061-6.4000015c0-3.7000008-2.3999939-6.5-6.1000061-6.5
		c-3.6000061,0-6.1000061,2.7999992-6.1000061,6.5C132.5999908,52.192482,135.0999908,55.0924835,138.6999969,55.0924835z
		 M110,33.5924797c0,0-8.4000015,10.9000015-8.8000031,11.4000015s-0.5,0.7999992-0.5,0.7999992h-0.4000015
		c0,0-0.0999985-0.2999992-0.5-0.7999992c-0.5999985-0.7000008-9.3000031-11.4000015-9.3000031-11.4000015h-8v30.0999985h9.6999969
		V51.0924797c0-1.4000015-0.1999969-2.2000008-0.1999969-2.2000008h0.4000015l7.8000031,9h0.4000015l7.1999969-9h0.4000015
		c0,0-0.1999969,0.7999992-0.1999969,2.2000008v12.5999985h9.6999969V33.5924797H110z M18.1000004,69.992485
		c-5.1000004,0-10.4000006,2.8000031-12.3000002,7H5.5c0.0999999-0.4000015,0.3000002-0.9000015,0.3000002-1.3000031
		c0.5-6.5,3.0999994-11.5999985,8.1000004-13.4000053c3.1999998-1.0999985,6.3000002-1.5999985,8.6999998-2.0999985
		c2.5-0.5,5.1999989-1.2000008,6.6999989-1.5999985l-1.7000008-5.0999985
		c-2.7999992,0.7999992-5.3999996,1.2999992-9.7999992,2.2000008c-1.8000002,0.4000015-3.8999996,0.7000008-6.1999998,1.7000008
		C3.5,60.7924805,0,67.5924835,0,80.2924881c0,11.4000015,5.6999998,20.4000015,16.6000004,20.4000015
		c10.1000004,0,16.2000027-7.8000031,16.2000027-15.6999969C32.8000031,75.8924942,27.0000038,69.9924927,18.1000004,69.992485z
		 M16.7000008,95.692482c-6.6999998,0-10.6000004-6.1999969-10.6000004-13.1999969
		c1.5999999-4.0999985,6.5-7.4000015,10.6999989-7.4000015c6.1000004,0,10,3.8000031,10,10.3000031
		C26.6999989,91.2924881,22.3999996,95.6924896,16.7000008,95.692482z M43,91.192482h-0.2999992
		C42.7999992,90.692482,43,89.992485,43,89.2924805V69.5924835h-6V99.692482h5.4000015l17.2000008-21.5999985h0.2999992
		c-0.0999985,0.5-0.2999992,1.3000031-0.2999992,2V99.692482h6.0000038v-30h-5.4000015L43,91.192482z M88.3000031,84.2924805
		c3.5-1.4000015,5.3000031-3.6999969,5.3000031-7.1999969c0-5-4.0999985-8.1999969-11.3000031-8.1999969
		c-4.1999969,0-8.5,1.1999969-12.0999985,3.9000015l2.4000015,4.3000031c2.6999969-2.0999985,6.0999985-3.1999969,9-3.1999969
		c3.9000015,0,6.0999985,1.5999985,6.0999985,4.3000031c0,2.4000015-1.9000015,4.0999985-4.9000015,4.0999985H78v4.6999893h5
		c3.6999969,0,5.5,1.3000031,5.5,3.6999969c0,2.9000015-3,4.9000015-7.4000015,4.9000015
		c-3.1999969,0-6.9000015-1.4000015-9.3000031-3.3000031l-2.4000015,4.3000031
		c2.5999985,2.4000015,7.0999985,4.0999985,12.4000015,4.0999985c7.1999969,0,12.6999969-3.8000031,12.6999969-9.3000031
		C94.5999908,87.692482,92.2999954,84.7924805,88.3000031,84.2924805z M120.9000015,81.9924774h-16.0999985V69.692482h-6v30h6v-13
		h16.0999985v13h6v-30h-6V81.9924774z M145.6999969,68.8924789c-8.8000031,0-14.6000061,6.9000015-14.6000061,16.0999985
		c0,9,5.8000031,15.8000031,16.3000031,15.8000031c5.1000061,0,9.3999939-1.5999985,12.5-4.0999985L157.5,92.3924789
		c-2.3000031,1.6999969-5.8000031,3.3000031-10,3.3000031c-6.6000061,0-9.8000031-3.5999985-10.3000031-8.8000031h23
		c0.1000061-0.5999985,0.1000061-1.1999969,0.1000061-1.9000015
		C160.3000031,75.7924805,155.9000092,68.8924789,145.6999969,68.8924789z M137.3000031,82.192482
		c0.8000031-4.6999969,4.1999969-8.3000031,8.6000061-8.3000031c5.3999939,0,8.1000061,3.5999985,8.5,8.3000031H137.3000031z
		 M181,95.492485c-6.1000061,0-10.6000061-4.5999985-10.6000061-11.0999985c0-5.5999985,3.6000061-10.4000015,10.3000031-10.4000015
		c3,0,6.1000061,0.8000031,9.6000061,3.0999985c0,0,1.5-2.8000031,2.3999939-4.4000015
		c-3.6000061-2.5999985-7.8000031-3.8000031-12.1999969-3.8000031c-9.6999969,0-16.1999969,6.8000031-16.1999969,16
		c0,8.9000015,6.5,16,16.3000031,16c4.8000031,0,9-1.4000015,12.1000061-3.9000015l-2.3999939-4.3000031
		c-2.3000031,1.5-5.6000061,2.8000031-9.3000031,2.8000031L181,95.492485z"/>
</g>
</svg>
