<?xml version="1.0" encoding="utf-8"?>
<!-- Generator: Adobe Illustrator 26.4.1, SVG Export Plug-In . SVG Version: 6.00 Build 0)  -->
<svg version="1.1" id="Слой_1" xmlns="http://www.w3.org/2000/svg" xmlns:xlink="http://www.w3.org/1999/xlink" x="0px" y="0px"
	 viewBox="0 0 120.8307343 37.7494621" style="enable-background:new 0 0 120.8307343 37.7494621;" xml:space="preserve">
<style type="text/css">
	.st0{fill:#25B7B9;}
</style>
<path class="st0" d="M3.6863837,3.6600001C8.1963835-0.47,14.6963835,0.45,20.2963829,0.47
	C18.4263821,2.1999998,16.6563835,4.0599999,14.5763845,5.54c-2.0700006,0.6100001-4.4400005,0.4700003-6.2200003,1.8299999
	c-2.6000004,1.5300007-2.9200006,5.3500004-1.2400007,7.6599998c1.8400002,2.000001,4.5799999,2.6500006,7.2000008,2.71
	c-0.0100002,1.7800007-0.0100002,3.5500011-0.0100002,5.3299999C10.2363834,23.1700001,5.7763839,22.25,2.946384,19.1100006
	C-1.2636162,15.04-0.9136162,7.3100004,3.6863837,3.6600001z"/>
<path class="st0" d="M25.3763828,0.4899999c4.460001-0.22,8.9400005,0,13.3999996-0.05
	c-2.4199982,1.9399998-4.3899994,4.6100001-7.3699989,5.7200003C31.3363838,11.7700005,31.3963814,17.3899994,31.3663826,23
	c-1.9899998-0.0100002-3.9799995-0.0100002-5.9699993-0.0200005c0.0200005-5.6999989,0.0100002-11.3999996,0.0100002-17.0900002
	c-2.0799999-0.02-4.1599998-0.04-6.2399998-0.0600004C21.2363834,4.0599999,23.0763836,1.98,25.3763828,0.4899999z"/>
<path class="st0" d="M43.4463844,0.45c5.1800003-0.0500001,10.3599968-0.0500001,15.5399971,0
	C57.006382,2.28,55.0163841,4.0900002,52.9963837,5.8700004c-3.170002,0-6.3300018,0-9.4900017-0.0100002
	c-0.0200005,1.02-0.0299988,2.0499997-0.0499992,3.0700002C46.5963821,8.96,49.7463837,8.96,52.8863831,8.9400005
	c0.0400009,1.8399992,0.0600014,3.6799994,0.0900002,5.5199995c-3.170002,0-6.3300018,0-9.4900017,0.0100002
	c0,1.0500002,0,2.0899992,0,3.1400003c3.1500015,0,6.3100014,0,9.4700012,0
	C52.9463844,19.4099998,52.9463844,21.2000008,52.9463844,23c-5.170002-0.0200005-10.3400002,0.0200005-15.5100021-0.0300007
	c0.0299988-5.75-0.0699997-11.4899988,0.0699997-17.2299995C39.5563812,4.0599999,41.5263824,2.29,43.4463844,0.45z"/>
<path class="st0" d="M73.2463837,0.41c2.6200027,0.01,5.25,0.01,7.8700027,0.03
	C77.9563904,4.1000004,74.6463852,7.6100006,71.426384,11.21c2.2900009,2.1199999,4.6100006,4.21,6.9000015,6.3300009
	c1.2700043-1.3900013,2.5400009-2.7900009,3.8099976-4.1900005c0.0400009,3.5200005,0.0400009,7.0499992,0.0400009,10.5699997
	c2.9900055-2.8600006,5.7800064-5.9599991,8.9000015-8.6900005c2.6699982-0.8599997,5.6600037-0.1899996,8.4599991-0.3399992
	c-3.659996,3.7400007-7.3899994,7.4199991-11.0899963,11.1199999c3.8499985,3.75,7.659996,7.5300007,11.4499969,11.3500004
	c-2.6699982,0.0099983-5.3399963,0.0099983-8.0100021,0.0099983c-2.5199966-2.3899994-5.1399994-4.6899986-7.4799957-7.2599983
	c-3.1699982,0.9899979-2.090004,4.7299995-2.2600021,7.2200012c-1.9700012-0.0100021-3.9399948-0.0100021-5.9000015-0.0100021
	c-0.0099945-4.5299988-0.0499954-9.0599995,0.0300064-13.5799999c-2.9300003-3.039999-6.2000046-5.7199993-9.3100052-8.5799999
	c-3.0099983,1.6300011-2.9199982,4.8600006-2.7200012,7.8299999c-1.9799995,0-3.9599991,0-5.9400024-0.0100002
	c0.0200005-5.8799992-0.0199966-11.7599993,0.0300026-17.6399994C60.3363838,3.5799997,62.2963829,1.78,64.2663879,0
	c0,3.22,0.0100021,6.4400001,0.0899963,9.6599998C67.2963867,6.5500002,70.2863846,3.4999998,73.2463837,0.41z"/>
<path class="st0" d="M106.5763855,14.7300005c3.1500015-0.9200001,6.6900024-0.3800001,9.4800034,1.329999
	c6.8499985,4.7200012,6.2699966,16.9899998-1.3600006,20.6600018c-3.1800003,1.3899994-7.0800018,1.4099998-10.2000046-0.170002
	C96.0863876,32.2700005,97.0463867,17,106.5763855,14.7300005 M107.3663864,20.4300003
	c-4.2600021,2.75-3.1900024,12.1699982,2.7600021,11.8499985c4.2699966-0.2899971,5.3199997-5.7399979,4.0599976-9.0699978
	C113.5663834,20.3299999,109.7963867,18.7600002,107.3663864,20.4300003z"/>
</svg>
