<?xml version="1.0" encoding="UTF-8" ?>
<!DOCTYPE svg PUBLIC "-//W3C//DTD SVG 1.1//EN" "http://www.w3.org/Graphics/SVG/1.1/DTD/svg11.dtd">
<svg width="73pt" height="68pt" viewBox="0 0 73 68" version="1.1" xmlns="http://www.w3.org/2000/svg">
<g id="#e5761eff">
<path fill="#e5761e" opacity="1.00" d=" M 29.67 0.00 L 34.86 0.00 C 36.17 0.97 37.67 2.17 37.50 4.01 C 36.78 7.77 33.30 10.26 32.41 13.94 C 33.01 15.43 33.98 16.73 34.85 18.07 C 31.70 18.42 27.49 17.62 26.75 13.96 C 27.28 10.01 31.40 7.76 32.38 3.99 C 31.74 2.50 30.72 1.22 29.67 0.00 Z" />
<path fill="#e5761e" opacity="1.00" d=" M 41.62 0.00 L 46.49 0.00 C 47.91 0.85 49.49 2.17 49.22 4.04 C 48.65 7.78 45.07 10.19 44.24 13.83 C 44.62 15.44 45.80 16.70 46.62 18.10 C 43.47 18.41 39.35 17.59 38.51 14.00 C 39.11 10.05 43.11 7.78 44.18 4.05 C 43.54 2.58 42.59 1.27 41.62 0.00 Z" />
<path fill="#e5761e" opacity="1.00" d=" M 11.64 23.00 C 29.12 23.00 46.60 22.99 64.09 23.07 C 68.60 22.92 72.51 26.47 73.00 30.93 L 73.00 33.52 C 72.58 35.85 71.87 38.37 69.86 39.83 C 66.91 42.30 62.86 41.88 59.29 42.07 C 57.81 45.22 56.39 48.45 54.21 51.19 C 51.17 54.80 46.62 56.83 42.08 57.81 C 34.46 58.58 25.45 58.27 20.06 51.97 C 12.82 44.18 12.60 32.97 11.64 23.00 M 17.94 28.01 C 18.07 32.94 18.81 37.92 20.68 42.51 C 22.69 47.40 26.91 51.51 32.12 52.77 C 37.17 53.40 42.71 53.40 46.96 50.18 C 54.41 45.55 54.49 35.74 55.07 27.96 C 42.69 28.00 30.31 28.00 17.94 28.01 M 60.95 28.14 C 60.61 31.14 60.26 34.15 59.88 37.15 C 62.05 36.84 64.75 37.13 66.26 35.19 C 67.71 33.71 67.37 31.28 66.33 29.66 C 65.03 28.01 62.81 28.19 60.95 28.14 Z" />
<path fill="#e5761e" opacity="1.00" d=" M 0.00 60.60 C 1.49 59.73 2.10 57.95 3.02 56.58 C 12.58 61.33 23.38 62.73 33.94 62.93 C 45.92 63.02 58.16 61.87 69.30 57.17 C 70.16 58.76 71.02 60.35 71.88 61.93 C 61.53 65.93 50.42 67.53 39.39 68.00 L 32.43 68.00 C 21.34 67.74 10.35 65.60 0.00 61.62 L 0.00 60.60 Z" />
</g>
</svg>
