<svg enable-background="new 0 0 712.6 103.4" viewBox="0 0 712.6 103.4" xmlns="http://www.w3.org/2000/svg"><g fill="#34495e"><path d="m451.8 102.4v-100.3h67.7v18.9h-45.2v19.7h40.1v18.5h-40.1v24.2h48.5v18.9h-71zm117-101.5c15.1 0 26.5 2.7 34.6 8 8 5.4 12 13.7 12 25 0 7.1-1.6 12.8-4.8 17.1-3.2 4.4-7.9 7.8-13.9 10.4 2.1 2.5 4.1 5.4 6.3 8.6s4.4 6.6 6.6 10.1c2.1 3.5 4.3 7.2 6.3 11 2.1 3.8 3.9 7.5 5.6 11.3h-25.2c-1.8-3.2-3.7-6.6-5.6-10s-3.8-6.7-5.8-9.8c-2-3.2-4-6.2-5.9-9-1.9-2.9-3.9-5.4-5.8-7.8h-11.2v36.6h-22.6v-98.9c4.9-1 10-1.7 15.3-2.1 5.3-.3 10-.5 14.1-.5zm1.4 19.3c-1.7 0-3.1.1-4.4.2s-2.5.2-3.7.3v27.2h6.3c8.5 0 14.6-1 18.2-3.2 3.6-2.1 5.5-5.7 5.5-10.9 0-4.9-1.8-8.4-5.5-10.5s-9.2-3.1-16.4-3.1zm95.9-19.3c15 0 26.5 2.6 34.5 7.9 8 5.2 12 13.9 12 25.8 0 12-4 20.8-12.1 26.1-8.1 5.4-19.7 8-34.7 8h-7.1v33.6h-22.6v-98.8c4.9-1 10.1-1.7 15.6-2.1 5.5-.3 10.2-.5 14.4-.5zm1.5 19.3c-1.7 0-3.2.1-4.8.2s-2.9.2-4.1.3v28.9h7.1c7.8 0 13.7-1 17.7-3.2 4-2.1 5.9-6.1 5.9-11.9 0-2.8-.5-5.2-1.5-7s-2.5-3.3-4.4-4.4-4.2-1.9-6.9-2.3c-2.8-.4-5.8-.6-9-.6z"/><g clip-rule="evenodd" fill-rule="evenodd"><path d="m397 63.7h-16.3v-62h-35.5l-57.3 62.9v19.8h65v19h27.8v-19h16.3zm-80.5 0 35.7-39.5.7-.6v40.1z"/><path d="m221.8 81.3 13.7-6.9c9.6-4.7 17.4-9.1 23.3-13.4 6-4.3 10.3-8.6 13.1-13.1s4.2-9.3 4.2-14.4c0-6.6-1.9-12.5-5.8-17.5s-9.3-9-16.3-11.8-15.1-4.2-24.5-4.2c-9.8 0-18.6 1.6-26.4 4.7s-14 7.6-18.7 13.4-7.3 12.7-7.8 20.6h27.9c.4-3.2 1.4-6 3.1-8.6s4.3-4.6 7.7-6.2 7.8-2.4 13.2-2.4c4.3 0 7.9.6 10.9 1.8s5.2 2.8 6.7 4.8 2.2 4.4 2.2 7.2c0 2.5-.8 4.9-2.4 7.1-1.6 2.3-4.3 4.7-8 7.4s-9 5.9-15.7 9.8l-43.4 24.4v19.3h100.1v-22.1h-56.9z"/><path d="m82.2 1.6h-82.2l41.1 41.1z"/><path d="m123 1.6-50.9 50.9 50.9 50.9h38.1l-50.9-50.9 50.9-50.9z"/><path d="m0 103.4h82.2l-41.1-41.1z"/></g><path d="m436.4 31c0 3.9-1.2 6.8-3.7 8.9s-5.2 3-8.4 3-5.9-1-8.4-3c-2.5-2.1-3.7-5-3.7-8.9s1.2-6.8 3.7-8.9 5.2-3 8.4-3 5.9 1 8.4 3c2.5 2.1 3.7 5 3.7 8.9z"/><path d="m436.4 76.9c0 3.9-1.2 6.8-3.7 8.9s-5.2 3-8.4 3-5.9-1-8.4-3c-2.5-2.1-3.7-5-3.7-8.9s1.2-6.8 3.7-8.9 5.2-3 8.4-3 5.9 1 8.4 3c2.5 2.1 3.7 5.1 3.7 8.9z"/></g></svg>