<?xml version="1.0" encoding="utf-8"?>
<!-- Generator: Adobe Illustrator 26.4.1, SVG Export Plug-In . SVG Version: 6.00 Build 0)  -->
<svg version="1.1" id="Слой_1" xmlns="http://www.w3.org/2000/svg" xmlns:xlink="http://www.w3.org/1999/xlink" x="0px" y="0px"
	 viewBox="0 0 12.8129854 13.7730007" style="enable-background:new 0 0 12.8129854 13.7730007;" xml:space="preserve">
<style type="text/css">
	.st0{fill:#9DD45F;}
	.st1{fill:#E1E360;}
</style>
<path class="st0" d="M7.1719856,3.4780033c0.9300003,0,1.7189999,0.3280001,2.3660002,0.9849999
	c0.6470003,0.6570005,0.9700003,1.4650002,0.9700003,2.4240007s-0.323,1.7679996-0.9700003,2.427
	c-0.6156063,0.6461067-1.4737129,1.0047998-2.3660002,0.9890003v2c1.5819998,0,2.9180002-0.5299997,4.007-1.5869999
	c1.0900002-1.0579996,1.6339998-2.3330002,1.6339998-3.8260002c0-1.4920006-0.5450001-2.7690001-1.6339998-3.8290002
	c-1.0900002-1.0599999-2.4250002-1.59-4.007-1.59C7.1719856,1.4710039,7.1719856,3.4780037,7.1719856,3.4780033z"/>
<path id="svg_2" class="st1" d="M7.1719999,11.2210007c-1.1820002,0-2.1849999-0.4169998-3.0079999-1.2530003
	c-0.823-0.835-1.234-1.8620005-1.234-3.0810003c0-1.2200003,0.411-2.2480001,1.234-3.0870001
	c0.823-0.8380001,1.8259997-1.257,3.0079999-1.257V0c-2.0109997,0-3.71,0.672-5.0939999,2.0179999
	C0.692,3.3629999,0,4.9840002,0,6.882s0.692,3.5209999,2.0780001,4.8690004
	C3.4619999,13.099,5.1610003,13.7730007,7.1719999,13.7730007V11.2210007z"/>
</svg>
