<?xml version="1.0" encoding="utf-8"?>
<!-- Generator: Adobe Illustrator 26.4.1, SVG Export Plug-In . SVG Version: 6.00 Build 0)  -->
<svg version="1.1" id="Слой_1" xmlns:svgjs="http://svgjs.com/svgjs"
	 xmlns="http://www.w3.org/2000/svg" xmlns:xlink="http://www.w3.org/1999/xlink" x="0px" y="0px" viewBox="0 0 512 512"
	 style="enable-background:new 0 0 512 512;" xml:space="preserve">
<g>
	<path d="M255.9680023,5.329C114.6240005,5.329,0,120.401001,0,262.3529968
		c0,113.5360107,73.3440018,209.8559875,175.1040039,243.8719788c12.8000031,2.3680115,17.4720001-5.5679932,17.4720001-12.3840027
		c0-6.1119995-0.223999-22.2720032-0.352005-43.7120056c-71.1999969,15.519989-86.2399979-34.4639893-86.2399979-34.4639893
		c-11.6159973-29.6959839-28.4160004-37.6000061-28.4160004-37.6000061
		c-23.2639999-15.9360046,1.7279968-15.6159973,1.7279968-15.6159973
		c25.6959991,1.8240051,39.2000046,26.4960022,39.2000046,26.4960022
		c22.8479919,39.2640076,59.9360046,27.9360046,74.5279999,21.3439941
		c2.3040009-16.6080017,8.9279938-27.9360046,16.2559967-34.3680115
		c-56.8320007-6.4960022-116.6080017-28.5440063-116.6080017-127.0079956c0-28.0639954,9.9840012-51.0079956,26.3679962-68.9920044
		c-2.6559982-6.4960022-11.423996-32.6399994,2.4960022-68c0,0,21.5039978-6.9120026,70.4000092,26.3359985
		c20.4160004-5.6959991,42.3040009-8.5440063,64.0960083-8.6399994c21.7279968,0.128006,43.6480103,2.9440002,64.0960083,8.6719971
		c48.8639832-33.2480011,70.3359985-26.3359985,70.3359985-26.3359985c13.9519958,35.3919983,5.1839905,61.5039978,2.5599976,68
		c16.4159851,17.9839935,26.3039856,40.9279938,26.3039856,68.9919891c0,98.7200012-59.8399963,120.447998-116.8640137,126.8160095
		c9.1839905,7.9360046,17.3760071,23.6159973,17.3760071,47.5840149c0,34.3680115-0.3200073,62.0800171-0.3200073,70.4960022
		c0,6.8800049,4.6080017,14.8800049,17.6000061,12.3519897C438.7200012,472.144989,512,375.8569946,512,262.3529968
		C512,120.401001,397.3760071,5.329,255.9680023,5.329z"/>
</g>
</svg>
