<?xml version="1.0" encoding="utf-8"?>
<!-- Generator: Adobe Illustrator 26.4.1, SVG Export Plug-In . SVG Version: 6.00 Build 0)  -->
<svg version="1.1" id="Слой_1" xmlns="http://www.w3.org/2000/svg" xmlns:xlink="http://www.w3.org/1999/xlink" x="0px" y="0px"
	 viewBox="0 0 512 512" style="enable-background:new 0 0 512 512;" xml:space="preserve">
<g id="Слой_1_00000144303154415194227350000016808058713066973848_" xmlns:svgjs="http://svgjs.com/svgjs">
</g>
<g id="Слой_2_00000011719344572717522970000011733196494224141723_">
	<g>
		<path d="M138.6867523,253.654129l-49.197731-74.4327698l48.7736282-74.8568954h-35.8380127L69.7675247,155.258667
			l-32.2330856-50.8942032H0.4241185l48.7735748,74.2207108L0,253.654129h36.2620888l32.6571159-51.1062622l32.8692474,51.1062622
			H138.6867523z"/>
		<path d="M201.3349762,141.474823c-28.6279907,0-44.9565582,15.6923828-47.9253693,34.5656433h28.8400421
			c1.6964722-5.7256012,7.210022-10.602951,17.812973-10.602951c10.3908997,0,18.0250397,5.3014679,18.0250397,15.4803162v5.0894165
			h-23.9626923c-27.991806,0-44.956543,12.9356079-44.956543,35.4138794c0,22.0541534,16.9647369,34.7776947,38.1706543,34.7776947
			c14.2079468,0,25.6591492-5.5135193,32.4450378-14.4199982v11.8753052h28.6279907v-71.6760101
			C248.4121094,155.258667,229.5388336,141.474823,201.3349762,141.474823z M195.8214417,232.2361603
			c-9.5426636,0-15.6923828-4.6653137-15.6923828-12.2994537c0-7.8461761,6.7858887-12.5114746,16.3285522-12.5114746h21.6300507
			v4.8773499C218.0876617,225.0261383,207.6967621,232.2361603,195.8214417,232.2361603z"/>
		<path d="M334.2053223,145.9280701c-15.2682495,0-27.7797241,5.5135345-35.8379822,16.7526703
			c2.120575-20.5697479,10.3908691-30.7485809,31.1726685-33.9294739l41.7756653-6.1497116V95.6700363l-44.7444763,7.4220734
			c-43.2600708,7.2100067-56.619812,36.0500565-56.619812,84.1874924c0,43.2600708,20.993866,68.91922,58.1042175,68.91922
			c33.2933044,0,53.8630371-25.4470978,53.8630371-55.9836121
			C381.9186401,167.3460388,362.833313,145.9280701,334.2053223,145.9280701z M326.5711975,230.3276215
			c-16.1165161,0-25.0229797-12.9356079-25.0229797-30.3244629c0-16.7526855,9.3305969-28.8400574,25.2350159-28.8400574
			c15.4803467,0,24.1747742,12.5114899,24.1747742,29.0521088S342.475647,230.3276215,326.5711975,230.3276215z"/>
		<path d="M464.4987183,141.474823c-16.1164856,0-26.5073853,6.9979553-32.0209045,15.2682495v-12.7235413h-29.6882935v150.1379089
			h30.9606323v-51.1062775c5.5135498,7.63414,15.9044189,13.1476593,29.9003601,13.1476593
			C490.5820007,256.198822,512,234.9929199,512,198.9428558C512,162.2566223,490.5820007,141.474823,464.4987183,141.474823z
			 M457.0766602,229.4793701c-14.4200439,0-23.9627075-11.6632538-23.9627075-30.1123962v-0.8482361
			c0-18.4491425,9.5426636-30.3244629,23.9627075-30.3244629c14.4200134,0,23.7506104,12.0873718,23.7506104,30.7485809
			S471.4966736,229.4793701,457.0766602,229.4793701z"/>
	</g>
	<g>
		<path d="M71.4447937,390.2382812l-46.4459534-50.1343384l45.6263123-46.0361328H54.9154892l-42.7575836,42.8941956v-42.8941956H0
			v96.1704712h12.1579046v-45.8995361l43.1674271,45.8995361H71.4447937z"/>
		<path d="M108.2207108,319.8862915c-15.7096634,0-25.2720642,8.8793945-27.4577637,19.5346375h11.3383026
			c1.912468-5.0544128,6.8302841-9.1525879,15.8462753-9.1525879c8.8793716,0,15.5730515,4.781189,15.5730515,14.3435974v4.6445923
			h-18.3051682c-16.802536,0-27.047966,8.0597534-27.047966,21.3105164c0,13.1141357,10.3820496,21.1738892,23.7693939,21.1738892
			c8.7428055,0,16.9391479-3.2785645,22.1301498-9.6990051v8.1963501h11.0650787v-45.6263428
			C135.1320648,329.1754761,124.3402176,319.8862915,108.2207108,319.8862915z M103.4395065,381.4954834
			c-7.6499252,0-13.3873444-3.8249512-13.3873444-11.0650635c0-7.376709,6.4204483-11.2016602,15.8462753-11.2016602h17.622139
			v5.0544128C123.5205765,374.8018188,114.3679733,381.4954834,103.4395065,381.4954834z"/>
		<path d="M188.8509216,319.8862915c-11.8847198,0-19.1248016,5.4642334-22.5383301,11.3382874v-9.8356018h-11.3382568v94.940979
			h11.7480621v-34.5612488c3.2769012,5.0544128,10.6536102,9.972229,21.7186737,9.972229
			c15.846283,0,31.4193268-11.6115112,31.4193268-35.9273376
			C219.8603973,331.6343994,204.4239655,319.8862915,188.8509216,319.8862915z M187.3482513,381.0856934
			c-12.704361,0-21.0356598-9.6990356-21.0356598-24.9988708v-0.5464172c0-15.2998352,8.3312988-24.9988708,21.0356598-24.9988708
			c12.2945099,0,20.49086,10.2454529,20.49086,25.2720642C207.8391113,370.8402405,199.6427612,381.0856934,187.3482513,381.0856934
			z"/>
		<path d="M263.3994141,343.6557007h-15.4364929v-22.2667236H236.214859v68.8493042h27.0479279
			c14.753418,0,24.3157959-10.1088562,24.3157959-23.4962158S278.0162048,343.6557007,263.3994141,343.6557007z
			 M261.8967285,379.8562317h-13.9338074v-25.8184814h13.9338074c9.0159912,0,13.9338074,5.3276062,13.9338074,12.7043152
			S270.9127197,379.8562317,261.8967285,379.8562317z"/>
		<path d="M361.6517029,359.3653564v-6.0106506c0-20.4908447-11.7480469-33.4684143-30.0532532-33.4684143
			c-18.851593,0-32.3755493,13.6605835-32.3755493,35.9273071c0,22.1301575,13.3873291,35.9273376,33.3317871,35.9273376
			c17.8953247,0,26.5015564-11.2016907,28.2774048-19.2614136h-11.8847046
			c-1.2294922,3.5517273-6.6937256,8.7427673-16.256134,8.7427673c-12.7043152,0-21.1738281-9.2891846-21.1738281-21.5837097
			v-0.2732239H361.6517029z M331.3251953,330.4049377c11.0651245,0,17.8954163,7.1035156,18.441803,18.9881897h-38.1129761
			C312.6102295,338.0548706,319.8503723,330.4049377,331.3251953,330.4049377z"/>
		<path d="M411.90625,319.8862915c-11.8847046,0-19.1247864,5.4642334-22.5399475,11.3382874v-9.8356018h-11.3382568v94.940979
			h11.7480774v-34.5612488c3.2785645,5.0544128,10.6552124,9.972229,21.7203369,9.972229
			c15.8462524,0,31.419342-11.6115112,31.419342-35.9273376C442.915802,331.6343994,427.4792786,319.8862915,411.90625,319.8862915z
			 M410.4035645,381.0856934c-12.7043457,0-21.037262-9.6990356-21.037262-24.9988708v-0.5464172
			c0-15.2998352,8.3329163-24.9988708,21.037262-24.9988708c12.2944946,0,20.4908447,10.2454529,20.4908447,25.2720642
			C430.8944092,370.8402405,422.6980591,381.0856934,410.4035645,381.0856934z"/>
		<path d="M485.0886536,319.8862915c-15.7096558,0-25.2720642,8.8793945-27.4577332,19.5346375h11.3382568
			c1.9125366-5.0544128,6.8302917-9.1525879,15.8463135-9.1525879c8.8793945,0,15.5730286,4.781189,15.5730286,14.3435974v4.6445923
			H482.083374c-16.8025513,0-27.0480042,8.0597534-27.0480042,21.3105164c0,13.1141357,10.3821106,21.1738892,23.7694397,21.1738892
			c8.7427979,0,16.9391479-3.2785645,22.1301575-9.6990051v8.1963501H512v-45.6263428
			C512,329.1754761,501.2081909,319.8862915,485.0886536,319.8862915z M480.3074341,381.4954834
			c-7.6498718,0-13.3873291-3.8249512-13.3873291-11.0650635c0-7.376709,6.4204712-11.2016602,15.8463135-11.2016602h17.6221008
			v5.0544128C500.3885193,374.8018188,491.2359009,381.4954834,480.3074341,381.4954834z"/>
	</g>
</g>
</svg>
