<?xml version="1.0" encoding="utf-8"?>
<!-- Generator: Adobe Illustrator 26.4.1, SVG Export Plug-In . SVG Version: 6.00 Build 0)  -->
<svg version="1.1" id="Слой_1" xmlns:svgjs="http://svgjs.com/svgjs"
	 xmlns="http://www.w3.org/2000/svg" xmlns:xlink="http://www.w3.org/1999/xlink" x="0px" y="0px" viewBox="0 0 512 512"
	 style="enable-background:new 0 0 512 512;" xml:space="preserve">
<style type="text/css">
	.st0{fill-rule:evenodd;clip-rule:evenodd;}
	.st1{fill-rule:evenodd;clip-rule:evenodd;fill:#FFFFFF;}
</style>
<g transform="translate(0 0)">
	<circle class="st0" cx="256" cy="256" r="256"/>
	<path class="st1" d="M143.0454865,135.3508453v87.0765839c13.253479-15.7988586,29.1474304-23.7714233,47.5794373-23.7714233
		c9.4939423,0,17.9931335,1.8139343,25.621933,5.4125671c7.6507416,3.5839996,13.3705139,8.1700592,17.2251434,13.7289124
		c3.8765717,5.6320038,6.5097198,11.776001,7.9213562,18.5636749c1.4116669,6.7510834,2.1211548,17.2617188,2.1211548,31.5026093
		v93.1108704h-41.2013702v-83.8363647c0-16.6473083-0.746048-27.1871796-2.3113098-31.6708679
		c-1.5652618-4.498291-4.3154297-8.0457001-8.2651367-10.6569214c-3.9716492-2.6697083-8.9234314-3.9935913-14.8772583-3.9935913
		c-6.8169098,0-12.9462891,1.7115326-18.2710876,5.0980682c-5.4272003,3.4157562-9.3476562,8.5211487-11.812561,15.3380432
		c-2.5234222,6.824234-3.7741852,16.8960114-3.7303009,30.2445831l-0.0438843,79.5062866h-41.1355438V135.3581696h41.1794281"/>
	<path class="st1" d="M305.2543945,135.3508453v87.0765839c13.2608032-15.7988586,29.1401367-23.7714233,47.5721436-23.7714233
		c9.4573669,0,18.0151062,1.8139343,25.6585083,5.4125671c7.6068726,3.5839996,13.3339233,8.1700592,17.1885681,13.7289124
		c3.8765564,5.6320038,6.5097046,11.776001,7.9140625,18.5636749c1.4116516,6.7510834,2.1211548,17.2617188,2.1211548,31.5026093
		v93.1108704h-41.1648254v-83.8363647c0-16.6473083-0.7606812-27.1871796-2.3405762-31.6708679
		c-1.5652466-4.498291-4.3154297-8.0457001-8.2797546-10.6569214c-3.9277649-2.6697083-8.9088135-3.9935913-14.8699646-3.9935913
		c-6.8168945,0-12.9462891,1.7115326-18.2710876,5.0980682c-5.3687134,3.4157562-9.2891541,8.5211487-11.8052368,15.3380432
		c-2.4722595,6.824234-3.7302856,16.8960114-3.7302856,30.2445831v79.5062866H264.118866V135.3581696h41.150177"/>
</g>
</svg>
