<?xml version="1.0" encoding="utf-8"?>
<!-- Generator: Adobe Illustrator 26.4.1, SVG Export Plug-In . SVG Version: 6.00 Build 0)  -->
<svg version="1.1" id="Слой_1" xmlns:svgjs="http://svgjs.com/svgjs"
	 xmlns="http://www.w3.org/2000/svg" xmlns:xlink="http://www.w3.org/1999/xlink" x="0px" y="0px" viewBox="0 0 512 512"
	 style="enable-background:new 0 0 512 512;" xml:space="preserve">
<style type="text/css">
	.st0{fill:#FFFFFF;}
</style>
<g>
	<path class="st0" d="M352,0H160C71.6480103,0,0,71.6480103,0,160v192c0,88.3519897,71.6480103,160,160,160h192
		c88.3519897,0,160-71.6480103,160-160V160C512,71.6480103,440.3519897,0,352,0z M464,352c0,61.7600098-50.2399902,112-112,112H160
		c-61.7600098,0-112-50.2399902-112-112V160C48,98.2399902,98.2399902,48,160,48h192c61.7600098,0,112,50.2399902,112,112V352z"/>
	<path class="st0" d="M256,128c-70.6879883,0-128,57.3120117-128,128s57.3120117,128,128,128s128-57.3120117,128-128
		S326.6879883,128,256,128z M256,336c-44.0960083,0-80-35.9039917-80-80c0-44.1279907,35.9039917-80,80-80s80,35.8720093,80,80
		C336,300.0960083,300.0960083,336,256,336z"/>
	
		<ellipse transform="matrix(0.9732491 -0.2297526 0.2297526 0.9732491 -16.6735382 93.5979385)" class="st0" cx="393.6000366" cy="118.4000015" rx="17.0560303" ry="17.0559845"/>
</g>
</svg>
