<?xml version="1.0" encoding="utf-8"?>
<!-- Generator: Adobe Illustrator 26.4.1, SVG Export Plug-In . SVG Version: 6.00 Build 0)  -->
<svg version="1.1" id="Слой_1" xmlns:svgjs="http://svgjs.com/svgjs"
	 xmlns="http://www.w3.org/2000/svg" xmlns:xlink="http://www.w3.org/1999/xlink" x="0px" y="0px" viewBox="0 0 512 512"
	 style="enable-background:new 0 0 512 512;" xml:space="preserve">
<path d="M442.1818237,0H69.8181763C31.258667,0,0,31.258667,0,69.8181763v372.3636475C0,480.741333,31.258667,512,69.8181763,512
	h372.3636475C480.741333,512,512,480.741333,512,442.1818237V69.8181763C512,31.258667,480.741333,0,442.1818237,0z
	 M174.5454712,212.3636475v192.7854004c0.0321045,5.9606323-4.7738647,10.8186646-10.734436,10.850769
	c-0.0194092,0.0001221-0.0388794,0.0001221-0.0582886,0.0001221h-45.9927368
	c-5.9606323,0.0161133-10.8057251-4.8028564-10.8218384-10.7634888c-0.000061-0.0194702-0.000061-0.0388794,0-0.0582886V212.3635864
	c0-5.9766846,4.8450928-10.8218384,10.8218384-10.8218384h45.9927368
	c5.965332,0.0160522,10.7927246,4.8564453,10.7927246,10.8218384V212.3636475z M140.7999878,183.2727051
	c-24.0996704,0-43.6363525-19.5366211-43.6363525-43.6363525C97.1636353,115.5366821,116.7003174,96,140.7999878,96
	c24.0997314,0,43.6364136,19.5366821,43.6364136,43.6363525
	C184.4364014,163.736084,164.8997192,183.2727051,140.7999878,183.2727051z M414.9527588,312.727356v93.3235474
	c0.0160522,5.4786987-4.4122314,9.9330444-9.8908691,9.9490967c-0.0194092,0.000061-0.0388184,0.000061-0.0582275,0h-49.4545288
	c-5.4786987,0.0160522-9.9330444-4.4121704-9.9490967-9.8908081c-0.000061-0.0194092-0.000061-0.0388794,0-0.0582886v-90.4436035
	c0-13.4981689,3.9563599-59.1127319-35.2872925-59.1127319c-30.3999634,0-36.5963745,31.2145386-37.8181763,45.2363892v104.3200073
	c0.0005493,5.4384155-4.3657837,9.8695679-9.8036499,9.9490967H214.923645
	c-5.4786377,0.000061-9.9200439-4.4412842-9.9200439-9.9199829c0-0.0096436,0-0.0194092,0.000061-0.0291138V211.5200195
	c-0.0161133-5.4786377,4.4122314-9.9329224,9.8908691-9.9490356c0.0097046,0,0.0194092,0,0.0291138,0h47.7672729
	c5.494751,0,9.9490967,4.4543457,9.9490967,9.9490356v16.8145752
	c11.2872925-16.9309082,28.0145264-29.9927368,63.7091064-29.9927368
	C415.4182129,198.3418579,414.9527588,272.1745605,414.9527588,312.727356z"/>
</svg>
