<?xml version="1.0" encoding="utf-8"?>
<!-- Generator: Adobe Illustrator 26.4.1, SVG Export Plug-In . SVG Version: 6.00 Build 0)  -->
<svg version="1.1" id="Слой_1" xmlns:svgjs="http://svgjs.com/svgjs"
	 xmlns="http://www.w3.org/2000/svg" xmlns:xlink="http://www.w3.org/1999/xlink" x="0px" y="0px" viewBox="0 0 512 512"
	 style="enable-background:new 0 0 512 512;" xml:space="preserve">
<style type="text/css">
	.st0{fill:#FFFFFF;}
</style>
<g>
	<g id="Layer_2">
		<g id="linkedin">
			<path id="background" class="st0" d="M69.8181839,0h372.3636475C480.7413635,0,512,31.2586632,512,69.8181839v372.3636475
				C512,480.7413635,480.7413635,512,442.1818237,512H69.8181839C31.2586632,512,0,480.7413635,0,442.1818237V69.8181839
				C0,31.2586632,31.2586632,0,69.8181839,0z"/>
			<g id="icon">
				<path d="M184.4363708,139.6363678c0,24.0997009-19.5366669,43.6363678-43.6363678,43.6363678
					s-43.6363602-19.5366669-43.6363602-43.6363678S116.7003098,96,140.8000031,96S184.4363708,115.5366669,184.4363708,139.6363678
					z"/>
				<path d="M174.5454559,212.3636475v192.7854309c0.032135,5.9605713-4.773819,10.8186035-10.7343903,10.850708
					c-0.0194397,0.0001221-0.0388947,0.0001831-0.0583344,0.0001831h-45.9927292
					c-5.96064,0.0160522-10.8057327-4.8029175-10.8218231-10.7635498c-0.0000534-0.0194397-0.0000534-0.0388184,0-0.0582886
					V212.3636017c0-5.9767151,4.8450928-10.8218231,10.8218155-10.8218231c0.0000076,0,0.0000076,0,0.0000076,0h45.9927292
					c5.9653625,0.016037,10.7927551,4.8564453,10.7927246,10.8218231V212.3636475z"/>
				<path d="M414.9527283,312.7272949v93.3236389c0.0160828,5.4786377-4.4122009,9.9330139-9.8908386,9.9490662
					c-0.0194092,0.000061-0.0388489,0.000061-0.0582275,0h-49.4545593
					c-5.4786377,0.0160828-9.9329834-4.4122009-9.9490967-9.8908386c-0.000061-0.0194092-0.000061-0.0388489,0-0.0582275v-90.443634
					c0-13.4981689,3.9563904-59.1127319-35.287262-59.1127319c-30.3999939,0-36.5963745,31.2145691-37.8181763,45.2363892
					v104.3200073c0.0005798,5.438446-4.3657837,9.8695984-9.8036499,9.9490967h-47.7672577
					c-5.4786682,0.0000305-9.9200439-4.4412842-9.9200592-9.9199829c0-0.0096741,0.0000153-0.0193787,0.0000458-0.0291138V211.52005
					c-0.0160675-5.478653,4.4122162-9.9329681,9.8908691-9.9490509c0.0097198-0.0000153,0.0194244-0.0000305,0.0291443-0.0000305
					h47.7672577c5.4947205,0,9.9490967,4.454361,9.9490967,9.9490814v16.8145447
					c11.287262-16.9309082,28.0145264-29.9927216,63.7091064-29.9927216c79.0690918,0,78.6036072,73.8327179,78.6036072,114.3854523
					V312.7272949z"/>
			</g>
		</g>
	</g>
</g>
</svg>
