<?xml version="1.0" encoding="utf-8"?>
<!-- Generator: Adobe Illustrator 26.4.1, SVG Export Plug-In . SVG Version: 6.00 Build 0)  -->
<svg version="1.1" id="Слой_1" xmlns:svgjs="http://svgjs.com/svgjs"
	 xmlns="http://www.w3.org/2000/svg" xmlns:xlink="http://www.w3.org/1999/xlink" x="0px" y="0px" viewBox="0 0 512 512"
	 style="enable-background:new 0 0 512 512;" xml:space="preserve">
<g>
	<path d="M250.5216064,400.8367615h30.5942688c0,0,9.2486877-1.0240479,13.9530334-6.1124268
		c4.3523254-4.6723633,4.1922913-13.4410095,4.1922913-13.4410095s-0.6080322-41.0590515,18.4653625-47.1075134
		c18.7854004-5.9524231,42.9151917,39.6829529,68.4851074,57.2522583
		c19.3294373,13.2809753,34.0185242,10.3687744,34.0185242,10.3687744l68.3890686-0.960083
		c0,0,35.7786865-2.2081604,18.8174133-30.3382263c-1.3761292-2.3041687-9.8887329-20.8015442-50.8517761-58.8204041
		c-42.8831787-39.8109436-37.1227417-33.3464661,14.5290527-102.1835632
		c31.4583435-41.923111,44.0352783-67.5250092,40.098999-78.4698181
		c-3.7442627-10.4327774-26.8819885-7.6805725-26.8819885-7.6805725l-76.9337463,0.4480286
		c0,0-5.6964111-0.7680588-9.9527283,1.7601318c-4.1282959,2.4961853-6.7844849,8.2566071-6.7844849,8.2566071
		s-12.1929016,32.4504089-28.4501343,60.0364532c-34.2745361,58.212326-48.00354,61.2845612-53.6039734,57.6682892
		c-13.0249634-8.416626-9.7607422-33.8585205-9.7607422-51.9078674c0-56.4201813,8.5446472-79.941925-16.6732178-86.022377
		c-8.3846436-2.0161514-14.5290833-3.3602524-35.9386902-3.5842667
		c-27.4580231-0.2880249-50.7237549,0.0960083-63.8767548,6.5284805
		c-8.7686462,4.2883224-15.5211487,13.8570328-11.3928375,14.4010696
		c5.0883789,0.6720428,16.6092377,3.1042328,22.7216949,11.4248505c7.9045868,10.7207947,7.6165619,34.8505859,7.6165619,34.8505859
		s4.544342,66.4049377-10.5927887,74.6615601c-10.4007568,5.6644287-24.6418304-5.888443-55.2041016-58.7243652
		c-15.6491547-27.0420227-27.490036-56.9642181-27.490036-56.9642181s-2.272171-5.5684052-6.3364639-8.5446396
		c-4.9283676-3.6162643-11.840889-4.7683487-11.840889-4.7683487l-73.1574326,0.4480286
		c0,0-10.9768143,0.3200226-15.0091143,5.0883789c-3.5842662,4.2563171-0.2880213,13.0249634-0.2880213,13.0249634
		s57.2842522,133.9939423,122.1210709,201.5509796C182.9965973,404.901062,250.5216064,400.8367615,250.5216064,400.8367615
		L250.5216064,400.8367615z"/>
</g>
</svg>
